<?xml version="1.0" encoding="UTF-8" standalone="no"?>
<svg
   width="312.11044"
   height="331.8425"
   viewBox="0 0 82.575821 87.670469"
   version="1.1"
   id="svg12"
   sodipodi:docname="RebornOS_Logo_1.svg"
   inkscape:version="1.2 (dc2aedaf03, 2022-05-15)"
   xmlns:inkscape="http://www.inkscape.org/namespaces/inkscape"
   xmlns:sodipodi="http://sodipodi.sourceforge.net/DTD/sodipodi-0.dtd"
   xmlns="http://www.w3.org/2000/svg"
   xmlns:svg="http://www.w3.org/2000/svg"
   xmlns:rdf="http://www.w3.org/1999/02/22-rdf-syntax-ns#"
   xmlns:cc="http://creativecommons.org/ns#"
   xmlns:dc="http://purl.org/dc/elements/1.1/">
  <metadata
     id="metadata18">
    <rdf:RDF>
      <cc:Work
         rdf:about="">
        <dc:format>image/svg+xml</dc:format>
        <dc:type
           rdf:resource="http://purl.org/dc/dcmitype/StillImage" />
        <dc:title />
      </cc:Work>
    </rdf:RDF>
  </metadata>
  <defs
     id="defs16">
    <filter
       inkscape:collect="always"
       style="color-interpolation-filters:sRGB"
       id="filter870"
       x="-0.0053557686"
       width="1.0107115"
       y="-0.033325578"
       height="1.0666512">
      <feGaussianBlur
         inkscape:collect="always"
         stdDeviation="0.000302881"
         id="feGaussianBlur872" />
    </filter>
  </defs>
  <sodipodi:namedview
     pagecolor="#ffffff"
     bordercolor="#666666"
     borderopacity="1"
     objecttolerance="10"
     gridtolerance="10"
     guidetolerance="10"
     inkscape:pageopacity="0"
     inkscape:pageshadow="2"
     inkscape:window-width="1920"
     inkscape:window-height="995"
     id="namedview14"
     showgrid="false"
     inkscape:zoom="1.3011647"
     inkscape:cx="97.22059"
     inkscape:cy="121.0454"
     inkscape:window-x="0"
     inkscape:window-y="0"
     inkscape:window-maximized="1"
     inkscape:current-layer="svg12"
     inkscape:document-rotation="0"
     fit-margin-top="0"
     fit-margin-left="0"
     fit-margin-right="0"
     fit-margin-bottom="0"
     inkscape:showpageshadow="2"
     inkscape:pagecheckerboard="0"
     inkscape:deskcolor="#d1d1d1" />
  <path
     d="m 9.2601592,140.762 v 8.463 H 13.49316 c 0.58,0 1.125667,-0.108 1.637,-0.324 0.511333,-0.22667 0.958667,-0.53133 1.342,-0.914 0.383333,-0.38333 0.683333,-0.83067 0.9,-1.342 0.226667,-0.52 0.34,-1.07 0.34,-1.65 0,-0.58 -0.113333,-1.12567 -0.34,-1.637 -0.216,-0.52 -0.516,-0.972 -0.9,-1.356 -0.383333,-0.38333 -0.830667,-0.68333 -1.342,-0.9 -0.511333,-0.22667 -1.057,-0.34 -1.637,-0.34 z m 0,16.9 h -4.233 V 136.53 H 13.49316 c 0.776667,0 1.524,0.1 2.242,0.3 0.718,0.19667 1.386667,0.48167 2.006,0.855 0.629333,0.364 1.196,0.80633 1.7,1.327 0.521333,0.51133 0.963667,1.078 1.327,1.7 0.373333,0.62933 0.658333,1.30267 0.855,2.02 0.2,0.71733 0.3,1.464 0.3,2.24 0,0.73333 -0.09333,1.441 -0.28,2.123 -0.176667,0.688 -0.437333,1.34133 -0.782,1.96 -0.333333,0.62 -0.746667,1.18667 -1.24,1.7 -0.491333,0.52 -1.042,0.972 -1.652,1.356 l 2.345,5.53 h -4.498 l -1.844,-4.26 -4.7340008,0.03 z M 30.44016,153.79 c 0.157333,0.0493 0.314667,0.0837 0.472,0.103 0.157333,0.01 0.314667,0.015 0.472,0.015 0.4,0 0.778667,-0.054 1.136,-0.162 0.364,-0.108 0.703333,-0.26033 1.018,-0.457 0.324667,-0.2 0.609667,-0.44567 0.855,-0.737 0.255333,-0.29467 0.462,-0.619 0.62,-0.973 l 2.95,2.963 c -0.373333,0.53067 -0.806,1.00733 -1.298,1.43 -0.482,0.42267 -1.008,0.78133 -1.578,1.076 -0.56,0.29467 -1.155,0.51567 -1.785,0.663 -0.62,0.15733 -1.259,0.236 -1.917,0.236 -1.111333,0 -2.158,-0.20667 -3.14,-0.62 -0.973333,-0.41333 -1.828667,-0.98833 -2.566,-1.725 -0.733333,-0.73733 -1.308667,-1.612 -1.726,-2.624 -0.422667,-1.022 -0.634,-2.14267 -0.634,-3.362 0,-1.248 0.211333,-2.388 0.634,-3.42 0.422667,-1.032 0.998,-1.912 1.726,-2.64 0.737333,-0.73333 1.592667,-1.29867 2.566,-1.696 0.983333,-0.40267 2.03,-0.604 3.14,-0.604 0.658667,0 1.302667,0.0787 1.932,0.236 0.629333,0.15733 1.224333,0.38333 1.785,0.678 0.57,0.29467 1.101,0.66133 1.593,1.1 0.491333,0.42267 0.924,0.89933 1.298,1.43 z m 2.065,-8.3 c -0.186667,-0.0687 -0.373333,-0.113 -0.56,-0.133 -0.176667,-0.02 -0.363333,-0.03 -0.56,-0.03 -0.550667,0 -1.071667,0.1 -1.563,0.3 -0.482,0.19667 -0.904667,0.48167 -1.268,0.855 -0.353333,0.37333 -0.633333,0.82533 -0.84,1.356 -0.2,0.52 -0.3,1.11 -0.3,1.77 0,0.14667 0.005,0.31333 0.015,0.5 0.02,0.18667 0.04467,0.37833 0.074,0.575 0.04,0.18667 0.08433,0.36867 0.133,0.546 0.04933,0.17667 0.113333,0.334 0.192,0.472 z m 23.362,4.137 c 0,1.23867 -0.211333,2.372 -0.634,3.4 -0.422667,1.022 -0.998,1.902 -1.726,2.64 -0.733333,0.73333 -1.588667,1.29867 -2.566,1.696 -0.973333,0.40267 -2.02,0.604 -3.14,0.604 -1.111333,0 -2.158,-0.20667 -3.14,-0.62 -0.973333,-0.41333 -1.828667,-0.98833 -2.566,-1.725 -0.733333,-0.73733 -1.308667,-1.612 -1.726,-2.624 -0.422667,-1.022 -0.634,-2.14267 -0.634,-3.362 V 135.6 h 4.04 v 7.372 c 0.216,-0.27533 0.476667,-0.521 0.782,-0.737 0.314667,-0.216 0.649,-0.39267 1.003,-0.53 0.364,-0.13733 0.737333,-0.23733 1.12,-0.3 0.383333,-0.0787 0.756667,-0.118 1.12,-0.118 1.12,0 2.166667,0.21133 3.14,0.634 0.983333,0.41333 1.838667,0.99333 2.566,1.74 0.733333,0.74667 1.308667,1.63133 1.726,2.654 0.422667,1.01333 0.634,2.124 0.634,3.332 z m -4.056,0 c 0,-0.60933 -0.108,-1.17467 -0.324,-1.696 -0.2,-0.53067 -0.485,-0.98733 -0.855,-1.37 -0.364,-0.38333 -0.791667,-0.68333 -1.283,-0.9 -0.482,-0.216 -0.998667,-0.324 -1.55,-0.324 -0.550667,0 -1.071667,0.12333 -1.563,0.37 -0.482,0.236 -0.904667,0.55533 -1.268,0.958 -0.364,0.4 -0.649,0.85667 -0.855,1.37 -0.2,0.51133 -0.3,1.042 -0.3,1.592 0,0.60933 0.1,1.17467 0.3,1.696 0.2,0.52 0.485,0.972 0.855,1.356 0.364,0.38333 0.786667,0.688 1.268,0.914 0.491333,0.216 1.012333,0.324 1.563,0.324 0.550667,0 1.067333,-0.108 1.55,-0.324 0.491333,-0.22667 0.919,-0.53133 1.283,-0.914 0.364,-0.38333 0.649,-0.83533 0.855,-1.356 0.216,-0.52 0.324,-1.08533 0.324,-1.696 z m 21.563,0 c 0,1.18 -0.211333,2.281 -0.634,3.303 -0.422667,1.01333 -0.998,1.89333 -1.726,2.64 -0.733333,0.73733 -1.588667,1.322 -2.566,1.754 -0.973333,0.42267 -2.02,0.634 -3.14,0.634 -1.111333,0 -2.158,-0.21133 -3.14,-0.634 -0.973333,-0.43333 -1.828667,-1.018 -2.566,-1.754 -0.733333,-0.74667 -1.308667,-1.62667 -1.726,-2.64 -0.422667,-1.022 -0.634,-2.123 -0.634,-3.303 0,-1.2 0.211333,-2.31067 0.634,-3.332 0.422667,-1.022 0.998,-1.902 1.726,-2.64 0.737333,-0.74667 1.592667,-1.33133 2.566,-1.754 0.983333,-0.42267 2.03,-0.634 3.14,-0.634 1.12,0 2.166667,0.20133 3.14,0.604 0.983333,0.4 1.838667,0.96533 2.566,1.696 0.733333,0.73333 1.308667,1.61333 1.726,2.64 0.422667,1.022 0.634,2.162 0.634,3.42 z m -4.056,0 c 0,-0.64867 -0.108,-1.23333 -0.324,-1.754 -0.2,-0.53067 -0.485,-0.98267 -0.855,-1.356 -0.364,-0.38333 -0.791667,-0.67333 -1.283,-0.87 -0.482,-0.2 -0.998667,-0.3 -1.55,-0.3 -0.550667,0 -1.071667,0.1 -1.563,0.3 -0.482,0.19667 -0.904667,0.48667 -1.268,0.87 -0.353333,0.37333 -0.633333,0.82533 -0.84,1.356 -0.2,0.52 -0.3,1.10467 -0.3,1.754 0,0.60933 0.1,1.17467 0.3,1.696 0.2,0.52 0.48,0.972 0.84,1.356 0.364,0.38333 0.786667,0.688 1.268,0.914 0.491333,0.216 1.012333,0.324 1.563,0.324 0.550667,0 1.067333,-0.1 1.55,-0.3 0.491333,-0.2 0.919,-0.49 1.283,-0.87 0.364,-0.37333 0.649,-0.82533 0.855,-1.356 0.216,-0.53067 0.324,-1.11533 0.324,-1.754 z m 10.34,8.036 h -4.026 v -15.8 h 0.973 l 1.327,1.872 c 0.648667,-0.59 1.386,-1.042 2.212,-1.356 0.826667,-0.32467 1.682,-0.487 2.566,-0.487 h 3.554 v 4 h -3.554 c -0.422667,0 -0.821,0.0787 -1.195,0.236 -0.373333,0.15733 -0.697667,0.374 -0.973,0.65 -0.275333,0.27533 -0.492,0.59967 -0.65,0.973 -0.157333,0.37333 -0.236,0.77133 -0.236,1.194 z m 12.507,0 h -4.026 v -15.8 h 0.973 l 1.327,1.533 c 0.648667,-0.59 1.381333,-1.042 2.198,-1.356 0.826667,-0.32467 1.686667,-0.487 2.58,-0.487 0.963333,0 1.873333,0.18667 2.73,0.56 0.855333,0.364 1.602665,0.87067 2.242,1.52 0.63999,0.63867 1.14132,1.39067 1.50398,2.256 0.37334,0.85533 0.56,1.76933 0.56,2.742 v 9.023 h -4.01998 v -9.023 c 0,-0.41333 -0.07867,-0.80167 -0.236,-1.165 -0.157333,-0.37333 -0.374,-0.69767 -0.65,-0.973 -0.275333,-0.27533 -0.595333,-0.492 -0.96,-0.65 -0.364,-0.15733 -0.752333,-0.236 -1.165,-0.236 -0.422667,0 -0.821,0.0787 -1.195,0.236 -0.373333,0.15733 -0.697667,0.374 -0.973,0.65 -0.275333,0.27533 -0.492,0.59967 -0.65,0.973 -0.157333,0.364 -0.236,0.75233 -0.236,1.165 z m 34.61279,-10.473 c 0,1.00267 -0.13267,1.97067 -0.398,2.904 -0.25534,0.924 -0.622,1.79067 -1.1,2.6 -0.472,0.8 -1.03867,1.53733 -1.7,2.212 -0.66867,0.66867 -1.406,1.24367 -2.212,1.725 -0.8,0.472 -1.66667,0.83867 -2.6,1.1 -0.93334,0.26533 -1.90167,0.398 -2.905,0.398 -1.00267,0 -1.971,-0.13267 -2.905,-0.398 -0.924,-0.25533 -1.79067,-0.622 -2.6,-1.1 -0.8,-0.48133 -1.53734,-1.05633 -2.212,-1.725 -0.66867,-0.66867 -1.244,-1.406 -1.726,-2.212 -0.472,-0.816 -0.84067,-1.68267 -1.106,-2.6 -0.25534,-0.93333 -0.383,-1.90133 -0.383,-2.904 0,-1.00267 0.12766,-1.97067 0.383,-2.904 0.26533,-0.93333 0.634,-1.8 1.106,-2.6 0.482,-0.8 1.05733,-1.53733 1.726,-2.212 0.66866,-0.66867 1.406,-1.23533 2.212,-1.7 0.816,-0.472 1.68266,-0.83867 2.6,-1.1 0.93333,-0.26533 1.90166,-0.398 2.905,-0.398 1.00266,0 1.971,0.13267 2.905,0.398 0.93333,0.25533 1.8,0.622 2.6,1.1 0.8,0.472 1.53733,1.03867 2.212,1.7 0.66866,0.66867 1.23533,1.406 1.7,2.212 0.472,0.8 0.83866,1.66667 1.1,2.6 0.26533,0.93333 0.398,1.90133 0.398,2.904 z m -4.203,0 c 0,-0.924 -0.17667,-1.79067 -0.53,-2.6 -0.35334,-0.82533 -0.835,-1.538 -1.445,-2.138 -0.6,-0.60933 -1.31334,-1.091 -2.14,-1.445 -0.816,-0.35333 -1.68267,-0.53 -2.6,-0.53 -0.93334,0 -1.80834,0.17667 -2.625,0.53 -0.816,0.35333 -1.52934,0.835 -2.14,1.445 -0.60934,0.6 -1.091,1.31267 -1.445,2.138 -0.35334,0.816 -0.53,1.68267 -0.53,2.6 0,0.924 0.17666,1.79067 0.53,2.6 0.35333,0.8 0.835,1.50767 1.445,2.123 0.60933,0.60933 1.32266,1.091 2.14,1.445 0.816,0.35333 1.691,0.53 2.625,0.53 0.924,0 1.79066,-0.17667 2.6,-0.53 0.82666,-0.35333 1.54,-0.835 2.14,-1.445 0.60933,-0.60933 1.091,-1.317 1.445,-2.123 0.35333,-0.816 0.53,-1.68267 0.53,-2.6 z m 5.723,-4.33 c 0,-0.87467 0.16666,-1.69533 0.5,-2.462 0.33333,-0.76667 0.78566,-1.435 1.357,-2.005 0.58,-0.58 1.25333,-1.03667 2.02,-1.37 0.76666,-0.33333 1.58766,-0.5 2.463,-0.5 h 9.705 v 4.23 h -9.705 c -0.29467,0 -0.57,0.054 -0.826,0.162 -0.25534,0.108 -0.48134,0.26033 -0.678,0.457 -0.18667,0.18667 -0.334,0.40767 -0.442,0.663 -0.108,0.25533 -0.162,0.53067 -0.162,0.826 0,0.29467 0.054,0.57467 0.162,0.84 0.108,0.25533 0.25533,0.48133 0.442,0.678 0.19666,0.18667 0.42266,0.334 0.678,0.442 0.25533,0.108 0.53066,0.162 0.826,0.162 h 4.233 c 0.87533,0 1.69633,0.16667 2.463,0.5 0.77666,0.32467 1.45,0.77667 2.02,1.356 0.58,0.57 1.03233,1.24333 1.357,2.02 0.33333,0.76667 0.5,1.58733 0.5,2.462 0,0.87467 -0.16667,1.69533 -0.5,2.462 -0.32467,0.76667 -0.777,1.44 -1.357,2.02 -0.57,0.57 -1.24334,1.022 -2.02,1.356 -0.76667,0.33333 -1.58767,0.5 -2.463,0.5 h -9.395 v -4.23 h 9.395 c 0.29466,0 0.57,-0.054 0.826,-0.162 0.25533,-0.108 0.47666,-0.25533 0.664,-0.442 0.19666,-0.19667 0.349,-0.42267 0.457,-0.678 0.108,-0.25533 0.162,-0.53067 0.162,-0.826 0,-0.29467 -0.054,-0.57 -0.162,-0.826 -0.108,-0.25533 -0.26034,-0.47633 -0.457,-0.663 -0.18667,-0.19667 -0.408,-0.349 -0.664,-0.457 -0.25534,-0.108 -0.53067,-0.162 -0.826,-0.162 h -4.233 c -0.87534,0 -1.69634,-0.16667 -2.463,-0.5 -0.76667,-0.33333 -1.44,-0.78533 -2.02,-1.356 -0.57,-0.58 -1.02234,-1.25333 -1.357,-2.02 -0.33334,-0.77667 -0.5,-1.60233 -0.5,-2.477 z"
     stroke="#cccccc"
     fill="#1a1a1a"
     stroke-width="1.5"
     stroke-linejoin="round"
     id="path2"
     style="stroke-width:1.50013;stroke-miterlimit:4;stroke-dasharray:none;filter:url(#filter870)"
     sodipodi:nodetypes="ccscccscscsccccscccccscccccccccccsccccccccscccssccssccccccscccscccccccccscccsccccccscccccscccscccscccscccsscccscccscccscccsscccscccscccscccssccccccsccscccccccccccscccsccscccscccccscccccscccccscccccscccccsscccscccscccscccssscssccscsssccssscccscscsccsccsscccsssccs"
     transform="matrix(0.5625,0,0,0.5625,-1.2010911,-1.2656088)" />
  <g
     id="g568"
     transform="matrix(2.441567,0,0,2.441567,98.591998,-20.958802)">
    <path
       d="m -15.388376,37.222239 h -16.114765 l -8.057385,-13.955523 8.057385,-13.9544261 h 16.114765 l 8.0573897,13.9550851 z"
       fill="#1a1a1a"
       stroke="#cccccc"
       stroke-width="0.322544"
       id="path4-7"
       style="stroke-width:1.27839;stroke-dasharray:none" />
    <path
       d="m -30.49624,10.963638 -3.217974,5.570798 3.179775,1.835874 2.157633,-3.735344 h 4.31378 v -3.671747 z m 7.777754,0 v 3.671748 h 4.31378 l 2.15763,3.737023 3.17978,-1.835874 -3.21756,-5.572897 z m 10.32367,6.736925 -3.17978,1.835874 2.15616,3.735973 -2.15763,3.737442 3.17978,1.835874 3.2175497,-5.572896 z m -21.991453,0 -3.215666,5.567859 3.217555,5.572897 3.179774,-1.835874 -2.157629,-3.737443 2.15616,-3.735972 z m 3.853509,10.473318 -3.179355,1.833985 3.215875,5.569746 h 6.433634 v -3.671746 h -4.31316 z m 14.283594,0 -2.15616,3.735973 h -4.31295 V 35.5816 h 6.43406 l 3.21545,-5.569746 z"
       fill="#277748"
       id="path6-5"
       style="fill:#006680;fill-opacity:1;stroke-width:0.209887" />
    <path
       d="m -27.728266,15.756598 -1.83587,3.175997 2.74531,1.585059 0.9193,-1.591566 h 1.83588 v -3.16949 z m 5.00999,0 v 3.16991 h 1.83587 l 0.9193,1.591567 2.74531,-1.585061 -1.83587,-3.175996 z m -7.516446,4.340445 -1.831886,3.173058 1.835874,3.175998 2.745308,-1.585061 -0.9193,-1.591566 0.9172,-1.587999 z m 13.687936,0 -2.74531,1.58506 0.9172,1.587998 -0.9193,1.591566 2.74531,1.585061 1.83587,-3.175997 z m -10.26847,5.928863 -2.745312,1.58506 1.831882,3.173478 h 3.66588 v -3.17033 h -1.83588 z m 6.84963,0 -0.9172,1.587998 h -1.83545 v 3.169911 h 3.66587 l 1.83188,-3.173478 z"
       fill="#649f4b"
       id="path8-3"
       style="fill:#0086a8;fill-opacity:1;stroke-width:0.209887" />
    <path
       d="m -21.568946,26.42511 h -3.64278 l -1.82181,-3.154588 1.82181,-3.154589 h 3.64299 l 1.82181,3.154589 z"
       fill="#656565"
       id="path10-5"
       style="fill:#00acd6;fill-opacity:1;stroke-width:0.209887" />
  </g>
</svg>
