<?xml version="1.0" encoding="UTF-8" standalone="no"?>
<svg
   xmlns:dc="http://purl.org/dc/elements/1.1/"
   xmlns:cc="http://creativecommons.org/ns#"
   xmlns:rdf="http://www.w3.org/1999/02/22-rdf-syntax-ns#"
   xmlns:svg="http://www.w3.org/2000/svg"
   xmlns="http://www.w3.org/2000/svg"
   xmlns:sodipodi="http://sodipodi.sourceforge.net/DTD/sodipodi-0.dtd"
   xmlns:inkscape="http://www.inkscape.org/namespaces/inkscape"
   width="128"
   height="128"
   viewBox="0 0 33.865273 33.816708"
   version="1.1"
   id="svg12"
   sodipodi:docname="RebornOS_Logo_2.svg"
   inkscape:version="1.0.2 (e86c870879, 2021-01-15)">
  <metadata
     id="metadata18">
    <rdf:RDF>
      <cc:Work
         rdf:about="">
        <dc:format>image/svg+xml</dc:format>
        <dc:type
           rdf:resource="http://purl.org/dc/dcmitype/StillImage" />
        <dc:title></dc:title>
      </cc:Work>
    </rdf:RDF>
  </metadata>
  <defs
     id="defs16" />
  <sodipodi:namedview
     pagecolor="#ffffff"
     bordercolor="#666666"
     borderopacity="1"
     objecttolerance="10"
     gridtolerance="10"
     guidetolerance="10"
     inkscape:pageopacity="0"
     inkscape:pageshadow="2"
     inkscape:window-width="1920"
     inkscape:window-height="1027"
     id="namedview14"
     showgrid="false"
     inkscape:zoom="2.7973568"
     inkscape:cx="42.291768"
     inkscape:cy="34.199689"
     inkscape:window-x="0"
     inkscape:window-y="27"
     inkscape:window-maximized="1"
     inkscape:current-layer="svg12"
     inkscape:document-rotation="0"
     fit-margin-top="0"
     fit-margin-left="0"
     fit-margin-right="0"
     fit-margin-bottom="0" />
  <g
     id="g837"
     transform="matrix(1.0565299,0,0,1.0565299,0.1048952,2.3864178)">
    <path
       d="M 23.860946,27.478783 H 8.0777978 L 0.18622363,13.810447 8.0777978,0.14318716 H 23.860946 L 31.752522,13.811093 Z"
       fill="#1a1a1a"
       stroke="#cccccc"
       stroke-width="0.322544"
       id="path4" />
    <path
       d="m 8.689771,1.2024214 -3.2968286,5.7073068 3.2576932,1.880861 2.2105004,-3.826876 h 4.419496 V 1.2019914 Z m 7.968339,0 v 3.761722 h 4.419496 l 2.210502,3.828596 3.257694,-1.8808608 -3.2964,-5.7094572 z m 10.576646,6.9020094 -3.257694,1.880861 2.208994,3.8275212 -2.2105,3.829026 3.257694,1.880861 3.2964,-5.709457 z m -22.5303374,0 L 1.4099552,13.808727 4.706354,19.518185 7.964047,17.637324 5.7535464,13.808297 7.9625418,9.9807762 Z m 3.9479372,10.7299612 -3.2572632,1.878925 3.2946784,5.70623 h 6.591291 v -3.76172 h -4.418851 z m 14.6336022,0 -2.208996,3.827521 h -4.418637 v 3.76172 h 6.591723 l 3.294248,-5.70623 z"
       fill="#277748"
       id="path6"
       style="fill:#006680;fill-opacity:1;stroke-width:0.21503" />
    <path
       d="m 11.525577,6.1128296 -1.880861,3.2538228 2.812583,1.6239006 0.941828,-1.6305664 h 1.880861 v -3.247157 z m 5.132748,0 v 3.2475872 h 1.880861 l 0.941828,1.6305672 2.812584,-1.6239014 -1.880862,-3.2538228 z m -7.7006274,4.4468054 -1.8767756,3.250812 1.8808612,3.253824 2.8125828,-1.623902 -0.941828,-1.630566 0.939677,-1.626912 z m 14.0233484,0 -2.812584,1.623901 0.939678,1.626911 -0.941828,1.630567 2.812584,1.623902 1.880862,-3.253823 z m -10.520092,6.074147 -2.8125824,1.623901 1.8767754,3.251242 h 3.755701 v -3.248017 h -1.880861 z m 7.01748,0 -0.939678,1.626911 h -1.880431 v 3.247588 h 3.755701 l 1.876776,-3.251243 z"
       fill="#649f4b"
       id="path8"
       style="fill:#0086a8;fill-opacity:1;stroke-width:0.21503" />
    <path
       d="m 17.835826,17.042768 h -3.732048 l -1.866454,-3.23189 1.866454,-3.23189 h 3.732263 l 1.866453,3.23189 z"
       fill="#656565"
       id="path10"
       style="fill:#00acd6;fill-opacity:1;stroke-width:0.21503" />
  </g>
</svg>
