<?xml version="1.0" encoding="UTF-8" standalone="no"?>
<svg
   width="192"
   height="192"
   viewBox="0 0 50.78854 50.78854"
   version="1.1"
   id="svg10"
   sodipodi:docname="RebornOS_Logo_4.svg"
   inkscape:version="1.1 (c4e8f9ed74, 2021-05-24)"
   xmlns:inkscape="http://www.inkscape.org/namespaces/inkscape"
   xmlns:sodipodi="http://sodipodi.sourceforge.net/DTD/sodipodi-0.dtd"
   xmlns="http://www.w3.org/2000/svg"
   xmlns:svg="http://www.w3.org/2000/svg">
  <defs
     id="defs14" />
  <sodipodi:namedview
     id="namedview12"
     pagecolor="#ffffff"
     bordercolor="#666666"
     borderopacity="1.0"
     inkscape:pageshadow="2"
     inkscape:pageopacity="0.0"
     inkscape:pagecheckerboard="0"
     showgrid="false"
     inkscape:zoom="2"
     inkscape:cx="129.75"
     inkscape:cy="88.25"
     inkscape:window-width="1920"
     inkscape:window-height="996"
     inkscape:window-x="0"
     inkscape:window-y="0"
     inkscape:window-maximized="1"
     inkscape:current-layer="svg10" />
  <g
     id="g843"
     transform="matrix(0.33367445,0,0,0.33367445,0.19351546,0.49435491)">
    <path
       d="M 113.28,140.924 H 37.76 L 0.001,75.52 37.761,10.12 h 75.52 l 37.76,65.402 z"
       fill="#00222b"
       stroke="#aaeeff"
       stroke-opacity="0"
       id="path831" />
    <path
       d="m 40.688,15.2 -15.774,27.3 15.588,9 10.578,-18.312 h 21.147 v -18 z m 38.127,0 v 18 h 21.147 l 10.578,18.3 15.588,-9 -15.774,-27.32 z m 50.608,33.027 -15.588,9 10.57,18.305 -10.578,18.322 15.588,9 15.774,-27.32 z m -107.804,0 -15.764,27.295 15.774,27.32 15.587,-9 L 26.638,75.52 37.208,57.215 Z M 40.5,99.55 l -15.588,9 15.765,27.305 h 31.538 v -18 H 51.08 Z m 70.02,0 -10.57,18.305 H 78.816 v 18 h 31.54 L 126.12,108.55 Z"
       fill="#006680"
       id="path833" />
    <path
       d="m 54.256,38.688 -9,15.57 13.457,7.77 4.505,-7.802 h 9 v -15.54 z m 24.56,0 v 15.54 h 9 l 4.505,7.802 13.457,-7.77 -9,-15.57 z M 41.97,59.966 33,75.52 l 9,15.57 13.457,-7.77 -4.505,-7.802 4.495,-7.785 z m 67.1,0 -13.457,7.77 4.495,7.785 -4.505,7.802 13.457,7.77 9,-15.57 z M 58.732,89.03 45.275,96.8 l 8.98,15.556 h 17.97 v -15.54 h -9 z m 33.578,0 -4.495,7.785 h -9 v 15.54 h 17.97 l 8.98,-15.556 z"
       fill="#0088aa"
       id="path835" />
    <path
       d="M 84.45,90.986 H 66.592 l -8.93,-15.465 8.93,-15.465 H 84.45 l 8.93,15.465 z"
       fill="#00aad4"
       id="path837" />
  </g>
</svg>
