<?xml version="1.0" encoding="UTF-8" standalone="no"?>
<svg
   xmlns:dc="http://purl.org/dc/elements/1.1/"
   xmlns:cc="http://creativecommons.org/ns#"
   xmlns:rdf="http://www.w3.org/1999/02/22-rdf-syntax-ns#"
   xmlns:svg="http://www.w3.org/2000/svg"
   xmlns="http://www.w3.org/2000/svg"
   xmlns:sodipodi="http://sodipodi.sourceforge.net/DTD/sodipodi-0.dtd"
   xmlns:inkscape="http://www.inkscape.org/namespaces/inkscape"
   width="1000.0007"
   height="126.42799"
   viewBox="0 0 264.52383 33.443192"
   version="1.1"
   id="svg10"
   sodipodi:docname="top_bar.svg"
   inkscape:version="1.0.2 (e86c870879, 2021-01-15)">
  <metadata
     id="metadata16">
    <rdf:RDF>
      <cc:Work
         rdf:about="">
        <dc:format>image/svg+xml</dc:format>
        <dc:type
           rdf:resource="http://purl.org/dc/dcmitype/StillImage" />
        <dc:title />
      </cc:Work>
    </rdf:RDF>
  </metadata>
  <defs
     id="defs14" />
  <sodipodi:namedview
     pagecolor="#ffffff"
     bordercolor="#666666"
     borderopacity="1"
     objecttolerance="10"
     gridtolerance="10"
     guidetolerance="10"
     inkscape:pageopacity="0"
     inkscape:pageshadow="2"
     inkscape:window-width="1920"
     inkscape:window-height="1004"
     id="namedview12"
     showgrid="false"
     inkscape:zoom="2"
     inkscape:cx="259.34683"
     inkscape:cy="98.322916"
     inkscape:window-x="0"
     inkscape:window-y="0"
     inkscape:window-maximized="1"
     inkscape:current-layer="svg10"
     fit-margin-top="0"
     fit-margin-left="0"
     fit-margin-right="0"
     fit-margin-bottom="0"
     inkscape:document-rotation="0"
     inkscape:snap-nodes="true" />
  <rect
     style="fill:#353535;fill-opacity:1;stroke:none;stroke-width:1.66284;stroke-linecap:round;stroke-linejoin:bevel"
     id="rect838"
     width="273.52411"
     height="44.157791"
     x="-3.5064502"
     y="-5.4932699" />
  <path
     d="M 24.781286,28.066364 H 11.524774 L 4.8966985,16.585654 11.524948,5.1056363 h 13.256511 l 6.628235,11.4803647 z"
     fill="#00222b"
     stroke="#aaeeff"
     stroke-opacity="0"
     id="path2"
     style="stroke-width:0.175536" />
  <path
     d="m 12.038744,5.9973568 -2.7689062,4.7921162 2.7362572,1.579821 1.856818,-3.2144055 h 3.71207 V 5.9952504 Z m 6.692673,0 V 9.156995 h 3.712069 l 1.856825,3.212299 2.736257,-1.579821 -2.768913,-4.7956269 z m 8.883546,5.7974072 -2.736264,1.57982 1.855424,3.213172 -1.856826,3.216164 2.736258,1.579815 2.768906,-4.795626 z m -18.9235192,0 -2.7671515,4.791237 2.7689065,4.795625 2.7360842,-1.579814 -1.8568262,-3.216158 1.8554182,-3.213176 z m 3.3142982,9.009003 -2.7362572,1.579823 2.7673242,4.792982 h 5.536065 v -3.15963 h -3.709961 z m 12.291053,0 -1.855417,3.213175 h -3.709787 v 3.15963 h 5.536418 l 2.767159,-4.792982 z"
     fill="#006680"
     id="path4"
     style="stroke-width:0.175536" />
  <path
     d="m 14.42042,10.120334 -1.57983,2.733086 2.362196,1.363909 0.790792,-1.369527 h 1.57983 v -2.727819 z m 4.311171,0 v 2.727821 h 1.579829 l 0.790792,1.369524 2.362197,-1.363907 -1.57983,-2.733087 z m -6.467814,3.735041 -1.574552,2.730279 1.579822,2.733082 2.36219,-1.363909 -0.790793,-1.369526 0.789038,-1.366543 z m 11.778499,0 -2.362197,1.36391 0.789038,1.366543 -0.790792,1.369526 2.362189,1.363909 1.57983,-2.733082 z m -8.836154,5.10176 -2.362189,1.36391 1.576307,2.730626 h 3.154388 v -2.727817 h -1.579822 z m 5.894162,0 -0.789045,1.366545 h -1.579822 v 2.727818 h 3.154389 l 1.576321,-2.730626 z"
     fill="#0088aa"
     id="path6"
     style="stroke-width:0.175536" />
  <path
     d="m 19.720564,19.300483 h -3.134729 l -1.567542,-2.714655 1.567542,-2.714653 h 3.134729 l 1.567541,2.714653 z"
     fill="#00aad4"
     id="path8"
     style="stroke-width:0.175536" />
  <g
     id="g1112"
     transform="matrix(0.10901409,0,0,0.10901409,15.012447,8.2148798)"
     style="fill:#ffffff;fill-opacity:1;stroke:#000000;stroke-opacity:1">
    <path
       d="m 200.01109,47.467031 v 37.90833 h 18.95316 q 3.89665,0 7.33123,-1.45324 3.43457,-1.52026 6.001,-4.09469 2.57543,-2.57543 4.02867,-6.001 1.52025,-3.50058 1.52025,-7.39724 0,-3.89665 -1.52025,-7.33122 -1.45324,-3.50059 -4.02867,-6.07602 -2.57543,-2.57543 -6.001,-4.02867 -3.43458,-1.52025 -7.33123,-1.52025 z m 0,75.752649 H 181.05792 V 28.503861 h 37.90833 q 5.21787,0 10.03868,1.38723 4.8208,1.32022 8.9815,3.83064 4.2267,2.44341 7.66128,5.94399 3.50058,3.43458 5.94399,7.66128 2.50042,4.22671 3.83064,9.04751 1.38723,4.82081 1.38723,10.03868 0,4.88682 -1.25521,9.50159 -1.2002,4.62277 -3.50058,8.78347 -2.24538,4.16069 -5.54793,7.66128 -3.30255,3.50058 -7.39723,6.07601 l 10.50175,24.766139 H 229.467 l -8.25537,-19.08619 -21.19954,0.13202 z m 86.36642,-17.30489 q 1.05718,0.33006 2.11336,0.46208 1.05717,0.066 2.11335,0.066 2.64044,0 5.08485,-0.72612 2.44341,-0.72612 4.55676,-2.04734 2.18036,-1.38724 3.83064,-3.30256 1.71729,-1.980329 2.77346,-4.358719 l 13.20821,13.274209 q -2.50042,3.5666 -5.80097,6.40607 -3.23654,2.84048 -7.06618,4.82081 -3.76463,1.98033 -8.00134,2.9705 -4.16069,1.05717 -8.58543,1.05717 -7.46325,0 -14.06735,-2.77346 -6.53809,-2.77346 -11.50192,-7.72729 -4.88682,-4.95283 -7.72729,-11.75597 -2.84048,-6.868139 -2.84048,-15.057509 0,-8.3874 2.84048,-15.32256 2.84047,-6.93416 7.72729,-11.82198 4.95282,-4.88681 11.50192,-7.59527 6.6041,-2.70745 14.06735,-2.70745 4.42474,0 8.65144,1.05718 4.22671,1.05718 8.00134,3.03751 3.83064,1.98033 7.13119,4.88681 3.30255,2.84048 5.80097,6.40607 z m 9.24555,-37.182209 q -1.25521,-0.46208 -2.50042,-0.5941 -1.2002,-0.13202 -2.50042,-0.13202 -3.69862,0 -7.00117,1.38723 -3.23654,1.32022 -5.68095,3.83064 -2.37739,2.50042 -3.76463,6.07601 -1.38723,3.50059 -1.38723,7.92533 0,1.00017 0.066,2.24537 0.13203,1.25521 0.33006,2.57543 0.26404,1.25521 0.5941,2.44341 0.33005,1.2002 0.85814,2.11336 z"
       id="path12"
       style="fill:#ffffff;fill-opacity:1;stroke:#000000;stroke-width:1.00017;stroke-opacity:1" />
    <path
       d="m 391.76212,87.224671 q 0,8.32139 -2.84047,15.189539 -2.84048,6.86814 -7.7273,11.82197 -4.88681,4.88682 -11.50192,7.59527 -6.53809,2.70745 -14.06735,2.70745 -7.46324,0 -14.06735,-2.77346 -6.53809,-2.77346 -11.50192,-7.72729 -4.88682,-4.95283 -7.72729,-11.75597 -2.84048,-6.868139 -2.84048,-15.057509 v -62.87251 h 18.09603 v 33.02052 q 1.45324,-1.85031 3.50058,-3.30255 2.11336,-1.45324 4.50076,-2.3774 2.4434,-0.92415 5.01883,-1.38723 2.57543,-0.52809 5.01884,-0.52809 7.52926,0 14.06735,2.84048 6.60411,2.77346 11.50192,7.7933 4.88682,5.01884 7.7273,11.88798 2.84047,6.80114 2.84047,14.9255 z m -18.16303,0 q 0,-4.09469 -1.45325,-7.59527 -1.38723,-3.5666 -3.83064,-6.14103 -2.44341,-2.57543 -5.74596,-4.02867 -3.23654,-1.45324 -6.93416,-1.45324 -3.69861,0 -7.00117,1.65027 -3.23654,1.58527 -5.68094,4.29272 -2.44341,2.64044 -3.83064,6.14103 -1.38724,3.43457 -1.38724,7.13119 0,4.09468 1.38724,7.59527 1.38723,3.50058 3.83064,6.076009 2.4434,2.57543 5.68094,4.09469 3.30256,1.45324 7.00117,1.45324 3.69862,0 6.93416,-1.45324 3.30255,-1.52026 5.74596,-4.09469 2.44341,-2.575429 3.83064,-6.076009 1.45325,-3.50059 1.45325,-7.59527 z"
       id="path14"
       style="fill:#ffffff;fill-opacity:1;stroke:#000000;stroke-width:1.00017;stroke-opacity:1" />
    <path
       d="m 461.6828,87.224671 q 0,7.92532 -2.84047,14.802469 -2.84048,6.80114 -7.72729,11.82198 -4.88682,4.95282 -11.50193,7.85931 -6.53809,2.84047 -14.06735,2.84047 -7.46324,0 -14.06735,-2.84047 -6.53809,-2.90549 -11.50192,-7.85931 -4.88681,-5.01884 -7.72729,-11.82198 -2.84047,-6.868149 -2.84047,-14.802469 0,-8.05735 2.84047,-14.9255 2.84048,-6.86814 7.72729,-11.82197 4.95283,-5.01884 11.50192,-7.85931 6.60411,-2.84048 14.06735,-2.84048 7.52926,0 14.06735,2.70745 6.60411,2.64045 11.50193,7.59527 4.88681,4.88682 7.72729,11.82198 2.84047,6.86815 2.84047,15.32256 z m -18.16303,0 q 0,-4.35873 -1.45325,-7.85931 -1.38723,-3.5666 -3.83064,-6.07602 -2.4434,-2.57543 -5.74596,-3.89665 -3.23654,-1.38723 -6.93415,-1.38723 -3.69862,0 -7.00117,1.38723 -3.23654,1.32022 -5.68095,3.89665 -2.3774,2.50042 -3.76463,6.07602 -1.38723,3.50058 -1.38723,7.85931 0,4.09468 1.38723,7.59527 1.38723,3.50058 3.76463,6.076009 2.44341,2.57543 5.68095,4.09469 3.30255,1.45324 7.00117,1.45324 3.69861,0 6.93415,-1.38723 3.30256,-1.38723 5.74596,-3.89665 2.44341,-2.500419 3.83064,-6.076019 1.45325,-3.56659 1.45325,-7.85931 z m 37.82632,35.993009 H 463.31707 V 52.485861 h 4.35873 l 5.944,8.38741 q 4.35872,-3.96267 9.90665,-6.07602 5.54793,-2.18036 11.50192,-2.18036 h 15.91666 v 17.963 h -15.91666 q -2.84047,0 -5.35089,1.05717 -2.50042,1.05718 -4.35873,2.90549 -1.85031,1.85031 -2.90548,4.35873 -1.05718,2.50042 -1.05718,5.35089 z"
       id="path16"
       style="fill:#ffffff;fill-opacity:1;stroke:#000000;stroke-width:1.00017;stroke-opacity:1" />
    <path
       d="M 528.88803,123.21768 H 510.85802 V 52.485861 h 4.35873 l 5.94399,6.86815 c 2.90582,-2.641773 6.18637,-4.66711 9.84164,-6.07601 3.69862,-1.45358 7.55126,-2.18037 11.55793,-2.18037 4.31406,0 8.38674,0.833473 12.21805,2.50042 3.83064,1.62894 7.17686,3.895987 10.03867,6.80114 2.86181,2.861807 5.10719,6.230033 6.73613,10.10468 1.66695,3.83064 2.50042,7.925327 2.50042,12.28406 V 123.19468 H 556.02256 V 82.787931 c 0,-1.84898 -0.35239,-3.58827 -1.05717,-5.21787 -0.70479,-1.666947 -1.67328,-3.119857 -2.90549,-4.35873 -1.23354,-1.23354 -2.66445,-2.202037 -4.29272,-2.90549 -1.62893,-0.70478 -3.36822,-1.05717 -5.21787,-1.05717 -1.89365,0 -3.67728,0.35239 -5.35089,1.05717 -1.66695,0.704787 -3.11986,1.673283 -4.35873,2.90549 -1.23354,1.23354 -2.20204,2.68645 -2.90549,4.35873 -0.70478,1.628933 -1.05717,3.368223 -1.05717,5.21787 z M 680.5145,76.261841 c 0,4.490747 -0.59443,8.82747 -1.7833,13.01017 -1.14485,4.138693 -2.77379,8.035343 -4.88681,11.689949 -2.11368,3.61061 -4.66744,6.91283 -7.66128,9.90666 -3.0005,3.0005 -6.30272,5.57626 -9.90666,7.72729 -3.6106,2.11369 -7.50725,3.74263 -11.68995,4.88682 -4.1827,1.18886 -8.51942,1.78329 -13.01018,1.78329 -4.49074,0 -8.82747,-0.59443 -13.01017,-1.78329 -4.13869,-1.14486 -8.03534,-2.7738 -11.68995,-4.88682 -3.6106,-2.15769 -6.91282,-4.73346 -9.90666,-7.72729 -3.0005,-3.0005 -5.57626,-6.30272 -7.72729,-9.90666 -2.11368,-3.653939 -3.76463,-7.550589 -4.95283,-11.689949 -1.14485,-4.1827 -1.71728,-8.519423 -1.71728,-13.01017 0,-4.490753 0.57243,-8.82748 1.71728,-13.01018 1.18887,-4.182693 2.83981,-8.079343 4.95283,-11.68995 2.1577,-3.6106 4.73346,-6.912817 7.72729,-9.90665 3.0005,-3.000507 6.30272,-5.554267 9.90666,-7.66128 3.65394,-2.113687 7.55059,-3.742627 11.68995,-4.88682 4.1827,-1.188867 8.51943,-1.7833 13.01017,-1.7833 4.49076,0 8.82748,0.594433 13.01018,1.7833 4.1827,1.14486 8.07935,2.7738 11.68995,4.88682 3.61061,2.11368 6.91283,4.66744 9.90666,7.66128 3.0005,3.0005 5.55426,6.302717 7.66128,9.90665 2.11369,3.610607 3.74263,7.507257 4.88681,11.68995 1.18887,4.1827 1.7833,8.519427 1.7833,13.01018 z m -18.82314,0 c 0,-4.138693 -0.79246,-8.035347 -2.3774,-11.68996 -1.58493,-3.698613 -3.74196,-6.890813 -6.47108,-9.5766 -2.68578,-2.729787 -5.87798,-4.886813 -9.5766,-6.47108 -3.65394,-1.584927 -7.5506,-2.37739 -11.68996,-2.37739 -4.18269,0 -8.10134,0.792463 -11.75596,2.37739 -3.65394,1.584933 -6.84614,3.74196 -9.5766,6.47108 -2.72978,2.685787 -4.88681,5.877987 -6.47108,9.5766 -1.58493,3.653947 -2.3774,7.5506 -2.3774,11.68996 0,4.138687 0.79247,8.035337 2.3774,11.68995 1.58494,3.6106 3.74196,6.777797 6.47108,9.50159 2.72979,2.729789 5.92199,4.886809 9.5766,6.471079 3.65395,1.58493 7.5726,2.3774 11.75596,2.3774 4.1387,0 8.03535,-0.79247 11.68996,-2.3774 3.69862,-1.58493 6.89082,-3.74196 9.5766,-6.471079 2.72979,-2.729793 4.88682,-5.89699 6.47108,-9.50159 1.58494,-3.653947 2.3774,-7.550597 2.3774,-11.68995 z m 17.15286,-19.35124 c 0,-3.918653 0.74846,-7.594933 2.24538,-11.02884 1.49692,-3.433907 3.52225,-6.42774 6.07601,-8.9815 2.59777,-2.597767 5.61361,-4.644777 9.04751,-6.14103 3.43391,-1.496913 7.11019,-2.24537 11.02885,-2.24537 h 43.45726 v 18.95317 h -43.45726 c -1.32022,0 -2.5531,0.24204 -3.69862,0.72612 -1.14486,0.48408 -2.15736,1.166527 -3.03751,2.04734 -0.8368,0.836807 -1.49691,1.826973 -1.98033,2.9705 -0.48408,1.144853 -0.72612,2.377723 -0.72612,3.69861 0,1.32022 0.24204,2.575097 0.72612,3.76463 0.48408,1.14486 1.14419,2.157363 1.98033,3.03751 0.88015,0.836807 1.89265,1.496917 3.03751,1.98033 1.14486,0.48408 2.37773,0.72612 3.69862,0.72612 h 18.95316 c 3.91866,0 7.59494,0.74846 11.02884,2.24538 3.47859,1.453573 6.49443,3.47891 9.04752,6.07601 2.59777,2.55376 4.62311,5.569597 6.07601,9.04751 1.49692,3.433907 2.24538,7.11019 2.24538,11.02885 0,3.918653 -0.74846,7.594929 -2.24538,11.028839 -1.45357,3.43391 -3.47891,6.44974 -6.07601,9.04751 -2.55376,2.55376 -5.5696,4.5791 -9.04752,6.07602 -3.4339,1.49691 -7.11018,2.24537 -11.02884,2.24537 H 684.1251 v -18.95317 h 42.06903 c 1.32022,0 2.5531,-0.24204 3.69862,-0.72612 1.14486,-0.48408 2.13503,-1.14419 2.9705,-1.98033 0.88015,-0.88015 1.5626,-1.892646 2.04734,-3.037499 0.48408,-1.14486 0.72612,-2.377733 0.72612,-3.69862 0,-1.32022 -0.24204,-2.553093 -0.72612,-3.69862 -0.48408,-1.14486 -1.16652,-2.135027 -2.04734,-2.9705 -0.8368,-0.880147 -1.82697,-1.562593 -2.9705,-2.04734 -1.14486,-0.48408 -2.37773,-0.72612 -3.69862,-0.72612 h -18.95316 c -3.91866,0 -7.59494,-0.74846 -11.02885,-2.24538 -3.4339,-1.496913 -6.44974,-3.52225 -9.04751,-6.07601 -2.55376,-2.597767 -4.57909,-5.613603 -6.07601,-9.04751 -1.49692,-3.47858 -2.24538,-7.176867 -2.24538,-11.09486 z"
       id="path18"
       style="fill:#ffffff;fill-opacity:1;stroke:#000000;stroke-width:1.00017;stroke-opacity:1"
       sodipodi:nodetypes="ccccccscccsccscccscccccsccsccsccsccsccsccsccsccsscccscccscccscccscsscsccsccsscccsscccscccsccscccscccssscccc" />
  </g>
</svg>
