<?xml version="1.0" encoding="UTF-8" standalone="no"?>
<svg
   xmlns:dc="http://purl.org/dc/elements/1.1/"
   xmlns:cc="http://creativecommons.org/ns#"
   xmlns:rdf="http://www.w3.org/1999/02/22-rdf-syntax-ns#"
   xmlns:svg="http://www.w3.org/2000/svg"
   xmlns="http://www.w3.org/2000/svg"
   xmlns:sodipodi="http://sodipodi.sourceforge.net/DTD/sodipodi-0.dtd"
   xmlns:inkscape="http://www.inkscape.org/namespaces/inkscape"
   id="Layer_1"
   enable-background="new 0 0 512 512"
   xml:space="preserve"
   viewBox="0 0 50 50"
   version="1.1"
   y="0px"
   x="0px"
   sodipodi:docname="feedback.svg"
   width="50"
   height="50"
   inkscape:version="1.0.2 (e86c870879, 2021-01-15)"><defs
   id="defs214" /><sodipodi:namedview
   pagecolor="#ffffff"
   bordercolor="#666666"
   borderopacity="1"
   objecttolerance="10"
   gridtolerance="10"
   guidetolerance="10"
   inkscape:pageopacity="0"
   inkscape:pageshadow="2"
   inkscape:window-width="1920"
   inkscape:window-height="1004"
   id="namedview212"
   showgrid="false"
   inkscape:zoom="12.21875"
   inkscape:cx="16.948475"
   inkscape:cy="25.409491"
   inkscape:window-x="0"
   inkscape:window-y="0"
   inkscape:window-maximized="1"
   inkscape:current-layer="Layer_1" />
<linearGradient
   id="SVGID_1_"
   y2="324"
   gradientUnits="userSpaceOnUse"
   x2="468.01001"
   y1="324"
   x1="36.005001">
	<stop
   style="stop-color:#A99966"
   offset=".0049"
   id="stop2" />
	<stop
   style="stop-color:#9A7146"
   offset="1"
   id="stop4" />
</linearGradient>

<linearGradient
   id="SVGID_2_"
   y2="229.5"
   gradientUnits="userSpaceOnUse"
   x2="459.01001"
   y1="229.5"
   x1="45.005001">
	<stop
   style="stop-color:#FEE396"
   offset="0"
   id="stop9" />
	<stop
   style="stop-color:#DFA368"
   offset="1"
   id="stop11" />
</linearGradient>

<linearGradient
   id="SVGID_3_"
   y2="501.51999"
   gradientUnits="userSpaceOnUse"
   x2="476.29001"
   y1="249.45"
   x1="34.674">
	<stop
   style="stop-color:#FEE396"
   offset="0"
   id="stop16" />
	<stop
   style="stop-color:#DFA368"
   offset="1"
   id="stop18" />
</linearGradient>

<linearGradient
   id="SVGID_4_"
   y2="225"
   gradientUnits="userSpaceOnUse"
   x2="335.51001"
   y1="225"
   x1="159.50999">
	<stop
   style="stop-color:#605636"
   offset=".0049"
   id="stop23" />
	<stop
   style="stop-color:#53391C"
   offset="1"
   id="stop25" />
</linearGradient>

<linearGradient
   id="SVGID_5_"
   y2="258.73999"
   gradientUnits="userSpaceOnUse"
   x2="255.35001"
   y1="14.077"
   x1="276.69">
	<stop
   style="stop-color:#FFFFFF"
   offset="0"
   id="stop30" />
	<stop
   style="stop-color:#DEDFE0"
   offset="1"
   id="stop32" />
</linearGradient>

<g
   id="g1130"
   transform="matrix(0.10846013,0,0,0.10846013,-2.2076358,-1.8276508)"><polygon
     points="378,171 126,171 36.005,279 36.005,477 468,477 468,279 "
     fill="url(#SVGID_1_)"
     id="polygon7"
     style="fill:url(#SVGID_1_)" /><polygon
     points="378,180 459,279 45.005,279 126.01,180 "
     fill="url(#SVGID_2_)"
     id="polygon14"
     style="fill:url(#SVGID_2_)" /><rect
     y="279"
     x="45.005001"
     height="189"
     width="414"
     fill="url(#SVGID_3_)"
     id="rect21"
     style="fill:url(#SVGID_3_)" /><path
     d="M 333,227.5 H 162 c -1.381,0 -2.5,-1.119 -2.5,-2.5 0,-1.381 1.119,-2.5 2.5,-2.5 h 171 c 1.381,0 2.5,1.119 2.5,2.5 0,1.381 -1.11,2.5 -2.5,2.5 z"
     fill="url(#SVGID_4_)"
     id="path28"
     style="fill:url(#SVGID_4_)" /><polygon
     stroke="#000000"
     points="310.74,227.5 315.16,222.5 396,131.04 268.12,18 133.56,170.24 192.68,222.5 198.34,227.5 "
     stroke-miterlimit="10"
     fill="url(#SVGID_5_)"
     id="polygon35"
     style="fill:url(#SVGID_5_)" /><g
     id="g207">
	<g
   id="g205">
		<g
   id="g203">
			<g
   id="g201">
				<g
   fill="#009444"
   id="g199">
					<path
   d="m 347.7,120.62 c 0.321,0.07 -0.196,-1.528 -0.228,-1.83 -0.38,0.48 0.35,2.25 0.23,1.83 z"
   id="path37" />
					<polygon
   points="343.57,126.62 343.94,125.5 343.85,124.82 "
   id="polygon39" />
					<path
   d="m 339.53,126.58 c 1.12,2.662 1.481,-0.85 2.516,-0.064 l 0.29,0.598 -0.213,-2.315 c -0.87,0.59 -1.74,2.38 -2.6,1.78 z"
   id="path41" />
					<path
   d="m 335.66,121.19 c 0.418,1.041 -0.272,1.056 0.632,0.199 -0.082,-0.104 -0.115,-0.168 -0.168,-0.248 -0.09,0.04 -0.22,0.07 -0.46,0.05 z"
   id="path43" />
					<path
   d="m 336.12,121.14 c 0.45,-0.19 -0.53,-0.83 0,0 z"
   id="path45" />
					<path
   d="m 334.14,122.3 0.366,-1.116 c -0.289,-0.604 -0.869,-0.61 -0.784,-1.124 -0.5,0.68 -0.21,1.28 0.41,2.24 z"
   id="path47" />
					<path
   d="m 334.08,124.47 0.214,-0.487 c -0.13,-0.25 -0.23,-0.32 -0.21,0.49 z"
   id="path49" />
					<path
   d="m 334.74,122.95 -0.452,1.029 c 0.201,0.424 0.438,1.319 0.229,-0.389 0.15,0.83 0.08,0.01 0.22,-0.64 z"
   id="path51" />
					<path
   d="m 335.23,123.28 c 0.495,0.515 1.034,0.782 0.665,1.895 1.06,-0.68 0.4,-2.59 -0.67,-1.9 z"
   id="path53" />
					<path
   d="m 340.03,129.5 0.664,0.694 0.16,-1.028 c -0.08,0.52 -1.07,-0.52 -0.82,0.34 z"
   id="path55" />
					<path
   d="m 329.95,121.85 c 0.111,0.598 0.609,1.514 0.848,2.255 l 0.284,-0.794 c -0.34,-0.34 -0.88,-0.59 -1.13,-1.46 z"
   id="path57" />
					<path
   d="m 330.79,124.11 -0.423,1.188 c 0.64,-0.04 0.63,-0.55 0.42,-1.19 z"
   id="path59" />
					<polygon
   points="334.54,127.65 334.75,127.57 335.32,125.16 "
   id="polygon61" />
					<polygon
   points="327.19,123.24 327.31,122.46 327.35,121 "
   id="polygon63" />
					<path
   d="m 325.64,123.15 c -0.008,-1.201 -0.894,-1.803 -0.771,-2.576 -0.421,0.324 -0.569,1.398 -0.702,2.361 0.26,-0.58 0.7,-0.56 1.47,0.22 z"
   id="path65" />
					<path
   d="m 323.9,124.36 c 0.121,-0.32 0.192,-0.855 0.273,-1.426 -0.13,0.32 -0.24,0.75 -0.27,1.43 z"
   id="path67" />
					<path
   d="m 329.14,125.31 c -0.145,-0.342 -0.486,-1.246 -0.972,-1.539 l 0.696,1.584 c 0.07,-0.01 0.17,-0.03 0.27,-0.04 z"
   id="path69" />
					<path
   d="m 328.88,125.4 -0.023,-0.051 c -0.3,0.04 -0.512,0.055 -0.604,0.059 0.08,0 0.26,0 0.62,-0.01 z"
   id="path71" />
					<path
   d="m 329.21,125.3 c -0.026,0.003 -0.045,0.004 -0.069,0.01 0.06,0.15 0.09,0.21 0.07,-0.01 z"
   id="path73" />
					<path
   d="m 332.59,126.52 c -0.165,1.03 -0.741,2.24 0.423,3.442 0,-1.2 -0.67,-1.89 -0.42,-3.44 z"
   id="path75" />
					<path
   d="m 330.07,127.28 0.819,0.19 c -0.126,-0.434 -0.421,-1.037 -0.341,-1.548 l -0.48,1.36 z"
   id="path77" />
					<polygon
   points="329.77,127.21 329.85,127.9 330.07,127.28 "
   id="polygon79" />
					<path
   d="m 325.55,125.58 c -0.124,0.801 -0.45,0.951 -0.807,1.167 0.5,0.217 0.975,0.281 1.38,0.171 -0.08,-0.53 -0.14,-1.51 -0.57,-1.34 z"
   id="path81" />
					<path
   d="m 327.21,125.64 c -0.012,0.043 -0.035,0.069 -0.045,0.112 0.08,0.13 0.13,0.17 0.05,-0.11 z"
   id="path83" />
					<path
   d="m 320.93,127.73 c 0.046,0.091 0.095,0.189 0.142,0.284 -0.021,-0.097 -0.041,-0.19 -0.063,-0.289 l -0.08,0.01 z"
   id="path85" />
					<path
   d="m 326.27,127.21 c 0.395,0.238 0.474,-0.214 0.518,-0.771 -0.189,0.227 -0.407,0.399 -0.668,0.481 0.04,0.24 0.07,0.4 0.15,0.29 z"
   id="path87" />
					<path
   d="m 323.04,125.41 c 0.255,0.303 0.517,0.548 0.781,0.767 -0.3,-0.48 -0.84,-1.21 -0.78,-0.77 z"
   id="path89" />
					<path
   d="m 326.94,125.32 c 0.009,-0.031 0.015,-0.064 0.027,-0.086 -0.2,-0.32 -0.14,-0.15 -0.03,0.09 z"
   id="path91" />
					<path
   d="m 326.94,125.32 c -0.099,0.28 -0.118,0.721 -0.149,1.117 0.155,-0.18 0.285,-0.403 0.374,-0.687 -0.07,-0.1 -0.15,-0.27 -0.22,-0.43 z"
   id="path93" />
					<path
   d="m 322.64,138.63 c -0.359,-1.543 0.07,-3.169 1.21,-1.71 0.38,-1.326 -1.415,-6.243 -2.779,-8.899 0.158,0.673 0.323,1.291 -0.146,2.38 0.477,0.77 2.105,1.542 1.877,3.083 -0.729,1.034 -0.916,-0.34 -1.593,-1.03 0.902,1.805 -0.447,3.086 0.519,5.833 l 0.555,-1.2 c 0.14,0.44 0.03,1.21 0.36,1.55 z"
   id="path95" />
					<path
   d="m 322.48,127.82 0.244,-0.267 c -0.407,-0.179 -0.811,-0.728 -1.574,-1.81 -0.29,0.875 -0.239,1.469 -0.137,1.987 l 1.507,-0.165 -0.04,0.26 z"
   id="path97" />
					<path
   d="m 324.04,127.2 c 0.211,1.727 -0.305,2.619 0.605,4.309 0.829,-0.339 0.233,-1.548 0.557,-2.406 -1.28,0.776 0.154,-1.034 -1.101,-1.715 0.198,-0.355 0.422,-0.506 0.636,-0.637 -0.304,-0.137 -0.612,-0.324 -0.922,-0.573 0.022,0.037 0.039,0.063 0.06,0.096 l 0.005,-0.007 c 0.002,0.011 0.003,0.016 0.006,0.027 0.115,0.192 0.168,0.313 0.068,0.21 10e-4,0.022 -0.015,0.034 -0.021,0.042 0.053,0.235 0.08,0.443 0.104,0.645 -0.494,-0.238 -0.178,-0.416 -0.104,-0.645 -0.016,-0.082 -0.031,-0.166 -0.048,-0.251 l -0.011,-0.02 -1.154,1.276 c 0.35,0.16 0.71,0.01 1.31,-0.35 z"
   id="path99" />
					<path
   d="m 333.19,133.75 c -0.081,-0.136 -0.109,-0.256 -0.144,-0.376 -0.04,0.23 -0.04,0.38 0.14,0.38 z"
   id="path101" />
					<path
   d="m 332.37,132.89 c 0.041,-0.259 -0.047,-0.949 0.324,-0.862 0.412,0.428 0.204,0.801 0.359,1.346 0.083,-0.494 0.384,-1.378 -0.442,-2.028 l -0.04,0.253 c -0.704,-0.428 -1.959,-2.323 -1.92,-2.577 0.55,1.46 0.97,2.49 1.72,3.87 z"
   id="path103" />
					<path
   d="m 328.29,130.48 -0.942,1.12 0.967,1.29 -0.257,-0.859 c 0.74,0.17 0.32,-0.87 0.23,-1.55 z"
   id="path105" />
					<polygon
   points="320.26,127.8 320.58,126.94 320.26,125.14 "
   id="polygon107" />
					<polygon
   points="318.62,127.03 319.12,127.55 318.76,126 "
   id="polygon109" />
					<path
   d="m 244.33,175.45 -0.271,0.718 c 0.16,-0.28 0.24,-0.51 0.27,-0.72 z"
   id="path111" />
					<path
   d="m 247.14,173.74 -0.358,-0.695 c 0.14,0.42 0.27,0.72 0.36,0.7 z"
   id="path113" />
					<path
   d="m 282.54,139.32 c -0.933,-1.255 -2.164,-3.269 -1.56,-1.592 l 0.679,1.604 c 0.24,-0.4 0.55,-0.3 0.88,-0.01 z"
   id="path115" />
					<path
   d="m 261.06,157.2 c 0.104,0.143 0.213,0.294 0.32,0.443 -0.088,-0.603 -0.17,-1.165 -0.245,-1.681 -0.03,0.38 -0.06,0.8 -0.08,1.24 z"
   id="path117" />
					<path
   d="m 263.2,164.06 -0.989,-0.825 c 0.27,0.31 0.59,0.59 0.99,0.82 z"
   id="path119" />
					<path
   d="m 225.83,190.22 -1.044,2.744 c 0.91,-0.57 0.74,-1.52 1.04,-2.74 z"
   id="path121" />
					<path
   d="m 303.75,132.64 c -0.629,-0.503 -1.056,-0.66 -1.381,-0.639 0.82,0.78 1.67,2.07 1.38,0.64 z"
   id="path123" />
					<path
   d="m 236.37,158.64 c 0.079,0.322 0.212,0.657 0.403,0.993 -0.05,-0.32 -0.17,-0.63 -0.4,-0.99 z"
   id="path125" />
					<path
   d="m 301.14,132.43 c 0.128,0.14 0.229,0.199 0.351,0.313 0.225,-0.383 0.469,-0.713 0.885,-0.736 -0.61,-0.57 -1.19,-0.86 -1.24,0.43 z"
   id="path127" />
					<path
   d="m 206.67,140.01 c 0.076,-0.042 0.11,-0.088 0.2,-0.127 -0.23,0 -0.24,0.06 -0.2,0.13 z"
   id="path129" />
					<path
   d="m 223.7,124.82 c 0.11,0.139 0.117,0.368 0.145,0.584 0.12,-0.1 0.11,-0.28 -0.14,-0.58 z"
   id="path131" />
					<path
   d="m 312.8,128.56 c 0.3,-0.2 0,-0.2 0,0 z"
   id="path133" />
					<path
   d="m 316.24,134.71 c -0.015,0.208 10e-4,0.461 0.103,0.849 -0.09,-0.41 -0.12,-0.68 -0.1,-0.85 z"
   id="path135" />
					<path
   d="m 301.33,143.76 -0.028,0.003 c 0.2,0.3 0.16,0.24 0.03,0 z"
   id="path137" />
					<path
   d="m 313.51,129.18 c -0.18,-0.17 -0.368,-0.3 -0.554,-0.376 0.1,0.11 0.27,0.24 0.55,0.38 z"
   id="path139" />
					<path
   d="m 313.22,128.41 c 0.133,0.042 0.231,0.059 0.328,0.08 -0.04,-0.29 -0.13,-0.45 -0.33,-0.08 z"
   id="path141" />
					<path
   d="m 312.38,128.78 c 0.177,-0.08 0.372,-0.051 0.572,0.021 -0.096,-0.094 -0.149,-0.181 -0.148,-0.242 -0.08,0.06 -0.21,0.13 -0.42,0.22 z"
   id="path143" />
					<path
   d="m 214.3,170.53 c 0.043,-0.072 0.069,-0.133 0.13,-0.224 -0.71,0.16 -0.58,0.26 -0.13,0.22 z"
   id="path145" />
					<path
   d="m 279.9,159.06 c 0.01,-0.021 0.004,-0.066 0.011,-0.091 -0.021,-0.014 -0.046,-0.031 -0.064,-0.043 l 0.05,0.13 z"
   id="path147" />
					<path
   d="m 279.16,160.64 c -0.166,-2.21 0.185,-2.042 0.684,-1.719 l -1.865,-4.66 1.18,6.38 z"
   id="path149" />
					<path
   d="m 236.38,181.7 c 0,0 0.329,0.248 0.676,0.483 0.345,0.236 0.71,0.459 0.71,0.459 -1.005,3.871 -2.381,3.745 -0.853,5.372 -0.23,-3.182 0.918,-4.162 2.071,-5.145 1.158,-1.011 2.321,-2.024 1.554,-4.817 0,0 0.271,0.157 0.542,0.313 0.279,0.15 0.559,0.301 0.559,0.301 -0.232,0.103 -0.164,0.448 -0.396,0.549 1.165,0.762 1.149,-0.439 1.014,-1.83 -0.116,-1.399 -0.356,-3.016 0.636,-3.22 0.761,0 1.573,0.413 1.438,1.275 0,0 0.192,-0.53 0.384,-1.059 0.174,-0.517 0.347,-1.033 0.347,-1.033 0.443,-0.165 0.844,0.701 0.383,0.88 0,0 0.119,-0.111 0.297,-0.277 0.088,-0.083 0.192,-0.179 0.302,-0.282 0.058,-0.066 0.119,-0.137 0.18,-0.208 0.245,-0.284 0.49,-0.569 0.49,-0.569 l 0.074,0.143 c -0.275,-0.843 -0.547,-2.22 -0.62,-2.81 0.723,0.491 0.127,0.587 0.556,1.125 l 0.051,-1.531 c 0.987,1.063 1.084,2.569 0.509,2.655 3.37,4.335 -0.099,-1.503 2.837,0.492 l -0.299,0.953 c 1.912,2.471 1.82,1.227 3.431,2.552 -0.33,-0.403 -1.234,-1.286 -2.07,-2.254 -0.835,-0.97 -1.604,-2.029 -1.55,-2.832 0.41,0.244 0.758,0.261 0.691,-0.92 0.9,1.709 1.093,1.083 1.564,0.724 l 1.125,2.297 c 0.214,-0.933 -0.413,-2.076 -0.595,-3.273 0.745,-0.092 1.741,1.625 2.61,3.057 1.155,-0.127 -2.067,-2.516 -1.098,-3.544 0.628,0.231 0.972,0.039 1.21,-0.452 0.25,-0.468 0.397,-1.227 0.613,-2.152 0.97,0.545 0.526,1.477 1.042,2.053 l -0.28,-2.099 c 0.153,-0.012 0.359,0.582 0.465,0.881 0.143,-0.92 -0.982,-2.36 -0.52,-3.313 -0.874,-2.689 3.076,3.162 2.767,-0.18 0.498,0.59 0.466,1.5 0.902,2.394 0.505,-2.428 0.527,-1.824 0.584,-4.861 l 1.497,1.234 c -1.337,-1.552 -1.288,-3.997 -1.152,-6.041 -0.562,-0.781 -1.054,-1.464 -1.33,-1.774 l 0.781,-1.757 c 0.295,0.338 0.464,1.213 0.624,2.294 0.013,-0.23 0.022,-0.457 0.02,-0.662 0.765,0.724 1.027,2.202 1.202,3.663 -0.323,-0.437 -0.653,-0.882 -0.977,-1.32 0.228,1.575 0.545,3.292 1.124,4.675 -0.024,-0.306 0.037,-0.6 0.153,-0.795 0.067,0.425 0.147,0.797 0.271,1.024 0.133,0.238 0.062,-0.34 0.034,-1.026 l 1.238,2.581 -0.319,-1.09 2.153,1.125 c 0.177,-3.09 -0.188,-7.429 1.297,-9.174 0.2,2.14 0.979,3.275 1.732,5.636 -1.325,-2.321 -1.048,1.532 -2.147,1.341 0.577,0.096 0.85,1.251 0.86,1.682 l 0.898,-2.823 c 0.604,1.936 0.834,1.322 1.529,1.971 -1.588,-3.694 0.409,-2.957 0.732,-4.339 0.457,1.267 0.714,2.626 -0.229,2.585 1.858,2.574 -0.244,-4.859 1.462,-2.713 -0.197,0.097 -0.372,-0.064 -0.244,0.612 0.117,-1.292 1.588,-0.766 1.665,0.44 l -0.197,0.091 c 1.503,0.016 4.184,-1.297 3.387,-4.607 0.146,0.415 1.042,3.972 1.164,4.654 l -0.939,-11.698 c 0.654,2.857 3.569,9.237 2.91,11.171 0.455,0.294 1.01,0.631 1.398,-0.571 -0.35,-0.327 -1.823,-3.857 -1.595,-4.208 1.817,2.842 1.106,1.479 2.979,3.799 -0.527,-0.491 -1.517,-4.982 -0.938,-5.014 0.121,0.681 1.401,4.301 1.346,4.819 l -0.011,-4.717 c -0.089,0.879 1.091,3.654 1.778,4.77 -0.406,-0.795 1.191,-0.293 1.416,-0.833 l -0.89,-0.811 c 1.731,0.162 -0.44,-6.498 1.119,-6.748 0.112,0.938 1.317,5.589 2.272,5.865 -0.348,-2.315 -1.932,-11.047 -1.262,-13.147 l 0.675,1.161 0.482,-1.747 c 0.566,3.468 1.179,10.964 1.061,14.001 0.91,0.792 0.653,1.418 1.488,1.009 0.707,1.063 0.122,1.937 -0.115,2.093 l 2.313,0.056 c -0.969,-2.513 0.675,-3.078 -0.154,-5.162 l -1.283,3.379 c -0.945,-2.513 -1.224,-7.645 0.315,-7.667 0.719,0.886 1.344,4.599 1.671,5.435 -0.063,-0.468 0.128,-1 0.377,-1.342 0.231,-0.335 0.523,-0.483 0.696,-0.195 l -0.086,1.546 c 1.086,0.701 0.026,-3.771 1.788,-1.657 0.371,0.056 2.073,2.955 1.601,1.434 -1.516,-2.727 -4.772,-11.645 -5.183,-13.938 0.185,0.156 2.658,2.198 3.51,3.51 1.301,2.1 1.084,5.687 2.2,7.49 -0.221,-0.7 -0.23,-1.653 -0.206,-1.969 0.532,0.482 0.603,2.198 1.207,1.644 -0.762,-2.621 1.526,-0.272 -0.405,-2.295 0.45,-0.975 0.924,0.279 1.707,-0.111 -0.824,-1.581 -1.159,-5.938 -0.683,-6.919 0.176,0.672 0.618,1.476 0.824,1.841 1.532,-0.258 2.691,0.657 4.047,0.223 0.325,0.587 1.214,1.129 1.291,2.342 0.048,-0.525 -0.052,-1.466 0.344,-1.67 1.504,1.979 -0.813,0.663 0.645,3.159 -0.426,-1.535 0.414,-2.447 0.728,-3.553 -0.91,-2.294 -1.529,-0.04 -1.815,1.118 -1.02,-3.214 -1.043,-6.962 -0.037,-8.858 0.912,-1.137 1.14,1.94 1.199,1.423 2.329,-0.062 0.15,-6.181 2.66,-4.374 1.326,1.854 1.243,4.095 1.842,5.536 -0.701,1.051 -1.822,-0.893 -2.434,-0.625 l 1.072,0.748 c -0.093,0.771 -0.558,1.472 -1.077,0.974 1.148,1.678 3.738,-0.698 5.886,0.535 0.094,-0.778 0.397,-1.643 -0.081,-2.405 l -0.442,0.441 c -0.964,-1.526 0.331,-2.593 -0.56,-3.177 0.372,-1.379 0.652,-3.456 1.922,-2.803 l 0.849,2.308 c -0.214,-0.685 -1.048,-1.217 -1.127,-0.417 0.127,-1.167 2.422,2.754 2.019,-0.472 l -1.156,-1.434 c 0.383,-1.391 0.587,-4.171 1.687,-3.67 -1.043,-2.231 -0.132,0.321 -1.518,-2.229 1.485,3.24 -2.34,0.523 -0.463,3.837 -1.534,-2.979 -1.502,-1.016 -3.122,-3.467 0.247,0.771 0.726,1.4 -0.139,1.236 0.03,0.237 0.032,0.55 0.029,0.734 -0.029,-0.014 -0.041,-0.025 -0.067,-0.043 0.023,0.028 0.044,0.052 0.067,0.08 0.001,0.126 0.005,0.151 0.024,0.027 0.276,0.288 0.538,0.656 0.72,1.073 0.134,1.895 -1.072,2.184 -1.207,3.224 -0.551,-0.241 -0.072,-0.945 -0.554,-1.705 l -0.202,1.556 c -0.559,-1.709 -2.021,-2.521 -1.261,-3.838 l -0.973,0.199 c -0.843,-0.805 -1.73,-0.964 -1.989,-0.102 -0.562,-0.242 -0.561,2.233 -0.575,0.773 l -1.166,1.498 -0.145,-0.426 c -1.544,0.203 -2.13,3.707 -4.761,1.202 -0.354,0.597 -0.688,1.295 -1.663,1.086 l -0.639,-1.425 c -0.461,0.729 -2.382,-0.837 -2.146,0.792 -2.003,-3.738 -3.364,0.174 -4.711,-0.154 l 0.621,1.932 c -0.801,0.149 -1.345,0.941 -2.017,2.028 l 0.655,1.671 c -0.294,1.654 -2.561,-0.48 -3.659,0.086 -0.147,-0.674 0.214,-0.606 0.568,-0.29 -2.759,-3.342 -2.054,3.808 -4.312,1.458 -0.119,0.729 -0.422,0.598 -0.791,0.245 0.03,-0.013 0.047,-0.054 0.052,-0.116 -0.038,-0.009 -0.091,0.003 -0.142,0.024 -0.243,-0.247 -0.507,-0.54 -0.76,-0.761 0.274,0.37 0.52,0.669 0.688,0.79 -0.246,0.117 -0.567,0.453 -0.813,1.003 l -0.756,-1.781 c -0.023,0.034 -0.05,0.039 -0.071,0.081 -0.594,-0.558 -0.022,0.964 0.624,2.279 -0.097,0.363 -0.157,0.782 -0.152,1.268 -1.256,-2.863 -0.691,1.318 -2.116,-1.708 0.231,1.623 -1.56,1.773 -0.749,5.086 -0.146,-0.419 -0.323,-0.584 -0.123,-0.676 -0.545,-0.233 -1.101,-0.468 -1.203,0.569 l -0.916,-2.28 0.031,3.439 c -1.022,-1.244 -1.521,-1.997 -1.51,-3.975 -0.521,3.198 -0.799,1.392 -1.119,4.501 l -0.415,-1.53 c -0.403,0.189 -0.443,2.423 -1.088,1.253 -1.86,-2.557 -4.812,1.072 -8.147,-0.757 1.947,4.263 -1.811,-1.594 -0.764,1.867 -0.494,-0.996 -1.041,-1.469 -0.945,-2.514 -0.915,1.454 -2.48,-1.005 -2.354,2.168 -0.511,-0.996 -0.262,-1.619 -0.606,-2.193 -0.024,0.26 -0.088,1.042 -0.438,0.466 -0.348,-0.575 -0.121,-0.937 -0.076,-1.459 -1.248,0.611 -0.248,3.897 0.739,6.923 -1.155,-1.18 -1.417,-0.855 -1.157,1.28 -0.583,-0.896 -1.344,-1.777 -0.675,-2.427 -0.495,0.022 -3.299,-0.4 -2.42,2 -0.375,-0.552 -0.694,0.058 -0.703,0.375 -1.057,0.234 -1.231,0.093 -2.121,0.724 l 0.431,0.271 c 0.792,3.014 -0.54,0.977 -1.183,1.654 l -0.102,-0.3 c -2.693,-1.27 -0.334,1.301 -3.156,-0.254 l 0.893,1.704 c 1.554,3.788 -2.549,-1.467 -2.903,0.468 l 0.838,0.805 c 0.094,1.533 -4.007,-4.268 -4.841,-4.426 -0.289,-0.257 -0.063,-0.613 -0.005,-0.939 -2.625,-1.405 0.939,2.341 0.102,3.416 -0.833,-1.098 -1.321,-3.194 -2.203,-3.032 -0.443,-0.4 -0.505,0.902 -0.7,2.049 -0.202,1.154 -0.538,2.169 -1.71,1.334 0.757,0.774 1.493,1.558 1.38,2.519 -0.299,0.367 -1.316,-0.173 -2.146,-0.375 -0.416,-0.105 -0.785,-0.132 -0.984,0.068 -0.074,0.123 0.021,0.474 0.34,1.246 -0.19,-0.217 -0.34,-0.445 -0.469,-0.671 0.143,0.908 -0.279,1.854 0.142,3.73 -1.367,-3.056 -1.397,-2.062 -1.643,-0.84 -0.22,1.195 -0.574,2.605 -1.02,-0.789 l -0.779,0.963 -0.013,-0.748 c -0.485,-0.139 -0.648,1.765 -0.969,3.784 -0.125,-0.414 0.021,-1.214 0.046,-1.622 -0.759,-0.942 -0.57,-0.753 -2.102,4.059 l 0.4,-2.705 c -0.239,0.875 -0.375,0.025 -0.504,-0.653 -0.15,-0.656 -0.254,-1.198 -1.176,0.854 0.115,-0.355 0.315,-0.966 0.501,-1.436 -0.467,1.034 -0.692,1.12 -0.748,0.794 -0.057,-0.318 0.043,-1.076 0.115,-1.602 0.126,-1.051 0.11,-1.235 -2.861,5.167 0,0 -0.121,0.204 -0.301,0.51 -0.142,0.214 -0.331,0.499 -0.519,0.783 -0.379,0.559 -0.765,1.076 -0.765,1.076 -0.135,1.048 -0.75,2.384 -1.449,3.707 -0.698,1.333 -1.487,2.62 -1.909,3.971 -0.215,0.034 0.151,-1.303 0.631,-2.572 0.479,-1.275 1.067,-2.51 1.263,-2.49 l -0.271,0.699 c 1.508,-3.005 1.716,-3.93 1.808,-4.589 0.091,-0.666 0.06,-1.106 1.104,-3.031 -0.221,-0.83 0.027,-2.47 0.349,-3.918 0.318,-1.472 0.709,-2.756 0.68,-3.508 0,0 -0.655,0.705 -1.311,1.409 -0.653,0.721 -1.306,1.442 -1.306,1.442 l 0.05,-0.83 c 0.596,-0.76 2.065,-2.116 2.008,-1.654 0.74,-0.823 0.405,-0.646 -0.198,-0.263 -0.603,0.39 -1.469,0.984 -1.762,1.227 0.498,-0.927 1.302,-1.437 1.975,-1.861 0.672,-0.413 1.22,-0.724 1.241,-0.841 l -0.228,-0.076 -0.31,0.318 c -1.128,0.696 -2.311,1.564 -2.233,0.927 0.513,-0.718 1.673,-1.335 1.768,-1.52 0.194,-0.132 0.283,-0.224 0.062,-0.21 l 0.174,-0.731 c 0,0 -0.542,0.369 -1.083,0.738 -0.54,0.39 -1.079,0.779 -1.079,0.779 -1.116,0.272 0.031,-0.857 -2.414,0.905 1.881,-1.395 2.157,-2.236 2.095,-2.957 -0.06,-0.706 -0.465,-1.363 0.138,-1.615 -0.43,-0.06 -0.755,-0.151 -0.999,-0.262 -0.248,-0.148 -0.421,-0.376 -0.531,-0.578 -0.224,-0.422 -0.215,-0.89 -0.167,-1.41 -0.452,0.297 -3.022,0.687 -2.799,-0.231 5.383,-0.151 2.119,-1.822 5.946,-2.853 -2.508,0.844 -0.785,-2.448 -4.342,-1.168 0.386,-0.772 1.997,-0.2 3.22,-0.854 -2.18,-1.6 1.105,-3.941 0.271,-6.041 -0.704,0.007 -1.756,0.433 -2.83,0.029 l 3.44,-1.338 c -0.372,-0.404 -4.079,-0.175 -1.69,-1.083 -0.584,0.14 -1.465,0.352 -1.708,0.076 0.789,-1.106 0.974,-2.187 0.904,-3.264 -0.03,-1.079 -0.305,-2.156 -0.491,-3.24 -0.37,-2.165 -0.365,-4.378 2.811,-6.567 -1.351,0.601 -1.494,0.216 -1.554,-0.228 -0.32,0.293 -1.738,0.017 -2.69,0.087 l 2.61,-1.836 c -2.653,-0.309 -0.221,-1.931 -2.754,-2.111 l 0.467,0.572 c -3.002,-0.76 -6.614,1.106 -10.448,1.027 3.412,0.839 -4.979,2.384 -0.09,3.765 -0.775,0.333 -1.24,-0.251 -2.125,-0.065 1.65,0.34 2.001,0.773 1.282,1.61 l -0.408,-0.084 c 0.449,2.298 -1.149,3.327 -2.171,5.979 l 1.889,-0.263 c -0.242,0.567 -0.833,0.708 -1.301,0.989 2.884,0.528 0.128,-1.576 3.307,-1.109 -1.911,0.438 -1.929,1.426 -1.956,2.381 -0.021,0.956 -0.109,1.883 -2.281,2.242 0.031,0.863 2.175,-0.359 2.204,0.5 l -1.17,0.288 1.539,0.138 c -0.217,0.575 -1.679,0.938 -2.68,1.015 0.11,-0.144 -0.305,-0.375 -0.4,-0.519 -1.348,0.811 0.606,2.046 0.167,2.323 l 0.677,-0.872 c 1.255,2.281 -0.117,5.266 2.43,7.351 l 0.881,-0.24 c 1.771,1.589 -0.923,1.46 0.021,3.288 l -0.219,-0.05 c 0.927,0.302 1.428,0.764 1.381,1.288 -1.093,-0.384 -1.933,1.081 -3.152,0.56 0.983,0.856 1.354,1.053 1.91,1.154 0.278,0.05 0.602,0.076 1.071,0.146 0.468,0.061 1.083,0.18 1.954,0.487 0,0 -0.357,0.133 -0.715,0.267 l -0.712,0.28 c 1.391,0.36 2.091,0.283 2.592,1.308 -0.673,-0.316 -1.209,-0.038 -1.79,0.276 -0.583,0.304 -1.21,0.654 -2.106,0.22 -1.417,1.771 -0.476,2.746 0.226,3.348 0.709,0.65 1.192,1.021 -0.966,2.744 4.019,-0.596 1.881,-3.315 2.797,-2.978 0.608,-0.523 1.372,-0.547 1.936,-0.386 0.564,0.168 0.931,0.526 0.776,0.973 -0.003,0.379 -1.203,1.302 -2.35,2.479 -1.148,1.162 -2.235,2.623 -2.058,3.78 -0.01,-0.244 -0.297,-0.07 -0.309,-0.315 -0.428,0.759 -0.048,0.99 0.254,1.263 0.304,0.281 0.53,0.599 -0.172,1.752 1.157,-0.588 1.163,-0.24 1.242,0.011 0.077,0.249 0.229,0.379 1.658,-0.791 0,0 -0.228,-0.327 -0.448,-0.68 -0.223,-0.36 -0.446,-0.72 -0.446,-0.72 0.442,0.279 1.525,-0.018 2.31,-0.08 0.807,-0.061 1.317,0.095 0.655,1.65 -0.577,0.436 -1.395,0.661 -1.869,0.689 -0.736,1.295 0.704,0.436 -0.047,1.792 -1.39,1.337 -1.646,0.871 -1.843,0.19 -0.203,-0.683 -0.332,-1.544 -1.486,-1.337 -0.558,0.819 0.021,1.063 0.388,1.241 0.354,0.192 0.45,0.445 -1.129,1.51 2.02,-1.288 1.982,-0.672 1.861,0.201 -0.127,0.851 -0.331,1.987 1.222,1.146 l -1.641,1.707 c 0.301,-0.028 1.151,-0.396 1.184,0.085 0,0 -0.557,0.404 -1.113,0.808 -0.561,0.385 -1.122,0.77 -1.122,0.77 1.012,-0.351 0.726,0.697 0.356,1.941 -0.373,1.23 -0.83,2.654 -0.241,2.689 -0.271,-1.353 0.179,-2.103 0.813,-2.848 0.635,-0.742 1.446,-1.521 1.937,-2.755 1.307,0.123 0.341,1.831 -0.745,3.987 -1.093,2.122 -2.311,4.67 -1.599,6.067 -0.312,-0.22 0.567,-3.305 1.41,-3.568 -0.194,1.148 -0.607,2.974 -1.305,4.701 0.384,1.031 0.741,0.275 1.147,-0.757 0.405,-1.039 0.864,-2.331 1.403,-2.595 -1.653,3.824 0.933,-0.073 1.646,-0.191 l -1.464,2.669 c -0.468,4.404 3.134,-5.034 2.386,-0.707 0,0 -0.532,0.761 -1.063,1.523 -0.537,0.736 -1.074,1.472 -1.074,1.472 0,0 0.181,0.055 0.363,0.11 0.18,0.046 0.359,0.093 0.359,0.093 l -1.653,3.032 c 0.723,-0.506 1.017,-0.534 1.111,-0.119 0.047,0.207 0.042,0.521 0.015,0.932 -0.018,0.214 -0.036,0.441 -0.056,0.687 0.067,0.057 0.162,0.072 0.257,0.109 0.679,-1.995 2.604,-5.654 3.543,-6.29 -0.088,1.391 -1.559,3.078 0.015,1.81 -1.035,2.031 -2.415,4.63 -1.899,2.247 -0.478,1.021 -1.136,2.096 -1.628,3.118 -0.056,1.572 1.882,-0.782 2.439,-1.138 -0.178,0.023 -0.38,0.024 -0.347,-0.317 0,0 0.938,-1.345 1.876,-2.689 0.917,-1.33 1.755,-2.622 1.755,-2.622 -0.067,0.879 -0.604,1.889 -1.165,2.896 0.535,-0.574 1.27,-2.058 1.937,-2.668 -0.91,2.387 -1.632,4.718 -2.973,6.397 0,0 0.753,-0.968 1.506,-1.936 l 1.442,-1.902 c -0.179,0.905 0.29,2.014 -0.226,3.007 0.432,0.277 1.517,-1.272 2.533,-2.753 1.031,-1.489 1.995,-2.907 2.594,-2.559 0.158,-0.46 0.391,-0.951 0.76,-1.45 0.656,-0.203 1.194,0.15 1.891,0.016 0.685,-0.126 1.505,-0.707 2.44,-2.607 0,0 0.187,0.734 0.401,1.454 0.213,0.721 0.454,1.429 0.454,1.429 0.747,-0.855 0.393,-1.718 0.208,-2.746 -0.194,-1.022 -0.219,-2.208 0.814,-3.529 1.455,-2.088 0.609,2.526 1.203,3.078 0.395,-1.149 0.876,-2.811 1.414,-3.945 0.548,-1.142 1.146,-1.75 2.07,-0.993 -0.41,0.96 -0.85,0.76 -1.27,1.31 z m 13.22,-10.33 c 0.005,0.459 0.249,1.754 -0.438,0.832 -0.86,-2.05 -0.18,-1.22 0.44,-0.83 z m 14.39,-11.31 c 0.044,0.655 -0.307,0.455 -0.838,-0.128 0.16,-0.22 0.41,-0.24 0.84,0.13 z m 45.72,-28.96 c 0,0.036 0.001,0.062 0.001,0.097 -0.74,-0.58 -0.47,-0.35 0,-0.1 z m 1.32,0.48 c 0.034,-0.291 -0.049,-0.545 -0.171,-0.791 0.062,0.491 -0.173,0.594 -0.49,0.543 0.22,0.47 0.46,0.76 0.66,0.25 z m -85.23,26.32 -0.461,0.428 c -0.55,0.09 -0.07,-0.15 0.46,-0.43 z"
   id="path151" />
					<path
   d="m 262.96,163.26 c -0.173,-0.284 -0.314,-0.614 -0.454,-0.95 0.02,0.34 0.15,0.69 0.45,0.95 z"
   id="path153" />
					<path
   d="m 226.02,189.72 c -0.013,-0.011 -0.031,0.007 -0.044,0.002 -0.058,0.173 -0.103,0.34 -0.141,0.501 l 0.18,-0.5 z"
   id="path155" />
					<path
   d="m 299.62,152.38 c -0.302,-0.191 -0.534,-0.485 -0.732,-0.804 0.13,0.44 0.36,0.79 0.73,0.8 z"
   id="path157" />
					<path
   d="m 315.92,126.75 -0.566,0.687 c 0.313,-0.19 0.547,0.181 0.8,0.427 -0.14,-0.43 -0.45,-1.02 -0.23,-1.12 z"
   id="path159" />
					<path
   d="m 325.05,136.66 c 0.039,-0.254 0.206,-0.08 0.243,-0.338 l -0.258,-0.859 c -0.41,0.17 -0.52,0.94 0.02,1.2 z"
   id="path161" />
					<path
   d="m 318.26,132.75 c 0.486,1.549 0.771,0.893 1.175,0.462 -0.027,0.014 -0.051,0.035 -0.085,0.025 -0.46,-2.24 -0.78,-1.36 -1.1,-0.49 z"
   id="path163" />
					<path
   d="m 319.54,133.12 c 0.129,-0.116 0.271,-0.195 0.437,-0.158 -0.19,-0.89 -0.24,-0.13 -0.44,0.16 z"
   id="path165" />
					<path
   d="m 312.11,130.15 c 0.348,0.334 -0.429,-2.036 -0.114,-1.439 -0.32,-2.06 -0.86,2.85 0.11,1.44 z"
   id="path167" />
					<polygon
   points="319.53,137.54 320.07,137.79 319.37,135.91 "
   id="polygon169" />
					<path
   d="m 315.9,137.47 0.917,0.312 c -0.104,-0.32 -0.06,-0.538 0.02,-0.717 -0.5,0.08 -1.12,-0.16 -0.94,0.41 z"
   id="path171" />
					<path
   d="m 316.83,137.06 c 0.256,-0.034 0.479,-0.143 0.526,-0.499 -0.13,0.06 -0.4,0.21 -0.53,0.5 z"
   id="path173" />
					<polygon
   points="318.27,138.35 319.19,138.67 318.85,138.34 "
   id="polygon175" />
					<path
   d="m 307.55,139.49 -0.667,0.792 c 0.118,0.681 0.47,1.017 0.699,0.666 0.06,-0.52 0.3,-0.86 -0.03,-1.46 z"
   id="path177" />
					<path
   d="m 311.66,144.01 c -0.343,-0.334 -0.487,-0.758 -0.804,-1.354 l 0.691,2.386 0.11,-1.04 z"
   id="path179" />
					<path
   d="m 309.42,145.27 c 0.119,0.683 -0.61,2.237 0.384,1.786 -0.11,-0.69 0.54,-1.47 -0.38,-1.79 z"
   id="path181" />
					<polygon
   points="294.97,142.42 296.14,146.36 296.33,146.26 "
   id="polygon183" />
					<path
   d="m 288.2,159.32 c 1.302,0.61 -0.538,-2.467 0.74,-1.595 -0.064,-0.99 -1.044,-0.71 -1.061,-1.578 -0.29,1.16 -0.78,0.71 0.32,3.18 z"
   id="path185" />
					<path
   d="m 287.88,156.14 c 0.047,-0.183 0.088,-0.401 0.114,-0.687 -0.09,0.3 -0.11,0.51 -0.11,0.69 z"
   id="path187" />
					<polygon
   points="225.32,122.21 225.84,122.44 226.68,121.79 "
   id="polygon189" />
					<path
   d="m 222.79,121.21 2.592,-0.156 -2.358,-0.386 c 0.12,0.15 0.36,0.44 -0.23,0.55 z"
   id="path191" />
					<path
   d="m 253.46,175.26 -0.247,-0.575 c -0.389,-0.561 -0.535,-0.545 -0.828,-0.517 l 1.08,1.1 z"
   id="path193" />
					<path
   d="m 244.26,178.56 0.248,-0.112 c 0,0 -0.347,-0.472 -0.693,-0.943 -0.337,-0.478 -0.675,-0.955 -0.675,-0.955 l 1.12,2 z"
   id="path195" />
					<path
   d="m 233.34,190.03 c 0.498,-0.221 1.059,-1.264 1.551,-1.485 -1.07,1.28 -1.71,-1.98 -1.55,1.49 z"
   id="path197" />
				</g>
			</g>
		</g>
	</g>
</g></g>
<metadata
   id="metadata209"><rdf:RDF><cc:Work><dc:format>image/svg+xml</dc:format><dc:type
         rdf:resource="http://purl.org/dc/dcmitype/StillImage" /><cc:license
         rdf:resource="http://creativecommons.org/publicdomain/zero/1.0/" /><dc:publisher><cc:Agent
           rdf:about="http://openclipart.org/"><dc:title>Openclipart</dc:title></cc:Agent></dc:publisher><dc:title>Vote yes icon</dc:title><dc:date>2012-11-06T16:25:01</dc:date><dc:description>Vote yes icon</dc:description><dc:source>https://openclipart.org/detail/173057/vote-yes-icon-by-jhnri4-173057</dc:source><dc:creator><cc:Agent><dc:title>jhnri4</dc:title></cc:Agent></dc:creator><dc:subject><rdf:Bag><rdf:li>ballot</rdf:li><rdf:li>check mark</rdf:li><rdf:li>icon</rdf:li><rdf:li>vote</rdf:li><rdf:li>yes</rdf:li></rdf:Bag></dc:subject></cc:Work><cc:License
       rdf:about="http://creativecommons.org/publicdomain/zero/1.0/"><cc:permits
         rdf:resource="http://creativecommons.org/ns#Reproduction" /><cc:permits
         rdf:resource="http://creativecommons.org/ns#Distribution" /><cc:permits
         rdf:resource="http://creativecommons.org/ns#DerivativeWorks" /></cc:License></rdf:RDF></metadata></svg>
