<?xml version="1.0" encoding="UTF-8"?>
<svg
     width="33px"
     height="33px"
     viewBox="0 0 33 33"
     version="1.1"
     xmlns="http://www.w3.org/2000/svg"
     xmlns:xlink="http://www.w3.org/1999/xlink">
    <g
       stroke="none"
       stroke-width="1"
       fill="none"
       fill-rule="evenodd">
        <g
           transform="translate(1.000000, 1.000000)">
            <path
                  d="M0,15.5 C0,6.93959659 6.93959659,0 15.5,0 C24.0604034,0 31,6.93959659 31,15.5 C31,24.0604034 24.0604034,31 15.5,31 C6.93959659,31 0,24.0604034 0,15.5 Z"
                  id="path7"
                  fill="#5865F2">
           </path>
            <path
                  d="M22.2047355,9.20197483 C20.954339,8.63471367 19.617582,8.22319545 18.2199902,7.98962207 C18.0483761,8.28996663 17.8477462,8.69478251 17.7095699,9.01515051 C16.2239161,8.79933749 14.7519621,8.79933749 13.2934508,9.01515051 C13.1553582,8.69478251 12.9502209,8.28996663 12.7769891,7.98962207 C11.3780357,8.22319545 10.0395772,8.6369757 8.78935136,9.20649889 C6.26754284,12.8993554 5.58414722,16.5033229 5.92584498,20.053922 C7.59842867,21.2663593 9.21928111,22.0004235 10.812822,22.4832361 C11.2061662,21.9581992 11.5571373,21.3998187 11.8595273,20.8102709 C11.2836777,20.5988994 10.7324184,20.3364227 10.2111922,20.0338988 C10.3496248,19.9337856 10.4845681,19.8314081 10.6153414,19.7246756 C13.7933197,21.1639827 17.2463727,21.1639827 20.3864014,19.7246756 C20.5184526,19.8314081 20.6537368,19.9337856 20.790298,20.0338988 C20.2677947,20.3386852 19.7148331,20.601161 19.139068,20.8125334 C19.4414589,21.3998187 19.790813,21.9581992 20.1857733,22.4832361 C21.7808448,22.0026859 23.4033144,21.2663593 25.0758982,20.053922 C25.4769009,15.9382387 24.3907163,12.3676992 22.2047355,9.20197483 Z M12.2924344,17.8715026 C11.3385565,17.8715026 10.5560372,17.0061588 10.5560372,15.9560822 C10.5560372,14.9038295 11.3216254,14.0384028 12.2924344,14.0384028 C13.2631598,14.0384028 14.0454236,14.9015688 14.0288316,15.9560822 C14.0303631,17.0061588 13.2631598,17.8715026 12.2924344,17.8715026 Z M18.7090539,17.8715026 C17.7551751,17.8715026 16.972913,17.0061588 16.972913,15.9560822 C16.972913,14.9038295 17.738584,14.0384028 18.7090539,14.0384028 C19.6798639,14.0384028 20.4622977,14.9015688 20.4454503,15.9560822 C20.4454503,17.0061588 19.6798639,17.8715026 18.7090539,17.8715026 Z"
                  id="path9"
                  fill="#FFFFFF">
           </path>
        </g>
    </g>
</svg>
