<?xml version="1.0" encoding="UTF-8" standalone="no"?>
<svg
   xmlns:dc="http://purl.org/dc/elements/1.1/"
   xmlns:cc="http://creativecommons.org/ns#"
   xmlns:rdf="http://www.w3.org/1999/02/22-rdf-syntax-ns#"
   xmlns:svg="http://www.w3.org/2000/svg"
   xmlns="http://www.w3.org/2000/svg"
   xmlns:xlink="http://www.w3.org/1999/xlink"
   xmlns:sodipodi="http://sodipodi.sourceforge.net/DTD/sodipodi-0.dtd"
   xmlns:inkscape="http://www.inkscape.org/namespaces/inkscape"
   id="svg2"
   viewBox="0 0 5.5042315 5.8342633"
   version="1.0"
   sodipodi:docname="donate.svg"
   width="50"
   height="50"
   inkscape:version="1.0.2 (e86c870879, 2021-01-15)">
  <sodipodi:namedview
     pagecolor="#ffffff"
     bordercolor="#666666"
     borderopacity="1"
     objecttolerance="10"
     gridtolerance="10"
     guidetolerance="10"
     inkscape:pageopacity="0"
     inkscape:pageshadow="2"
     inkscape:window-width="1920"
     inkscape:window-height="1004"
     id="namedview22"
     showgrid="false"
     fit-margin-top="0"
     fit-margin-left="0"
     fit-margin-right="0"
     fit-margin-bottom="0"
     inkscape:document-rotation="0"
     inkscape:zoom="7.2998303"
     inkscape:cx="60.176659"
     inkscape:cy="43.538224"
     inkscape:window-x="0"
     inkscape:window-y="0"
     inkscape:window-maximized="1"
     inkscape:current-layer="layer1" />
  <defs
     id="defs4">
    <linearGradient
       id="linearGradient2175">
      <stop
         id="stop2177"
         stop-color="#ffffe5"
         offset="0" />
      <stop
         id="stop2179"
         stop-color="#f00"
         offset="1" />
    </linearGradient>
    <filter
       id="filter3228">
      <feGaussianBlur
         id="feGaussianBlur3230"
         stdDeviation="5.9395913" />
    </filter>
    <filter
       id="filter3332">
      <feGaussianBlur
         id="feGaussianBlur3334"
         stdDeviation="2.0090668" />
    </filter>
    <filter
       id="filter3344">
      <feGaussianBlur
         id="feGaussianBlur3346"
         stdDeviation="2.0090668" />
    </filter>
    <radialGradient
       id="radialGradient3180"
       xlink:href="#linearGradient2175"
       gradientUnits="userSpaceOnUse"
       cy="276.12"
       cx="361.47"
       gradientTransform="matrix(-1.0937,0.82403,-0.53766,-0.71363,961.56,181.22)"
       r="188.41" />
    <radialGradient
       id="radialGradient3183"
       xlink:href="#linearGradient2175"
       gradientUnits="userSpaceOnUse"
       cy="240.2"
       cx="329.67999"
       gradientTransform="matrix(0.38097,0.42877,0.80053,-0.7113,-88.247,310.97)"
       r="188.41" />
  </defs>
  <g
     id="layer1"
     transform="matrix(0.15444132,0,0,0.15444132,-29.590792,-34.561593)">
    <g
       id="g3190"
       transform="matrix(0.0934914,0,0,0.0934914,176.507,207.05645)">
      <path
         id="path3154"
         filter="url(#filter3228)"
         d="m 260.05,212.02 c -54.33,0.43 -95.73,62.07 -95.73,126.28 1.1,135 166.04,156.87 188.42,227.47 22.37,-70.6 187.31,-92.47 188.41,-227.47 0,-64.21 -41.4,-125.85 -95.73,-126.28 -32.6,-0.25 -73.86,17.7 -92.68,59.35 -18.83,-41.65 -60.09,-59.6 -92.69,-59.35 z" />
      <path
         id="path2162"
         filter="url(#filter3332)"
         d="m 258.05,208.02 c -54.33,0.43 -95.73,62.07 -95.73,126.28 1.1,135 166.04,156.87 188.42,227.47 22.37,-70.6 187.31,-92.47 188.41,-227.47 0,-64.21 -41.4,-125.85 -95.73,-126.28 -32.6,-0.25 -73.86,17.7 -92.68,59.35 -18.83,-41.65 -60.09,-59.6 -92.69,-59.35 z"
         fill="url(#radialGradient3180)"
         style="fill:url(#radialGradient3180)" />
      <path
         id="path3232"
         opacity="0.48"
         d="m 443.42,208.02 c 54.33,0.43 95.73,62.07 95.73,126.28 -1.1,135 -166.04,156.87 -188.41,227.47 -22.38,-70.6 -187.32,-92.47 -188.42,-227.47 0,-64.21 41.4,-125.85 95.73,-126.28 32.6,-0.25 73.86,17.7 92.69,59.35 18.82,-41.65 60.08,-59.6 92.68,-59.35 z"
         filter="url(#filter3344)"
         stroke="#000000"
         fill="url(#radialGradient3183)"
         style="fill:url(#radialGradient3183)" />
    </g>
    <g
       id="g965"
       transform="matrix(0.13634527,0,0,0.12752561,161.50601,195.17409)">
      <path
         d="m 347.87952,315.74112 c 32.51165,0 58.86742,26.35609 58.86742,58.86742 0,32.51228 -26.35577,58.86773 -58.86742,58.86773 -32.51165,0 -58.86774,-26.35545 -58.86774,-58.86773 0,-32.51133 26.35609,-58.86742 58.86774,-58.86742"
         style="fill:#ee9711;fill-opacity:1;fill-rule:evenodd;stroke:none;stroke-width:0.0319486"
         id="path18" />
      <path
         d="m 347.87952,306.93509 c 32.51165,0 58.86742,26.35609 58.86742,58.86774 0,32.51165 -26.35577,58.86742 -58.86742,58.86742 -32.51165,0 -58.86774,-26.35577 -58.86774,-58.86742 0,-32.51165 26.35609,-58.86774 58.86774,-58.86774"
         style="fill:#fae53c;fill-opacity:1;fill-rule:evenodd;stroke:none;stroke-width:0.0319486"
         id="path20" />
      <path
         d="m 347.87952,309.58907 c 31.04616,0 56.21344,25.1676 56.21344,56.21376 0,31.04616 -25.16728,56.21376 -56.21344,56.21376 -31.04584,0 -56.21376,-25.1676 -56.21376,-56.21376 0,-31.04616 25.16792,-56.21376 56.21376,-56.21376"
         style="fill:#fbca07;fill-opacity:1;fill-rule:evenodd;stroke:none;stroke-width:0.0319486"
         id="path22" />
      <path
         d="m 392.6173,331.76787 -73.75488,82.18838 c 7.4728,4.51212 16.0817,7.33255 25.29603,7.93446 l 59.08883,-65.84501 c -1.57795,-9.01402 -5.30349,-17.28841 -10.62998,-24.27783 z m -16.444,-14.54625 -73.53699,81.94429 c 3.12714,4.23321 6.83415,8.01146 11.00346,11.21815 l 74.86893,-83.42894 c -3.62554,-3.79072 -7.77664,-7.07345 -12.3354,-9.7335 z m -22.88358,-7.37249 c 4.24598,0.40671 8.35394,1.2837 12.2715,2.58082 l -68.83606,76.70694 c -1.72108,-3.76643 -3.03864,-7.75555 -3.89711,-11.91271 l 60.46167,-67.37505 v 0"
         style="fill:#f9dc1b;fill-opacity:1;fill-rule:evenodd;stroke:none;stroke-width:0.0319486"
         id="path24" />
      <path
         d="m 388.03202,405.9547 c 10.69867,-10.69931 16.76701,-25.07591 16.06094,-40.15187 0,15.36573 -6.79773,29.27652 -16.867,39.3458 -10.0696,10.06991 -23.89061,16.47595 -39.34644,16.86796 15.09513,0.27093 29.45288,-5.36227 40.1525,-16.06189 z m -90.31613,-13.52038 c -4.22554,-7.94277 -6.6201,-17.00822 -6.6201,-26.63149 0,-15.68011 6.35588,-29.8762 16.63155,-40.15218 10.69962,-10.69931 24.93884,-16.73058 40.15218,-16.06126 -15.36574,0 -29.27684,6.79773 -39.34612,16.86733 -10.06959,10.06927 -16.29768,23.9807 -16.29768,39.34611 0,9.43126 2.34632,18.31492 6.48655,26.09731 4.29646,8.07631 10.52231,14.94113 17.74975,20.5312 -7.71594,-4.97601 -14.37117,-11.75521 -18.75613,-19.99702 v 0"
         style="fill:#fbf687;fill-opacity:1;fill-rule:evenodd;stroke:none;stroke-width:0.0319486"
         id="path26" />
      <path
         d="m 347.87952,316.71971 c 27.10784,0 49.08249,21.9756 49.08249,49.08312 0,27.10753 -21.97465,49.08281 -49.08249,49.08281 -27.10752,0 -49.08281,-21.97528 -49.08281,-49.08281 0,-27.10752 21.97529,-49.08312 49.08281,-49.08312"
         style="fill:#ee9711;fill-opacity:1;fill-rule:evenodd;stroke:none;stroke-width:0.0319486"
         id="path28" />
      <path
         d="m 389.31572,339.48636 -63.13289,70.3517 c 6.54246,3.23002 13.90663,5.04758 21.69669,5.04758 2.23321,0 4.43161,-0.1524 6.58559,-0.44153 l 42.47964,-47.33586 c 0.0109,-0.43418 0.0173,-0.86932 0.0173,-1.30542 0,-9.68333 -2.8051,-18.71172 -7.64629,-26.31647 z m -15.63889,-15.44433 -64.53033,71.90856 c 3.22969,4.1428 7.10891,7.7546 11.48556,10.6811 l 64.8971,-72.31687 c -3.36931,-4.02298 -7.37089,-7.49868 -11.85233,-10.27279 z m -23.00052,-7.24118 c 4.33416,0.24441 8.51848,1.05048 12.48076,2.34728 l -60.01406,66.87632 c -1.72714,-3.81531 -2.9773,-7.89133 -3.68209,-12.15201 l 51.21539,-57.07159 v 0"
         style="fill:#f7a10e;fill-opacity:1;fill-rule:evenodd;stroke:none;stroke-width:0.0319486"
         id="path30" />
      <path
         d="m 373.52603,323.94778 c 14.05871,8.63318 23.43598,24.14812 23.43598,41.85505 0,27.10753 -21.97465,49.08281 -49.08249,49.08281 -5.06547,0 -9.95202,-0.76837 -14.54976,-2.19296 -5.06004,-8.80059 -7.95396,-19.00437 -7.95396,-29.88419 0,-29.08834 20.6868,-53.34316 48.15023,-58.86071"
         style="fill:#f7a10e;fill-opacity:1;fill-rule:evenodd;stroke:none;stroke-width:0.0319486"
         id="path32" />
      <path
         d="m 334.29908,351.3061 14.26127,-15.89193 c -5.6463,4.39743 -10.48653,9.78014 -14.26127,15.89193 z m 55.0176,-11.82006 -59.42173,66.21562 c 0.99648,2.41341 2.14504,4.74822 3.43481,6.99102 4.59774,1.42459 9.48429,2.19296 14.54976,2.19296 2.23321,0 4.43161,-0.1524 6.58559,-0.44153 l 42.47964,-47.33586 c 0.0109,-0.43418 0.0173,-0.86932 0.0173,-1.30542 0,-9.68365 -2.80414,-18.71172 -7.64533,-26.31679 z m -15.63985,-15.44401 c 4.48144,2.77443 8.48302,6.24949 11.85233,10.27279 l -57.96934,64.59678 c -1.42332,-5.12457 -2.18402,-10.52486 -2.18402,-16.10311 0,-1.74887 0.0767,-3.48017 0.22333,-5.19134 l 48.0777,-53.57512 v 0"
         style="fill:#fab81a;fill-opacity:1;fill-rule:evenodd;stroke:none;stroke-width:0.0319486"
         id="path34" />
      <path
         d="m 347.87952,316.71971 c 13.28427,0 25.33405,5.28016 34.17107,13.85296 -8.34629,-6.56131 -18.87115,-10.47503 -30.31135,-10.47503 -27.1072,0 -49.08248,21.97528 -49.08248,49.08281 0,13.82357 5.71658,26.31008 14.91174,35.23016 -11.43029,-8.98621 -18.77179,-22.93949 -18.77179,-38.60778 0,-27.10752 21.97529,-49.08312 49.08281,-49.08312"
         style="fill:#b5721d;fill-opacity:1;fill-rule:evenodd;stroke:none;stroke-width:0.0319486"
         id="path36" />
      <path
         d="m 346.93128,403.95279 h 8.16386 v -8.75267 c 8.66832,-1.85143 13.12868,-8.07951 13.12868,-16.15902 0,-16.07468 -22.21841,-15.4012 -22.21841,-23.39668 0,-3.7872 2.18817,-5.38655 6.22808,-5.38655 3.53449,0 6.14342,1.43098 9.17375,4.20828 l 6.22776,-7.06961 c -3.2824,-3.45046 -7.15395,-6.14374 -12.53986,-6.90124 v -8.50028 h -8.16386 v 8.66865 c -7.91114,1.59903 -12.79258,7.322 -12.79258,15.56988 0,15.14881 22.21841,14.98075 22.21841,23.6494 0,3.8709 -2.10382,5.807 -6.8169,5.807 -4.03959,0 -7.74277,-1.68306 -12.03508,-4.88113 l -5.38623,8.33191 c 3.95589,3.61915 9.84659,5.80668 14.81238,6.39581 v 8.41625"
         style="fill:#b5721d;fill-opacity:1;fill-rule:evenodd;stroke:none;stroke-width:0.0319486"
         id="path38" />
      <path
         d="m 344.63896,401.78187 h 8.16386 v -8.75266 c 8.66864,-1.85207 13.129,-8.08015 13.129,-16.15934 0,-16.075 -22.21841,-15.40152 -22.21841,-23.39668 0,-3.78753 2.18848,-5.38656 6.22776,-5.38656 3.53512,0 6.14406,1.43099 9.17375,4.20797 l 6.22777,-7.0693 c -3.2821,-3.45078 -7.15332,-6.14373 -12.53987,-6.90124 v -8.50027 h -8.16386 v 8.66864 c -7.91082,1.59904 -12.79226,7.32201 -12.79226,15.56989 0,15.1488 22.21841,14.98043 22.21841,23.64907 0,3.87155 -2.10414,5.807 -6.81722,5.807 -4.03959,0 -7.74277,-1.68305 -12.03476,-4.8808 l -5.38623,8.3319 c 3.95525,3.61883 9.84659,5.80668 14.81206,6.39614 v 8.41624"
         style="fill:#fbca07;fill-opacity:1;fill-rule:evenodd;stroke:none;stroke-width:0.0319486"
         id="path40" />
      <path
         d="m 339.5965,381.4593 -6.90284,7.69261 c -1.02907,-0.65718 -1.99488,-1.38498 -2.86676,-2.18242 l 5.38623,-8.3319 c 1.5214,1.1329 2.96868,2.07635 4.38337,2.82171 z m 1.68018,-41.96847 c -4.48656,1.80957 -7.59645,5.23384 -8.83382,9.84404 z m 8.67503,-9.66704 h -5.31275 v 5.92041 z m -1.55877,18.3539 c 0.48082,-0.061 0.99743,-0.0911 1.54823,-0.0911 3.53512,0 6.14406,1.43099 9.17375,4.20797 l 6.22777,-7.0693 c -2.48945,-2.61723 -5.31787,-4.79837 -8.8891,-6.02968 z m 7.85906,14.72196 -7.553,8.41593 c -4.18943,-2.3789 -9.88269,-4.54917 -13.46223,-8.47759 l 8.47728,-9.44659 -7.2e-4,0.0818 c 0,4.3415 6.55108,6.12712 12.53859,9.42646 z m -11.61304,38.88222 h 8.16386 v -8.75266 c 8.66864,-1.85207 13.129,-8.08015 13.129,-16.15934 0,-4.64663 -1.85814,-7.89198 -4.4971,-10.35362 l -7.96993,8.88078 c 0.38499,0.70191 0.60032,1.46549 0.60032,2.31436 0,3.87155 -2.10414,5.807 -6.81722,5.807 -0.34792,0 -0.69328,-0.0125 -1.03737,-0.0377 l -7.61242,8.48303 c 2.04152,0.70223 4.11116,1.17283 6.04086,1.40191 v 8.41624 0"
         style="fill:#f9dc1b;fill-opacity:1;fill-rule:evenodd;stroke:none;stroke-width:0.0319486"
         id="path42" />
      <path
         d="m 362.14238,387.19825 c -2.41277,2.96931 -5.5792,5.02744 -9.33956,5.83096 4.45972,-0.54984 7.74277,-2.51501 10.00058,-5.29359 2.35877,-2.9035 3.55621,-6.64086 3.55621,-10.86575 0,-3.92107 -1.28721,-6.87792 -3.25014,-9.21625 -1.94504,-2.31596 -4.54758,-4.00988 -7.21306,-5.43224 -1.25367,-0.66837 -2.52235,-1.27731 -3.74183,-1.86261 -4.32554,-2.07571 -8.44117,-3.84598 -8.44117,-6.88558 -0.57284,4.26419 4.99134,6.1744 8.07376,7.65363 1.20862,0.57987 2.46516,1.18306 3.70764,1.84599 2.58306,1.37795 5.09902,3.01277 6.95971,5.22841 1.8428,2.19392 3.05015,4.9741 3.05015,8.66865 0,4.03033 -1.13163,7.58334 -3.36229,10.32838 z m -17.50342,-57.37446 7.69485,0.42843 0.46901,8.07184 0.31501,-8.73541 z m 8.16386,71.95808 -8.47887,0.23483 0.31501,-8.73542 0.46933,8.07184 z m -8.16386,-63.28944 c -3.36228,0.9984 -6.92999,3.00127 -9.07791,5.61563 -2.11788,2.57762 -3.28656,5.95875 -3.28656,9.95426 0,8.36353 7.07504,11.95936 13.16926,15.05615 4.81755,2.44855 9.04883,4.5987 9.04883,8.59292 0,2.06325 -0.57411,3.62203 -1.78944,4.67761 -1.19616,1.03802 -2.99264,1.55719 -5.45525,1.55719 -2.07698,0 -4.06611,-0.43259 -6.08655,-1.27476 -2.1134,-0.88146 -4.14981,-2.38721 -5.94821,-4.03384 2.13769,1.4952 4.34215,2.43896 6.27601,3.24567 1.91405,0.7984 3.79646,1.20798 5.75875,1.20798 2.25079,0 3.86324,-0.4492 4.89774,-1.34664 1.01341,-0.87987 1.49169,-2.22523 1.49169,-4.03321 0,-3.47186 -4.01053,-5.51083 -8.57728,-7.83158 -6.3121,-3.20766 -13.64082,-6.9316 -13.64082,-15.81749 0,-4.19742 1.23929,-7.76322 3.48369,-10.49515 2.63289,-3.20478 6.31243,-4.62969 9.73605,-5.07474 v 0"
         style="fill:#fbf687;fill-opacity:1;fill-rule:evenodd;stroke:none;stroke-width:0.0319486"
         id="path44" />
      <path
         d="m 300.86315,383.09922 c 4.56228,12.43061 13.74722,22.53503 25.97846,27.51775 -12.20185,-5.64949 -20.74877,-16.16253 -25.04204,-27.86119 -4.29359,-11.69866 -4.29838,-25.02894 1.07348,-37.44645 -5.76579,11.88684 -6.57185,25.35993 -2.0099,37.78989 z m 43.94546,-66.7466 c 7.8613,-0.43483 15.94017,0.99679 23.58198,4.53543 12.45138,5.76547 21.38711,16.03251 25.76856,27.97078 4.56227,12.43029 4.11595,25.95545 -2.0099,37.7899 5.65077,-12.20154 5.36739,-25.74779 1.0738,-37.44613 -4.29359,-11.69866 -13.05041,-21.75963 -25.25163,-27.40944 -7.48909,-3.46803 -15.40598,-4.87154 -23.1085,-4.44502 -7.99261,0.44185 -15.73346,2.86164 -22.82959,6.54533 6.78846,-4.2971 14.61813,-7.08974 22.77528,-7.54085 v 0"
         style="fill:#fbf687;fill-opacity:1;fill-rule:evenodd;stroke:none;stroke-width:0.0319486"
         id="path46" />
    </g>
  </g>
  <metadata
     id="metadata19">
    <rdf:RDF>
      <cc:Work>
        <dc:format>image/svg+xml</dc:format>
        <dc:type
           rdf:resource="http://purl.org/dc/dcmitype/StillImage" />
        <cc:license
           rdf:resource="http://creativecommons.org/publicdomain/zero/1.0/" />
        <dc:publisher>
          <cc:Agent
             rdf:about="http://openclipart.org/">
            <dc:title>Openclipart</dc:title>
          </cc:Agent>
        </dc:publisher>
        <dc:title></dc:title>
        <dc:date>2007-02-15T01:04:43</dc:date>
        <dc:description>clip art, clipart, heart, heart, how i did it, icon, icon, image, love, love, media, png, public domain, red, red, svg, valentine, valentine, </dc:description>
        <dc:source>http://openclipart.org/detail/3241/heart-by-sicabol</dc:source>
        <dc:creator>
          <cc:Agent>
            <dc:title>Sicabol</dc:title>
          </cc:Agent>
        </dc:creator>
        <dc:subject>
          <rdf:Bag>
            <rdf:li>clip art</rdf:li>
            <rdf:li>clipart</rdf:li>
            <rdf:li>heart</rdf:li>
            <rdf:li>how i did it</rdf:li>
            <rdf:li>icon</rdf:li>
            <rdf:li>image</rdf:li>
            <rdf:li>love</rdf:li>
            <rdf:li>media</rdf:li>
            <rdf:li>png</rdf:li>
            <rdf:li>public domain</rdf:li>
            <rdf:li>red</rdf:li>
            <rdf:li>svg</rdf:li>
            <rdf:li>valentine</rdf:li>
          </rdf:Bag>
        </dc:subject>
      </cc:Work>
      <cc:License
         rdf:about="http://creativecommons.org/publicdomain/zero/1.0/">
        <cc:permits
           rdf:resource="http://creativecommons.org/ns#Reproduction" />
        <cc:permits
           rdf:resource="http://creativecommons.org/ns#Distribution" />
        <cc:permits
           rdf:resource="http://creativecommons.org/ns#DerivativeWorks" />
      </cc:License>
    </rdf:RDF>
  </metadata>
</svg>
