<?xml version="1.0" encoding="UTF-8" standalone="no"?>
<svg
   version="1.1"
   id="svg2"
   xml:space="preserve"
   width="20.754793"
   height="20.754454"
   viewBox="0 0 20.754793 20.754454"
   sodipodi:docname="green.svg"
   inkscape:version="1.1 (c4e8f9ed74, 2021-05-24)"
   xmlns:inkscape="http://www.inkscape.org/namespaces/inkscape"
   xmlns:sodipodi="http://sodipodi.sourceforge.net/DTD/sodipodi-0.dtd"
   xmlns="http://www.w3.org/2000/svg"
   xmlns:svg="http://www.w3.org/2000/svg"
   xmlns:rdf="http://www.w3.org/1999/02/22-rdf-syntax-ns#"
   xmlns:cc="http://creativecommons.org/ns#"
   xmlns:dc="http://purl.org/dc/elements/1.1/"><metadata
     id="metadata8"><rdf:RDF><cc:Work
         rdf:about=""><dc:format>image/svg+xml</dc:format><dc:type
           rdf:resource="http://purl.org/dc/dcmitype/StillImage" /></cc:Work></rdf:RDF></metadata><defs
     id="defs6" /><sodipodi:namedview
     pagecolor="#ffffff"
     bordercolor="#666666"
     borderopacity="1"
     objecttolerance="10"
     gridtolerance="10"
     guidetolerance="10"
     inkscape:pageopacity="0"
     inkscape:pageshadow="2"
     inkscape:window-width="1920"
     inkscape:window-height="988"
     id="namedview4"
     showgrid="false"
     inkscape:zoom="8"
     inkscape:cx="2.3125"
     inkscape:cy="-7.1875"
     inkscape:window-x="0"
     inkscape:window-y="0"
     inkscape:window-maximized="1"
     inkscape:current-layer="g10"
     inkscape:document-rotation="0"
     inkscape:pagecheckerboard="0"
     fit-margin-top="0"
     fit-margin-left="0"
     fit-margin-right="0"
     fit-margin-bottom="0" /><g
     id="g10"
     inkscape:groupmode="layer"
     inkscape:label="ink_ext_XXXXXX"
     transform="matrix(1.3333333,0,0,-1.3333333,-4.8048531,647.6361)"><path
       d="m 11.386627,470.16125 c 4.286826,0 7.783108,3.49628 7.783108,7.78298 0,4.2867 -3.496282,7.78286 -7.783108,7.78286 -4.2867047,0 -7.7829871,-3.49616 -7.7829871,-7.78286 0,-4.2867 3.4962824,-7.78298 7.7829871,-7.78298"
       style="fill:#b1b1b0;fill-opacity:1;fill-rule:evenodd;stroke:none;stroke-width:0.0122698"
       id="path174" /><path
       d="m 11.386627,470.74431 c 3.965602,0 7.199924,3.23432 7.199924,7.19992 0,3.9656 -3.234322,7.19992 -7.199924,7.19992 -3.9657265,0 -7.2000485,-3.23432 -7.2000485,-7.19992 0,-3.9656 3.234322,-7.19992 7.2000485,-7.19992"
       style="fill:#579d33;fill-opacity:1;fill-rule:evenodd;stroke:none;stroke-width:0.0122698"
       id="path178" /><path
       d="m 11.386627,485.14415 c 2.668192,0 4.997492,-1.45164 6.241284,-3.60806 0.22699,-0.70012 0.350302,-1.44722 0.350302,-2.22304 0,-3.9764 -3.22377,-7.1998 -7.20017,-7.1998 -2.6681927,0 -4.9973707,1.45164 -6.2410387,3.60806 -0.2272368,0.70012 -0.3504258,1.44698 -0.3504258,2.22292 0,3.9764 3.2236472,7.19992 7.2000485,7.19992"
       style="fill:#64ac31;fill-opacity:1;fill-rule:evenodd;stroke:none;stroke-width:0.0122698"
       id="path180" /><path
       d="m 10.093633,474.95273 c 2.638992,0 4.791484,2.15248 4.791484,4.79148 0,2.63886 -2.152492,4.79148 -4.791484,4.79148 -2.6391133,0 -4.7914833,-2.15262 -4.7914833,-4.79148 0,-2.639 2.15237,-4.79148 4.7914833,-4.79148"
       style="fill:#80cb41;fill-opacity:1;fill-rule:evenodd;stroke:none;stroke-width:0.0122698"
       id="path182" /><path
       d="m 7.9227357,473.37777 c -1.7188776,0.72784 -2.9247546,2.43016 -2.9247546,4.41418 0,1.63644 0.8203596,3.08084 2.0722482,3.94512 -0.8023228,-1.51054 -1.1374114,-6.0046 0.8525064,-8.3593"
       style="fill:#80cb41;fill-opacity:1;fill-rule:evenodd;stroke:none;stroke-width:0.0122698"
       id="path184" /><path
       d="m 6.5995595,476.46571 c -0.7509124,0.80024 -1.2304166,1.85814 -1.290784,3.02696 0.3476036,0.91534 0.9678426,1.69656 1.7614538,2.2444 -0.5174178,-0.9741 -0.8403592,-3.1893 -0.4706698,-5.27136"
       style="fill:#99d658;fill-opacity:1;fill-rule:evenodd;stroke:none;stroke-width:0.0122698"
       id="path186" /></g></svg>
