<?xml version="1.0" encoding="UTF-8" standalone="no"?>
<svg
   width="128"
   height="128"
   viewBox="0 0 33.865273 33.816708"
   version="1.1"
   id="svg12"
   sodipodi:docname="rebornos_iso_welcome_logo.svg"
   inkscape:version="1.2 (dc2aedaf03, 2022-05-15)"
   inkscape:export-filename="rebornos_iso_welcome_logo.png"
   inkscape:export-xdpi="90"
   inkscape:export-ydpi="90"
   xmlns:inkscape="http://www.inkscape.org/namespaces/inkscape"
   xmlns:sodipodi="http://sodipodi.sourceforge.net/DTD/sodipodi-0.dtd"
   xmlns:xlink="http://www.w3.org/1999/xlink"
   xmlns="http://www.w3.org/2000/svg"
   xmlns:svg="http://www.w3.org/2000/svg"
   xmlns:rdf="http://www.w3.org/1999/02/22-rdf-syntax-ns#"
   xmlns:cc="http://creativecommons.org/ns#"
   xmlns:dc="http://purl.org/dc/elements/1.1/">
  <metadata
     id="metadata18">
    <rdf:RDF>
      <cc:Work
         rdf:about="">
        <dc:format>image/svg+xml</dc:format>
        <dc:type
           rdf:resource="http://purl.org/dc/dcmitype/StillImage" />
        <dc:title />
      </cc:Work>
    </rdf:RDF>
  </metadata>
  <defs
     id="defs16">
    <linearGradient
       id="linearGradient1107">
      <stop
         id="stop1103"
         stop-color="#f57900"
         style="stop-color:#f500e8;stop-opacity:1" />
      <stop
         id="stop1105"
         offset="1"
         stop-color="#edd400"
         style="stop-color:#1e00ed;stop-opacity:1" />
    </linearGradient>
    <linearGradient
       id="3">
      <stop
         id="I"
         stop-color="#fff" />
      <stop
         id="J"
         offset="1"
         stop-color="#fff"
         stop-opacity="0" />
    </linearGradient>
    <linearGradient
       id="4">
      <stop
         id="K"
         stop-color="#2e3436"
         stop-opacity="0.498" />
      <stop
         id="L"
         offset="0.5"
         stop-color="#2e3436"
         stop-opacity="0.439" />
      <stop
         id="M"
         offset="1"
         stop-color="#2e3436"
         stop-opacity="0" />
    </linearGradient>
    <linearGradient
       id="5">
      <stop
         id="N"
         stop-color="#f57900"
         style="stop-color:#1df500;stop-opacity:1" />
      <stop
         id="O"
         offset="1"
         stop-color="#edd400"
         style="stop-color:#00ed43;stop-opacity:1" />
    </linearGradient>
    <linearGradient
       id="6">
      <stop
         id="P"
         stop-color="#fff"
         stop-opacity="0.8" />
      <stop
         id="Q"
         offset="1"
         stop-color="#fff"
         stop-opacity="0" />
    </linearGradient>
    <radialGradient
       cx="17.241"
       cy="46.64"
       r="9.692"
       id="7"
       xlink:href="#4"
       gradientUnits="userSpaceOnUse"
       gradientTransform="matrix(0.65768796,0,0,0.13846062,11.07345,10.69961)" />
    <radialGradient
       cx="23.276"
       cy="33.988"
       r="20.325"
       id="8"
       xlink:href="#linearGradient1107"
       gradientUnits="userSpaceOnUse"
       gradientTransform="matrix(0.55233095,-0.83171891,0.79434266,0.5275099,-14.862769,15.30792)" />
    <linearGradient
       y1="5.611"
       x2="0"
       y2="43.36"
       id="9"
       xlink:href="#6"
       gradientUnits="userSpaceOnUse"
       gradientTransform="matrix(0.40565549,0,0,0.40565549,14.218307,-0.54930927)" />
    <linearGradient
       x1="-3.964"
       y1="-19.200001"
       x2="10.826"
       y2="32.32"
       id="A"
       xlink:href="#5"
       gradientUnits="userSpaceOnUse"
       gradientTransform="matrix(0.43908943,0,0,0.43908943,13.714956,-1.8421623)" />
    <filter
       id="filter3939"
       inkscape:collect="always"
       x="-0.012"
       y="-0.012"
       width="1.024"
       height="1.024">
      <feGaussianBlur
         id="feGaussianBlur3941"
         stdDeviation="2.32"
         inkscape:collect="always" />
    </filter>
    <linearGradient
       id="linearGradient3892"
       y2="274"
       gradientUnits="userSpaceOnUse"
       x2="521"
       gradientTransform="translate(31,538.36)"
       y1="274"
       x1="57"
       inkscape:collect="always">
      <stop
         id="stop3757"
         style="stop-color:#cccccc"
         offset="0" />
      <stop
         id="stop3767"
         style="stop-color:#4d4d4d"
         offset=".24353" />
      <stop
         id="stop3763"
         style="stop-color:#e6e6e6"
         offset=".51078" />
      <stop
         id="stop3765"
         style="stop-color:#f2f2f2"
         offset=".78233" />
      <stop
         id="stop3759"
         style="stop-color:#333333"
         offset="1" />
    </linearGradient>
    <linearGradient
       id="linearGradient3889"
       y2="241.02"
       gradientUnits="userSpaceOnUse"
       x2="572.13"
       gradientTransform="translate(-24,571.36)"
       y1="241.02"
       x1="116.04"
       inkscape:collect="always">
      <stop
         id="stop4157"
         style="stop-color:#dbdee3"
         offset="0" />
      <stop
         id="stop4163"
         style="stop-color:#6f6f91"
         offset=".50550" />
      <stop
         id="stop4159"
         style="stop-color:#dbdee3"
         offset="1" />
    </linearGradient>
    <linearGradient
       id="linearGradient3886"
       y2="286.76999"
       gradientUnits="userSpaceOnUse"
       x2="571.27002"
       gradientTransform="translate(-24,571.36)"
       y1="205.57001"
       x1="488.39999"
       inkscape:collect="always">
      <stop
         id="stop4231"
         style="stop-color:#b7b7c8"
         offset="0" />
      <stop
         id="stop4233"
         style="stop-color:#b7b7c8;stop-opacity:0"
         offset="1" />
    </linearGradient>
    <linearGradient
       id="linearGradient3881"
       y2="375.10999"
       gradientUnits="userSpaceOnUse"
       x2="470.67999"
       gradientTransform="translate(-24,571.36)"
       y1="375.10999"
       x1="378.81"
       inkscape:collect="always">
      <stop
         id="stop4193"
         style="stop-color:#ff80f8"
         offset="0" />
      <stop
         id="stop4195"
         style="stop-color:#ff80f8;stop-opacity:0"
         offset="1" />
    </linearGradient>
    <linearGradient
       id="linearGradient3877"
       y2="19.851"
       gradientUnits="userSpaceOnUse"
       x2="221"
       gradientTransform="translate(-24,571.36)"
       y1="160.59"
       x1="302.13"
       inkscape:collect="always">
      <stop
         id="stop4203"
         style="stop-color:#809fff"
         offset="0" />
      <stop
         id="stop4205"
         style="stop-color:#ff80f8;stop-opacity:0"
         offset="1" />
    </linearGradient>
  </defs>
  <sodipodi:namedview
     pagecolor="#ffffff"
     bordercolor="#666666"
     borderopacity="1"
     objecttolerance="10"
     gridtolerance="10"
     guidetolerance="10"
     inkscape:pageopacity="0"
     inkscape:pageshadow="2"
     inkscape:window-width="1920"
     inkscape:window-height="995"
     id="namedview14"
     showgrid="false"
     inkscape:zoom="3.9560599"
     inkscape:cx="55.231722"
     inkscape:cy="41.076223"
     inkscape:window-x="0"
     inkscape:window-y="0"
     inkscape:window-maximized="1"
     inkscape:current-layer="g837"
     inkscape:document-rotation="0"
     fit-margin-top="0"
     fit-margin-left="0"
     fit-margin-right="0"
     fit-margin-bottom="0"
     inkscape:showpageshadow="2"
     inkscape:pagecheckerboard="0"
     inkscape:deskcolor="#d1d1d1" />
  <g
     id="g837"
     transform="matrix(0.97608168,0,0,0.97608168,1.4524108,3.5532215)">
    <path
       d="M 24.16785,28.104475 H 7.6581964 L -0.59663089,13.806979 7.6581964,-0.48939283 H 24.16785 L 32.422679,13.807654 Z"
       fill="#1a1a1a"
       stroke="#cccccc"
       stroke-width="0.322544"
       id="path4"
       style="stroke-width:1.30972;stroke-dasharray:none" />
    <path
       d="m 8.689771,1.2024214 -3.2968286,5.7073068 3.2576932,1.880861 2.2105004,-3.826876 h 4.419496 V 1.2019914 Z m 7.968339,0 v 3.761722 h 4.419496 l 2.210502,3.828596 3.257694,-1.8808608 -3.2964,-5.7094572 z m 10.576646,6.9020094 -3.257694,1.880861 2.208994,3.8275212 -2.2105,3.829026 3.257694,1.880861 3.2964,-5.709457 z m -22.5303374,0 L 1.4099552,13.808727 4.706354,19.518185 7.964047,17.637324 5.7535464,13.808297 7.9625418,9.9807762 Z m 3.9479372,10.7299612 -3.2572632,1.878925 3.2946784,5.70623 h 6.591291 v -3.76172 h -4.418851 z m 14.6336022,0 -2.208996,3.827521 h -4.418637 v 3.76172 h 6.591723 l 3.294248,-5.70623 z"
       fill="#277748"
       id="path6"
       style="fill:#006680;fill-opacity:1;stroke-width:0.21503" />
    <path
       d="m 11.525577,6.1128296 -1.880861,3.2538228 2.812583,1.6239006 0.941828,-1.6305664 h 1.880861 v -3.247157 z m 5.132748,0 v 3.2475872 h 1.880861 l 0.941828,1.6305672 2.812584,-1.6239014 -1.880862,-3.2538228 z m -7.7006274,4.4468054 -1.8767756,3.250812 1.8808612,3.253824 2.8125828,-1.623902 -0.941828,-1.630566 0.939677,-1.626912 z m 14.0233484,0 -2.812584,1.623901 0.939678,1.626911 -0.941828,1.630567 2.812584,1.623902 1.880862,-3.253823 z m -10.520092,6.074147 -2.8125824,1.623901 1.8767754,3.251242 h 3.755701 v -3.248017 h -1.880861 z m 7.01748,0 -0.939678,1.626911 h -1.880431 v 3.247588 h 3.755701 l 1.876776,-3.251243 z"
       fill="#649f4b"
       id="path8"
       style="fill:#0086a8;fill-opacity:1;stroke-width:0.21503" />
    <path
       d="m 17.835826,17.042768 h -3.732048 l -1.866454,-3.23189 1.866454,-3.23189 h 3.732263 l 1.866453,3.23189 z"
       fill="#656565"
       id="path10"
       style="fill:#00acd6;fill-opacity:1;stroke-width:0.21503" />
  </g>
  <path
     d="m 28.78668,17.15738 a 6.3740986,1.3419154 0 1 1 -12.748197,0 6.3740986,1.3419154 0 1 1 12.748197,0 z"
     id="1"
     opacity="0.8"
     fill="url(#7)"
     style="fill:url(#7);stroke-width:0.657688" />
  <path
     d="m 23.954036,1.263403 c 4.804058,0 8.701314,3.1094181 8.701314,6.9386654 0,3.8292496 -3.899978,7.2416556 -9.606383,6.9731446 -0.370434,1.178532 -1.727965,2.597216 -3.988893,2.646907 0.58197,-0.745522 1.378909,-1.488173 1.396653,-3.282927 -3.059195,-1.075749 -5.203999,-3.502184 -5.203999,-6.3371246 0,-3.8292478 3.897251,-6.9386654 8.701308,-6.9386654 z"
     id="B"
     fill="#a64a00"
     style="fill:#ffffff;fill-opacity:1;stroke-width:0.405656" />
  <path
     d="m 23.954132,1.7195128 c -4.608198,1e-7 -8.244847,2.9602782 -8.244847,6.4814416 0,2.6061446 1.97603,4.8823946 4.896258,5.9092786 0.183388,0.06388 0.305892,0.237271 0.304841,0.431469 -0.01234,1.248303 -0.410656,2.053327 -0.834803,2.673241 1.436726,-0.368417 2.291011,-1.377831 2.541928,-2.176116 0.06139,-0.197441 0.248372,-0.328521 0.45492,-0.31891 5.51617,0.259555 9.126548,-2.998016 9.126548,-6.5189626 0,-3.521163 -3.636649,-6.4814416 -8.244845,-6.4814416 z"
     id="C"
     fill="url(#8)"
     style="fill:url(#8);stroke-width:0.405656" />
  <path
     d="m 23.954132,1.9305582 c -4.516499,1e-7 -8.0338,2.8934812 -8.033801,6.2703962 0,2.4990156 1.900398,4.7036056 4.755561,5.7076116 0.268334,0.09444 0.447239,0.348668 0.445538,0.633136 -0.0096,0.974214 -0.25181,1.711349 -0.558098,2.293359 1.039442,-0.437158 1.652852,-1.241592 1.847819,-1.861893 0.09185,-0.289356 0.367495,-0.480189 0.670659,-0.464301 5.427105,0.255374 8.906121,-2.931322 8.906121,-6.3079126 0,-3.3769147 -3.517301,-6.2703962 -8.033799,-6.2703962 z"
     id="D"
     opacity="0.8"
     fill="none"
     stroke="url(#9)"
     stroke-miterlimit="10"
     style="stroke:url(#9);stroke-width:0.405656" />
  <text
     xml:space="preserve"
     style="font-style:normal;font-variant:normal;font-weight:normal;font-stretch:normal;font-size:12.3234px;line-height:1.25;font-family:Righteous;-inkscape-font-specification:'Righteous, Normal';font-variant-ligatures:normal;font-variant-caps:normal;font-variant-numeric:normal;font-variant-east-asian:normal;letter-spacing:0px;word-spacing:0px;fill:#ffffff;fill-opacity:1;stroke:#ac29ff;stroke-width:0.308084;stroke-opacity:1"
     x="18.833275"
     y="13.058682"
     id="text864"><tspan
       sodipodi:role="line"
       id="tspan862"
       x="18.833275"
       y="13.058682"
       style="font-style:normal;font-variant:normal;font-weight:normal;font-stretch:normal;font-size:12.3234px;font-family:Righteous;-inkscape-font-specification:'Righteous, Normal';font-variant-ligatures:normal;font-variant-caps:normal;font-variant-numeric:normal;font-variant-east-asian:normal;fill:#ffffff;fill-opacity:1;stroke:#ac29ff;stroke-width:0.308084;stroke-opacity:1">W</tspan></text>
  <g
     id="g3943"
     transform="matrix(0.03362042,0,0,0.03362042,13.936263,-2.6301682)">
    <path
       id="path3055"
       d="m 324,582.36 c -128.13,0 -232,103.87 -232,232 0,128.13 103.87,232 232,232 128.13,0 232,-103.87 232,-232 0,-128.13 -103.87,-232 -232,-232 z m 2.0312,155.22 c 29.034,-0.038 55.664,19.97 67.688,45.844 19.486,38.376 -3.652,89.219 -43.594,103.12 -40.469,15.726 -90.534,-11.779 -100.84,-53.594 -12.144,-45.256 27.128,-95.759 73.938,-95.312 0.94118,-0.0434 1.8759,-0.0615 2.8125,-0.0625 z"
       style="fill:#999999;filter:url(#filter3939)"
       inkscape:connector-curvature="0" />
    <g
       id="g3901">
      <path
         id="path2985"
         style="fill:url(#linearGradient3892);stroke:#4d4d4d;stroke-width:0.3"
         inkscape:connector-curvature="0"
         d="m 320,580.36 c -128.13,0 -232,103.87 -232,232 0,128.13 103.87,232 232,232 128.13,0 232,-103.87 232,-232 0,-128.13 -103.87,-232 -232,-232 z m 2.0312,155.22 c 29.034,-0.038 55.664,19.97 67.688,45.844 19.486,38.376 -3.652,89.219 -43.594,103.12 -40.469,15.726 -90.534,-11.779 -100.84,-53.594 -12.144,-45.256 27.128,-95.759 73.938,-95.312 0.94118,-0.0434 1.8759,-0.0613 2.8125,-0.0625 z" />
      <path
         id="path3769"
         style="fill:url(#linearGradient3889)"
         inkscape:connector-curvature="0"
         d="m 321.12,584.36 c -1.3559,-0.002 -2.7061,0.008 -4.0625,0.0312 -76.855,0.14547 -151.43,42.892 -191.34,108.38 -39.203,62.988 -44.794,146.02 -13.531,213.72 29.627,65.696 91.724,115.67 162.59,129.44 69.325,14.2 144.64,-5.8451 197.12,-53.469 50.821,-45.073 79.901,-113.84 75.844,-182.03 -3.3626,-73.283 -44.762,-143.36 -107.19,-181.62 -35.684,-22.27 -77.404,-34.384 -119.44,-34.438 z m 0.90625,151.22 c 29.034,-0.038 55.664,19.97 67.688,45.844 19.486,38.376 -3.652,89.219 -43.594,103.12 -40.469,15.726 -90.534,-11.779 -100.84,-53.594 -12.144,-45.256 27.128,-95.759 73.938,-95.312 0.94118,-0.0434 1.8759,-0.0613 2.8125,-0.0625 z" />
      <path
         id="path4151"
         sodipodi:nodetypes="ccccc"
         style="fill:url(#linearGradient3886)"
         inkscape:connector-curvature="0"
         d="M 392.67,788.11 533.9,735.568 c 36.71,107.25 -8.3588,196.35 -60.15,245.11 l -100.8,-113.17 c 17.477,-20.091 28.301,-37.703 19.719,-79.391 z" />
      <path
         id="path3972"
         style="opacity:0.27317;fill:#cccccc;stroke:#999999"
         inkscape:connector-curvature="0"
         d="m 320.09,743.52 c -42.467,-0.57252 -78.09,45.135 -66.969,86.219 10.532,40.23 61.574,64.118 98.469,43.812 33.834,-17.295 48.83,-65.606 26.219,-97.219 -12.404,-19.386 -34.266,-33.454 -57.719,-32.812 z m -0.375,29.906 c 5.5499,-0.21566 11.059,1.1983 15.969,3.6875 23.009,9.1887 29.599,42.112 13.875,60.594 -15.789,19.881 -50.084,15.216 -63.062,-5.4375 -15.087,-23.692 5.6541,-58.762 33.219,-58.844 z" />
      <path
         id="path4153"
         d="m 256.67,770.37 -124.95,-86.1 c -60.159,86.58 -42.586,194.37 -2.88,252.37 l 124.97,-84.28 c -9.814,-22.741 -19.061,-45.307 2.8592,-81.987 z"
         sodipodi:nodetypes="ccccc"
         style="fill:#b7b7c8"
         inkscape:connector-curvature="0" />
      <path
         id="path4189"
         sodipodi:nodetypes="ccccc"
         style="fill:url(#linearGradient3881)"
         inkscape:connector-curvature="0"
         d="m 364.13,874.79 c -2.4787,2.0826 -5.5894,3.7334 -8.8192,5.8166 l 60.373,137.82 c 11.017,-4.8585 20.97,-10.249 30.491,-15.856 z" />
      <path
         id="path3970"
         style="opacity:0.39512;fill:#cccccc"
         inkscape:connector-curvature="0"
         d="m 322.03,735.58 c -0.93658,10e-4 -1.8713,0.0191 -2.8125,0.0625 -46.81,-0.44602 -86.082,50.056 -73.938,95.312 10.309,41.815 60.374,69.32 100.84,53.594 39.942,-13.906 63.08,-64.749 43.594,-103.12 -12.023,-25.874 -38.654,-45.882 -67.688,-45.844 z m -2.3125,37.844 c 5.5499,-0.21566 11.059,1.1983 15.969,3.6875 23.009,9.1887 29.599,42.112 13.875,60.594 -15.789,19.881 -50.084,15.216 -63.062,-5.4375 -15.087,-23.692 5.6541,-58.762 33.219,-58.844 z" />
      <path
         id="path4199"
         sodipodi:nodetypes="ccccc"
         style="fill:url(#linearGradient3877)"
         inkscape:connector-curvature="0"
         d="m 279.81,748.09 c 3.7576,-2.7411 7.7815,-5.2158 12.562,-6.9344 l -66.953,-136.46 c -10.4,5.3616 -20.36,11.122 -29.698,16.483 z" />
    </g>
  </g>
</svg>
