<?xml version="1.0" encoding="UTF-8" standalone="no"?>
<svg
   xmlns:dc="http://purl.org/dc/elements/1.1/"
   xmlns:cc="http://creativecommons.org/ns#"
   xmlns:rdf="http://www.w3.org/1999/02/22-rdf-syntax-ns#"
   xmlns:svg="http://www.w3.org/2000/svg"
   xmlns="http://www.w3.org/2000/svg"
   xmlns:sodipodi="http://sodipodi.sourceforge.net/DTD/sodipodi-0.dtd"
   xmlns:inkscape="http://www.inkscape.org/namespaces/inkscape"
   id="svg8431"
   sodipodi:docname="rebornos_wiki.svg"
   xml:space="preserve"
   inkscape:export-filename="/home/kdm/Ubuntu One/graphic/books2.png"
   viewBox="0 0 32.999999 33.000001"
   inkscape:export-xdpi="9.1745358"
   version="1.1"
   inkscape:export-ydpi="9.1745358"
   inkscape:version="1.0.2 (e86c870879, 2021-01-15)"
   width="33"
   height="33">
  <defs
   id="defs8435">
    <clipPath
   id="clipPath15781"
   clipPathUnits="userSpaceOnUse">
      <path
   id="path15783"
   inkscape:connector-curvature="0"
   d="M 0,0 H 842 V 596 H 0 Z" />
    </clipPath>
    <clipPath
   id="clipPath15785"
   clipPathUnits="userSpaceOnUse">
      <path
   id="path15787"
   inkscape:connector-curvature="0"
   d="M 59.629,235.03 H 150.02 V 202.374 H 59.629 Z" />
    </clipPath>
    <clipPath
   id="clipPath15789"
   clipPathUnits="userSpaceOnUse">
      <path
   id="path15791"
   inkscape:connector-curvature="0"
   d="M 0,0 H 842 V 596 H 0 Z" />
    </clipPath>
    <mask
   id="mask15793"
   height="1"
   width="1"
   y="0"
   x="0"
   maskUnits="userSpaceOnUse">
      <g
   id="g15795">
        <g
   id="g15797"
   clip-path="url(#clipPath15789)">
          <path
   id="path15799"
   style="fill:#000000;fill-opacity:0.5"
   inkscape:connector-curvature="0"
   d="M 0,0 H 842 V 596 H 0 Z" />
        </g>
      </g>
    </mask>
    <clipPath
   id="clipPath15801"
   clipPathUnits="userSpaceOnUse">
      <path
   id="path15803"
   inkscape:connector-curvature="0"
   d="M 0,0 H 842 V 596 H 0 Z" />
    </clipPath>
    <clipPath
   id="clipPath15805"
   clipPathUnits="userSpaceOnUse">
      <path
   id="path15807"
   inkscape:connector-curvature="0"
   d="M 0,0 H 842 V 596 H 0 Z" />
    </clipPath>
    <pattern
   id="pattern15809"
   height="596"
   width="842"
   patternUnits="userSpaceOnUse"
   y="0"
   x="0">
      <g
   id="g15813">
        <g
   id="g15815"
   clip-path="url(#clipPath15805)">
          <g
   id="g15817">
            <path
   id="path15819"
   style="fill:#ff3d37"
   d="m59.629 223.12 0.394 0.395 41.606-20.555 47.898 32.062 0.493-0.297-48.196-32.359-42.195 20.754z" />
          </g>
        </g>
      </g>
    </pattern>
    <clipPath
   id="clipPath15821"
   clipPathUnits="userSpaceOnUse">
      <path
   id="path15823"
   inkscape:connector-curvature="0"
   d="m 56.797,221.49 h 93.086 V 185.189 H 56.797 Z" />
    </clipPath>
    <clipPath
   id="clipPath15825"
   clipPathUnits="userSpaceOnUse">
      <path
   id="path15827"
   inkscape:connector-curvature="0"
   d="M 0,0 H 842 V 596 H 0 Z" />
    </clipPath>
    <mask
   id="mask15829"
   height="1"
   width="1"
   y="0"
   x="0"
   maskUnits="userSpaceOnUse">
      <g
   id="g15831">
        <g
   id="g15833"
   clip-path="url(#clipPath15825)">
          <path
   id="path15835"
   style="fill:#000000;fill-opacity:0.5"
   inkscape:connector-curvature="0"
   d="M 0,0 H 842 V 596 H 0 Z" />
        </g>
      </g>
    </mask>
    <clipPath
   id="clipPath15837"
   clipPathUnits="userSpaceOnUse">
      <path
   id="path15839"
   inkscape:connector-curvature="0"
   d="M 0,0 H 842 V 596 H 0 Z" />
    </clipPath>
    <clipPath
   id="clipPath15841"
   clipPathUnits="userSpaceOnUse">
      <path
   id="path15843"
   inkscape:connector-curvature="0"
   d="M 0,0 H 842 V 596 H 0 Z" />
    </clipPath>
    <pattern
   id="pattern15845"
   height="596"
   width="842"
   patternUnits="userSpaceOnUse"
   y="0"
   x="0">
      <g
   id="g15849">
        <g
   id="g15851"
   clip-path="url(#clipPath15841)">
          <g
   id="g15853">
            <path
   id="path15855"
   style="stroke:#ffffff;stroke-width:.5;fill:none"
   d="m149.73 220.11-47.672-34.621-42.035 23.371s-5.937 4.938-1.047 12.496" />
          </g>
        </g>
      </g>
    </pattern>
    <clipPath
   id="clipPath15857"
   clipPathUnits="userSpaceOnUse">
      <path
   id="path15859"
   inkscape:connector-curvature="0"
   d="m 98.977,244.09 h 35.754 V 228.512 H 98.977 Z" />
    </clipPath>
    <clipPath
   id="clipPath15861"
   clipPathUnits="userSpaceOnUse">
      <path
   id="path15863"
   inkscape:connector-curvature="0"
   d="M 0,0 H 842 V 596 H 0 Z" />
    </clipPath>
    <mask
   id="mask15865"
   height="1"
   width="1"
   y="0"
   x="0"
   maskUnits="userSpaceOnUse">
      <g
   id="g15867">
        <g
   id="g15869"
   clip-path="url(#clipPath15861)">
          <path
   id="path15871"
   style="fill:#000000;fill-opacity:0.5"
   inkscape:connector-curvature="0"
   d="M 0,0 H 842 V 596 H 0 Z" />
        </g>
      </g>
    </mask>
    <clipPath
   id="clipPath15873"
   clipPathUnits="userSpaceOnUse">
      <path
   id="path15875"
   inkscape:connector-curvature="0"
   d="M 0,0 H 842 V 596 H 0 Z" />
    </clipPath>
    <clipPath
   id="clipPath15877"
   clipPathUnits="userSpaceOnUse">
      <path
   id="path15879"
   inkscape:connector-curvature="0"
   d="M 0,0 H 842 V 596 H 0 Z" />
    </clipPath>
    <linearGradient
   id="linearGradient15881"
   gradientUnits="userSpaceOnUse"
   gradientTransform="matrix(35.742,0,0,35.742,98.989,236.32)">
      <stop
   id="stop15883"
   style="stop-color:#f2f2f2"
   offset="0" />
      <stop
   id="stop15885"
   style="stop-color:#a8a8a8"
   offset="1" />
    </linearGradient>
    <pattern
   id="pattern15887"
   height="596"
   width="842"
   patternUnits="userSpaceOnUse"
   y="0"
   x="0">
      <g
   id="g15891">
        <g
   id="g15893"
   clip-path="url(#clipPath15877)">
          <g
   id="g15895">
            <g
   id="g15897">
              <path
   id="path15899"
   style="fill:url(#linearGradient15881)"
   d="m98.977 239.79 6.23 4.305 29.523-10.832-7.714-4.746-28.039 11.273z" />
            </g>
          </g>
        </g>
      </g>
    </pattern>
    <clipPath
   id="clipPath16027"
   clipPathUnits="userSpaceOnUse">
      <path
   id="path16029"
   inkscape:connector-curvature="0"
   d="M 0,0 H 842 V 596 H 0 Z" />
    </clipPath>
    <clipPath
   id="clipPath16031"
   clipPathUnits="userSpaceOnUse">
      <path
   id="path16033"
   inkscape:connector-curvature="0"
   d="M 59.629,250.2 H 150.02 V 217.548 H 59.629 Z" />
    </clipPath>
    <clipPath
   id="clipPath16035"
   clipPathUnits="userSpaceOnUse">
      <path
   id="path16037"
   inkscape:connector-curvature="0"
   d="M 0,0 H 842 V 596 H 0 Z" />
    </clipPath>
    <mask
   id="mask16039"
   height="1"
   width="1"
   y="0"
   x="0"
   maskUnits="userSpaceOnUse">
      <g
   id="g16041">
        <g
   id="g16043"
   clip-path="url(#clipPath16035)">
          <path
   id="path16045"
   style="fill:#000000;fill-opacity:0.5"
   inkscape:connector-curvature="0"
   d="M 0,0 H 842 V 596 H 0 Z" />
        </g>
      </g>
    </mask>
    <clipPath
   id="clipPath16047"
   clipPathUnits="userSpaceOnUse">
      <path
   id="path16049"
   inkscape:connector-curvature="0"
   d="M 0,0 H 842 V 596 H 0 Z" />
    </clipPath>
    <clipPath
   id="clipPath16051"
   clipPathUnits="userSpaceOnUse">
      <path
   id="path16053"
   inkscape:connector-curvature="0"
   d="M 0,0 H 842 V 596 H 0 Z" />
    </clipPath>
    <pattern
   id="pattern16055"
   height="596"
   width="842"
   patternUnits="userSpaceOnUse"
   y="0"
   x="0">
      <g
   id="g16059">
        <g
   id="g16061"
   clip-path="url(#clipPath16051)">
          <g
   id="g16063">
            <path
   id="path16065"
   style="fill:#ff3d37"
   d="m59.629 238.3 0.394 0.394 41.606-20.558 47.898 32.062 0.493-0.293-48.196-32.359-42.195 20.754z" />
          </g>
        </g>
      </g>
    </pattern>
    <clipPath
   id="clipPath16067"
   clipPathUnits="userSpaceOnUse">
      <path
   id="path16069"
   inkscape:connector-curvature="0"
   d="m 56.797,236.66 h 93.086 V 200.359 H 56.797 Z" />
    </clipPath>
    <clipPath
   id="clipPath16071"
   clipPathUnits="userSpaceOnUse">
      <path
   id="path16073"
   inkscape:connector-curvature="0"
   d="M 0,0 H 842 V 596 H 0 Z" />
    </clipPath>
    <mask
   id="mask16075"
   height="1"
   width="1"
   y="0"
   x="0"
   maskUnits="userSpaceOnUse">
      <g
   id="g16077">
        <g
   id="g16079"
   clip-path="url(#clipPath16071)">
          <path
   id="path16081"
   style="fill:#000000;fill-opacity:0.5"
   inkscape:connector-curvature="0"
   d="M 0,0 H 842 V 596 H 0 Z" />
        </g>
      </g>
    </mask>
    <clipPath
   id="clipPath16083"
   clipPathUnits="userSpaceOnUse">
      <path
   id="path16085"
   inkscape:connector-curvature="0"
   d="M 0,0 H 842 V 596 H 0 Z" />
    </clipPath>
    <clipPath
   id="clipPath16087"
   clipPathUnits="userSpaceOnUse">
      <path
   id="path16089"
   inkscape:connector-curvature="0"
   d="M 0,0 H 842 V 596 H 0 Z" />
    </clipPath>
    <pattern
   id="pattern16091"
   height="596"
   width="842"
   patternUnits="userSpaceOnUse"
   y="0"
   x="0">
      <g
   id="g16095">
        <g
   id="g16097"
   clip-path="url(#clipPath16087)">
          <g
   id="g16099">
            <path
   id="path16101"
   style="stroke:#ffffff;stroke-width:.5;fill:none"
   d="m149.73 235.28-47.67-34.62-42.033 23.38s-5.937 4.938-1.047 12.492" />
          </g>
        </g>
      </g>
    </pattern>
    <clipPath
   id="clipPath16103"
   clipPathUnits="userSpaceOnUse">
      <path
   id="path16105"
   inkscape:connector-curvature="0"
   d="m 98.977,259.27 h 35.754 V 243.696 H 98.977 Z" />
    </clipPath>
    <clipPath
   id="clipPath16107"
   clipPathUnits="userSpaceOnUse">
      <path
   id="path16109"
   inkscape:connector-curvature="0"
   d="M 0,0 H 842 V 596 H 0 Z" />
    </clipPath>
    <mask
   id="mask16111"
   height="1"
   width="1"
   y="0"
   x="0"
   maskUnits="userSpaceOnUse">
      <g
   id="g16113">
        <g
   id="g16115"
   clip-path="url(#clipPath16107)">
          <path
   id="path16117"
   style="fill:#000000;fill-opacity:0.5"
   inkscape:connector-curvature="0"
   d="M 0,0 H 842 V 596 H 0 Z" />
        </g>
      </g>
    </mask>
    <clipPath
   id="clipPath16119"
   clipPathUnits="userSpaceOnUse">
      <path
   id="path16121"
   inkscape:connector-curvature="0"
   d="M 0,0 H 842 V 596 H 0 Z" />
    </clipPath>
    <clipPath
   id="clipPath16123"
   clipPathUnits="userSpaceOnUse">
      <path
   id="path16125"
   inkscape:connector-curvature="0"
   d="M 0,0 H 842 V 596 H 0 Z" />
    </clipPath>
    <linearGradient
   id="linearGradient16127"
   gradientUnits="userSpaceOnUse"
   gradientTransform="matrix(35.742,0,0,35.742,98.989,251.49)">
      <stop
   id="stop16129"
   style="stop-color:#f2f2f2"
   offset="0" />
      <stop
   id="stop16131"
   style="stop-color:#a8a8a8"
   offset="1" />
    </linearGradient>
    <pattern
   id="pattern16133"
   height="596"
   width="842"
   patternUnits="userSpaceOnUse"
   y="0"
   x="0">
      <g
   id="g16137">
        <g
   id="g16139"
   clip-path="url(#clipPath16123)">
          <g
   id="g16141">
            <g
   id="g16143">
              <path
   id="path16145"
   style="fill:url(#linearGradient16127)"
   d="m98.977 254.96 6.23 4.301 29.523-10.828-7.714-4.747-28.039 11.274z" />
            </g>
          </g>
        </g>
      </g>
    </pattern>
    <clipPath
   id="clipPath22877"
   clipPathUnits="userSpaceOnUse">
      <path
   id="path22879"
   inkscape:connector-curvature="0"
   d="M 0,0 H 842 V 596 H 0 Z" />
    </clipPath>
    <clipPath
   id="clipPath22881"
   clipPathUnits="userSpaceOnUse">
      <path
   id="path22883"
   inkscape:connector-curvature="0"
   d="m 60.582,265.04 h 90.395 V 232.384 H 60.582 Z" />
    </clipPath>
    <clipPath
   id="clipPath22885"
   clipPathUnits="userSpaceOnUse">
      <path
   id="path22887"
   inkscape:connector-curvature="0"
   d="M 0,0 H 842 V 596 H 0 Z" />
    </clipPath>
    <mask
   id="mask22889"
   height="1"
   width="1"
   y="0"
   x="0"
   maskUnits="userSpaceOnUse">
      <g
   id="g22891">
        <g
   id="g22893"
   clip-path="url(#clipPath22885)">
          <path
   id="path22895"
   style="fill:#000000;fill-opacity:0.5"
   inkscape:connector-curvature="0"
   d="M 0,0 H 842 V 596 H 0 Z" />
        </g>
      </g>
    </mask>
    <clipPath
   id="clipPath22897"
   clipPathUnits="userSpaceOnUse">
      <path
   id="path22899"
   inkscape:connector-curvature="0"
   d="M 0,0 H 842 V 596 H 0 Z" />
    </clipPath>
    <clipPath
   id="clipPath22901"
   clipPathUnits="userSpaceOnUse">
      <path
   id="path22903"
   inkscape:connector-curvature="0"
   d="M 0,0 H 842 V 596 H 0 Z" />
    </clipPath>
    <pattern
   id="pattern22905"
   height="596"
   width="842"
   patternUnits="userSpaceOnUse"
   y="0"
   x="0">
      <g
   id="g22909">
        <g
   id="g22911"
   clip-path="url(#clipPath22901)">
          <g
   id="g22913">
            <path
   id="path22915"
   style="fill:#ff3d37"
   d="m60.582 253.13 0.395 0.394 41.605-20.558 47.902 32.062 0.489-0.293-48.196-32.359-42.195 20.754z" />
          </g>
        </g>
      </g>
    </pattern>
    <clipPath
   id="clipPath22917"
   clipPathUnits="userSpaceOnUse">
      <path
   id="path22919"
   inkscape:connector-curvature="0"
   d="M 57.754,251.5 H 150.84 V 215.199 H 57.754 Z" />
    </clipPath>
    <clipPath
   id="clipPath22921"
   clipPathUnits="userSpaceOnUse">
      <path
   id="path22923"
   inkscape:connector-curvature="0"
   d="M 0,0 H 842 V 596 H 0 Z" />
    </clipPath>
    <mask
   id="mask22925"
   height="1"
   width="1"
   y="0"
   x="0"
   maskUnits="userSpaceOnUse">
      <g
   id="g22927">
        <g
   id="g22929"
   clip-path="url(#clipPath22921)">
          <path
   id="path22931"
   style="fill:#000000;fill-opacity:0.5"
   inkscape:connector-curvature="0"
   d="M 0,0 H 842 V 596 H 0 Z" />
        </g>
      </g>
    </mask>
    <clipPath
   id="clipPath22933"
   clipPathUnits="userSpaceOnUse">
      <path
   id="path22935"
   inkscape:connector-curvature="0"
   d="M 0,0 H 842 V 596 H 0 Z" />
    </clipPath>
    <clipPath
   id="clipPath22937"
   clipPathUnits="userSpaceOnUse">
      <path
   id="path22939"
   inkscape:connector-curvature="0"
   d="M 0,0 H 842 V 596 H 0 Z" />
    </clipPath>
    <pattern
   id="pattern22941"
   height="596"
   width="842"
   patternUnits="userSpaceOnUse"
   y="0"
   x="0">
      <g
   id="g22945">
        <g
   id="g22947"
   clip-path="url(#clipPath22937)">
          <g
   id="g22949">
            <path
   id="path22951"
   style="stroke:#ffffff;stroke-width:.5;fill:none"
   d="m150.69 250.11-47.67-34.62-42.036 23.38s-5.937 4.938-1.05 12.492" />
          </g>
        </g>
      </g>
    </pattern>
    <clipPath
   id="clipPath22953"
   clipPathUnits="userSpaceOnUse">
      <path
   id="path22955"
   inkscape:connector-curvature="0"
   d="m 99.934,274.1 h 35.75 v -15.578 h -35.75 z" />
    </clipPath>
    <clipPath
   id="clipPath22957"
   clipPathUnits="userSpaceOnUse">
      <path
   id="path22959"
   inkscape:connector-curvature="0"
   d="M 0,0 H 842 V 596 H 0 Z" />
    </clipPath>
    <mask
   id="mask22961"
   height="1"
   width="1"
   y="0"
   x="0"
   maskUnits="userSpaceOnUse">
      <g
   id="g22963">
        <g
   id="g22965"
   clip-path="url(#clipPath22957)">
          <path
   id="path22967"
   style="fill:#000000;fill-opacity:0.5"
   inkscape:connector-curvature="0"
   d="M 0,0 H 842 V 596 H 0 Z" />
        </g>
      </g>
    </mask>
    <clipPath
   id="clipPath22969"
   clipPathUnits="userSpaceOnUse">
      <path
   id="path22971"
   inkscape:connector-curvature="0"
   d="M 0,0 H 842 V 596 H 0 Z" />
    </clipPath>
    <clipPath
   id="clipPath22973"
   clipPathUnits="userSpaceOnUse">
      <path
   id="path22975"
   inkscape:connector-curvature="0"
   d="M 0,0 H 842 V 596 H 0 Z" />
    </clipPath>
    <linearGradient
   id="linearGradient22977"
   gradientUnits="userSpaceOnUse"
   gradientTransform="matrix(35.742,0,0,35.742,99.944,266.32)">
      <stop
   id="stop22979"
   style="stop-color:#f2f2f2"
   offset="0" />
      <stop
   id="stop22981"
   style="stop-color:#a8a8a8"
   offset="1" />
    </linearGradient>
    <pattern
   id="pattern22983"
   height="596"
   width="842"
   patternUnits="userSpaceOnUse"
   y="0"
   x="0">
      <g
   id="g22987">
        <g
   id="g22989"
   clip-path="url(#clipPath22973)">
          <g
   id="g22991">
            <g
   id="g22993">
              <path
   id="path22995"
   style="fill:url(#linearGradient22977)"
   d="m99.934 269.8 6.23 4.301 29.52-10.832-7.711-4.746-28.039 11.277z" />
            </g>
          </g>
        </g>
      </g>
    </pattern>
    <linearGradient
   id="linearGradient25604"
   gradientUnits="userSpaceOnUse"
   gradientTransform="matrix(42.423,-132.57,132.57,42.423,152.85,494.92)"
   inkscape:collect="always"><stop
     id="stop15739"
     style="stop-color:#ff1f37"
     offset="0" /><stop
     id="stop15741"
     style="stop-color:#a20022"
     offset="1" /></linearGradient>
    <linearGradient
   id="linearGradient25606"
   gradientUnits="userSpaceOnUse"
   gradientTransform="matrix(43.367,-246.86,246.86,43.367,148.11,550.83)"
   inkscape:collect="always"><stop
     id="stop15749"
     style="stop-color:#ff1f37"
     offset="0" /><stop
     id="stop15751"
     style="stop-color:#a20022"
     offset="1" /></linearGradient>
    <linearGradient
   id="linearGradient25608"
   gradientUnits="userSpaceOnUse"
   gradientTransform="matrix(30.492,-159.75,159.75,30.492,112.36,382.87)"
   inkscape:collect="always"><stop
     id="stop15759"
     style="stop-color:#f2f2f2"
     offset="0" /><stop
     id="stop15761"
     style="stop-color:#a8a8a8"
     offset="1" /></linearGradient>
    <linearGradient
   id="linearGradient25610"
   gradientUnits="userSpaceOnUse"
   gradientTransform="matrix(-43.669,-106.34,106.34,-43.669,247.56,382.1)"
   inkscape:collect="always"><stop
     id="stop15769"
     style="stop-color:#e0e0e0"
     offset="0" /><stop
     id="stop15771"
     style="stop-color:#a6a6a6"
     offset="1" /></linearGradient>
    <linearGradient
   id="linearGradient25612"
   gradientUnits="userSpaceOnUse"
   gradientTransform="matrix(42.423,-132.57,132.57,42.423,152.93,534.18)"
   inkscape:collect="always"><stop
     id="stop15985"
     style="stop-color:#ff1f37"
     offset="0" /><stop
     id="stop15987"
     style="stop-color:#a20022"
     offset="1" /></linearGradient>
    <linearGradient
   id="linearGradient25614"
   gradientUnits="userSpaceOnUse"
   gradientTransform="matrix(43.411,-247.11,247.11,43.411,148.03,590.21)"
   inkscape:collect="always"><stop
     id="stop15995"
     style="stop-color:#ff1f37"
     offset="0" /><stop
     id="stop15997"
     style="stop-color:#a20022"
     offset="1" /></linearGradient>
    <linearGradient
   id="linearGradient25616"
   gradientUnits="userSpaceOnUse"
   gradientTransform="matrix(30.472,-159.65,159.65,30.472,112.34,422.09)"
   inkscape:collect="always"><stop
     id="stop16005"
     style="stop-color:#f2f2f2"
     offset="0" /><stop
     id="stop16007"
     style="stop-color:#a8a8a8"
     offset="1" /></linearGradient>
    <linearGradient
   id="linearGradient25618"
   gradientUnits="userSpaceOnUse"
   gradientTransform="matrix(-43.683,-106.37,106.37,-43.683,247.57,421.4)"
   inkscape:collect="always"><stop
     id="stop16015"
     style="stop-color:#e0e0e0"
     offset="0" /><stop
     id="stop16017"
     style="stop-color:#a6a6a6"
     offset="1" /></linearGradient>
    <linearGradient
   id="linearGradient25620"
   gradientUnits="userSpaceOnUse"
   gradientTransform="matrix(16.394,-51.231,51.231,16.394,94.087,294.31)"
   inkscape:collect="always"><stop
     id="stop22829"
     style="stop-color:#ff1f37"
     offset="0" /><stop
     id="stop22831"
     style="stop-color:#a20022"
     offset="1" /></linearGradient>
    <linearGradient
   id="linearGradient25622"
   gradientUnits="userSpaceOnUse"
   gradientTransform="matrix(16.758,-95.395,95.395,16.758,92.257,315.91)"
   inkscape:collect="always"><stop
     id="stop22839"
     style="stop-color:#ff1f37"
     offset="0" /><stop
     id="stop22841"
     style="stop-color:#a20022"
     offset="1" /></linearGradient>
    <linearGradient
   id="linearGradient25624"
   gradientUnits="userSpaceOnUse"
   gradientTransform="matrix(11.783,-61.735,61.735,11.783,78.443,251.01)"
   inkscape:collect="always"><stop
     id="stop22849"
     style="stop-color:#f2f2f2"
     offset="0" /><stop
     id="stop22851"
     style="stop-color:#a8a8a8"
     offset="1" /></linearGradient>
    <linearGradient
   id="linearGradient25626"
   gradientUnits="userSpaceOnUse"
   gradientTransform="matrix(-16.875,-41.092,41.092,-16.875,130.69,250.71)"
   inkscape:collect="always"><stop
     id="stop22859"
     style="stop-color:#e0e0e0"
     offset="0" /><stop
     id="stop22861"
     style="stop-color:#a6a6a6"
     offset="1" /></linearGradient>
  </defs>
  <sodipodi:namedview
   id="namedview8433"
   fit-margin-left="0"
   inkscape:zoom="18.427633"
   borderopacity="1"
   inkscape:current-layer="g8439"
   inkscape:cx="16.908536"
   inkscape:cy="18.197147"
   inkscape:window-maximized="1"
   showgrid="false"
   fit-margin-right="0"
   bordercolor="#666666"
   inkscape:window-x="0"
   guidetolerance="10"
   objecttolerance="10"
   inkscape:window-y="0"
   fit-margin-bottom="0"
   inkscape:window-width="1920"
   inkscape:pageopacity="0"
   inkscape:pageshadow="2"
   pagecolor="#ffffff"
   gridtolerance="10"
   inkscape:window-height="1004"
   fit-margin-top="0"
   inkscape:document-rotation="0" />
  <g
   id="g8439"
   inkscape:label="books-2"
   inkscape:groupmode="layer"
   transform="matrix(1.25,0,0,-1.25,-391.12,494.77)">
    <g
   id="g25469"
   transform="matrix(0.10400786,0,0,0.10400786,307.30202,339.86496)">
      <path
   id="path15743"
   style="fill:url(#linearGradient25604)"
   d="m 62.713,385.6 113.42,-55.18 126.96,86.77 -122.32,42.8 z"
   inkscape:export-ydpi="3.9562266"
   inkscape:export-filename="/home/kdm/Ubuntu One/graphic/g22873.png"
   inkscape:connector-curvature="0"
   inkscape:export-xdpi="3.9562266" />
      <path
   id="path15753"
   style="fill:url(#linearGradient25606)"
   d="M 174.8,295.21 67.44,354.2 c 0,0 -9.4427,6.5186 -0.74786,27.443 0,0 -2.5179,2.0417 -4.3863,-1.6277 0,0 -9.1193,-17.082 3.4961,-29.366 l 110.27,-60.83 123.98,89.953 -3.9748,2.9216 -121.28,-87.477 z"
   inkscape:export-ydpi="3.9562266"
   inkscape:export-filename="/home/kdm/Ubuntu One/graphic/g22873.png"
   inkscape:connector-curvature="0"
   inkscape:export-xdpi="3.9562266" />
      <path
   id="path15763"
   style="fill:url(#linearGradient25608)"
   d="M 68.15,353.17 175.44,293.1 c -6.397,16.82 0.37522,34.562 0.37522,34.562 l -108.97,54.29 c -9.6938,-18.275 1.3042,-28.789 1.3042,-28.789"
   inkscape:export-ydpi="3.9562266"
   inkscape:export-filename="/home/kdm/Ubuntu One/graphic/g22873.png"
   inkscape:connector-curvature="0"
   inkscape:export-xdpi="3.9562266" />
      <path
   id="path15773"
   style="fill:url(#linearGradient25610)"
   d="m 300.9,411.94 0.11128,0.0802 0.43474,1.4673 C 301.25194,412.97253 301.0708,412.455 300.9,411.94 M 175.75,327.48 c 0,0 -7.5796,-16.849 -0.28207,-34.549 l 120.95,87.559 c 0,0 -1.0713,15.415 4.4898,31.446 l -125.16,-84.46 z"
   inkscape:export-ydpi="3.9562266"
   inkscape:export-filename="/home/kdm/Ubuntu One/graphic/g22873.png"
   inkscape:connector-curvature="0"
   inkscape:export-xdpi="3.9562266" />
      <g
   id="g15901"
   inkscape:export-ydpi="3.9562266"
   inkscape:export-xdpi="3.9562266"
   inkscape:export-filename="/home/kdm/Ubuntu One/graphic/g22873.png"
   transform="matrix(2.5878,0,0,2.5878,-88.156,-190.89)">
        <g
   id="g15903"
   clip-path="url(#clipPath15781)">
          <g
   id="g15907">
            <path
   id="path15909"
   d="m 151.17,235 c 0,0 0.894,-0.77 0.129,-1.41 l -48.53,-32.9 c 0,0 -1.036,-0.426 -1.793,0.124 l -41.36,20.618 c 0,0 -1.027,0.386 -1.535,-0.899 0,0 -1.133,-2.031 -1.043,-4.66 -0.09,-2.059 0.234,-4.957 3.246,-6.91 l 41.824,-23.168 47.911,34.762 c 0,0 0.515,-1.301 -0.383,-1.817 L 102.003,183.783 59.87,207.604 c 0,0 -2.101,1.035 -3.234,3.48 0,0 -3.356,6.707 1.578,11.629 0,0 0.59,0.543 2.168,-0.383 l 40.863,-20.144 c 0,0 1.145,-0.289 1.777,0.296 l 48.149,32.524 z"
   style="fill:#7f0012"
   inkscape:connector-curvature="0" />
          </g>
          <g
   id="g15911">
            <g
   id="g15913"
   clip-path="url(#clipPath15785)">
              <g
   id="g15915">
                <g
   id="g15919"
   mask="url(#mask15793)">
                  <g
   id="g15923">
                    <g
   id="g15925"
   clip-path="url(#clipPath15801)">
                      <g
   id="g15927">
                        <path
   id="path15929"
   d="M 0,0 H 842 V 596 H 0 Z"
   style="fill:url(#pattern15809)"
   inkscape:connector-curvature="0" />
                      </g>
                    </g>
                  </g>
                </g>
              </g>
            </g>
          </g>
          <g
   id="g15931">
            <g
   id="g15933"
   clip-path="url(#clipPath15821)">
              <g
   id="g15935">
                <g
   id="g15939"
   mask="url(#mask15829)">
                  <g
   id="g15943">
                    <g
   id="g15945"
   clip-path="url(#clipPath15837)">
                      <g
   id="g15947">
                        <path
   id="path15949"
   d="M 0,0 H 842 V 596 H 0 Z"
   style="fill:url(#pattern15845)"
   inkscape:connector-curvature="0" />
                      </g>
                    </g>
                  </g>
                </g>
              </g>
            </g>
          </g>
          <g
   id="g15951">
            <path
   id="path15953"
   d="m 98.773,239.64 6.442,4.464 29.871,-10.957 -0.02,0.133 -29.851,11.028 -6.57,-4.575 z"
   style="fill:#ffffff"
   inkscape:connector-curvature="0" />
          </g>
          <g
   id="g15955">
            <g
   id="g15957"
   clip-path="url(#clipPath15857)">
              <g
   id="g15959">
                <g
   id="g15963"
   mask="url(#mask15865)">
                  <g
   id="g15967">
                    <g
   id="g15969"
   clip-path="url(#clipPath15873)">
                      <g
   id="g15971">
                        <path
   id="path15973"
   d="M 0,0 H 842 V 596 H 0 Z"
   style="fill:url(#pattern15887)"
   inkscape:connector-curvature="0" />
                      </g>
                    </g>
                  </g>
                </g>
              </g>
            </g>
          </g>
          <g
   id="g15975">
            <path
   id="path15977"
   d="m 98.996,239.81 28.012,-11.304 7.672,4.758 0.406,-0.118 -8.059,-5.011 -28.254,11.504 z"
   style="fill:#7f0012"
   inkscape:connector-curvature="0" />
          </g>
        </g>
      </g>
      <path
   id="path15989"
   style="fill:url(#linearGradient25612)"
   d="m 62.713,424.86 113.42,-55.17 126.96,86.77 -122.32,42.79 z"
   inkscape:export-ydpi="3.9562266"
   inkscape:export-filename="/home/kdm/Ubuntu One/graphic/g22873.png"
   inkscape:connector-curvature="0"
   inkscape:export-xdpi="3.9562266" />
      <path
   id="path15999"
   style="fill:url(#linearGradient25614)"
   d="M 174.8,334.47 67.44,393.46 c 0,0 -9.4427,6.5315 -0.74786,27.456 0,0 -2.5179,2.0314 -4.3863,-1.638 0,0 -9.1193,-17.084 3.4961,-29.366 l 110.27,-60.83 123.98,89.953 -3.9748,2.9216 -121.28,-87.479 z"
   inkscape:export-ydpi="3.9562266"
   inkscape:export-filename="/home/kdm/Ubuntu One/graphic/g22873.png"
   inkscape:connector-curvature="0"
   inkscape:export-xdpi="3.9562266" />
      <path
   id="path16009"
   style="fill:url(#linearGradient25616)"
   d="m 68.15,392.44 107.29,-60.07 c -6.397,16.82 0.37522,34.552 0.37522,34.552 l -108.97,54.31 c -9.698,-18.29 1.3,-28.79 1.3,-28.79"
   inkscape:export-ydpi="3.9562266"
   inkscape:export-filename="/home/kdm/Ubuntu One/graphic/g22873.png"
   inkscape:connector-curvature="0"
   inkscape:export-xdpi="3.9562266" />
      <path
   id="path16019"
   style="fill:url(#linearGradient25618)"
   d="m 300.9,451.21 0.11128,0.0802 0.43474,1.4569 C 301.25194,452.22954 301.0708,451.7249 300.9,451.21 M 175.75,366.74 c 0,0 -7.5796,-16.849 -0.28207,-34.539 l 120.95,87.549 c 0,0 -1.0713,15.426 4.4898,31.457 l -125.16,-84.47 z"
   inkscape:export-ydpi="3.9562266"
   inkscape:export-filename="/home/kdm/Ubuntu One/graphic/g22873.png"
   inkscape:connector-curvature="0"
   inkscape:export-xdpi="3.9562266" />
      <g
   id="g16147"
   inkscape:export-ydpi="3.9562266"
   inkscape:export-xdpi="3.9562266"
   inkscape:export-filename="/home/kdm/Ubuntu One/graphic/g22873.png"
   transform="matrix(2.5878,0,0,2.5878,-88.156,-190.89)">
        <g
   id="g16149"
   clip-path="url(#clipPath16027)">
          <g
   id="g16151">
            <path
   id="path16153"
   d="m 151.17,250.18 c 0,0 0.894,-0.77 0.129,-1.406 l -48.53,-32.91 c 0,0 -1.036,-0.421 -1.793,0.129 l -41.36,20.617 c 0,0 -1.027,0.383 -1.535,-0.898 0,0 -1.133,-2.035 -1.043,-4.66 -0.09,-2.059 0.234,-4.961 3.246,-6.914 l 41.824,-23.164 47.911,34.761 c 0,0 0.515,-1.304 -0.383,-1.816 L 102.003,198.962 59.87,222.778 c 0,0 -2.101,1.036 -3.234,3.485 0,0 -3.356,6.707 1.578,11.629 0,0 0.59,0.543 2.168,-0.387 l 40.863,-20.141 c 0,0 1.145,-0.293 1.777,0.293 l 48.149,32.524 z"
   style="fill:#7f0012"
   inkscape:connector-curvature="0" />
          </g>
          <g
   id="g16155">
            <g
   id="g16157"
   clip-path="url(#clipPath16031)">
              <g
   id="g16159">
                <g
   id="g16163"
   mask="url(#mask16039)">
                  <g
   id="g16167">
                    <g
   id="g16169"
   clip-path="url(#clipPath16047)">
                      <g
   id="g16171">
                        <path
   id="path16173"
   d="M 0,0 H 842 V 596 H 0 Z"
   style="fill:url(#pattern16055)"
   inkscape:connector-curvature="0" />
                      </g>
                    </g>
                  </g>
                </g>
              </g>
            </g>
          </g>
          <g
   id="g16175">
            <g
   id="g16177"
   clip-path="url(#clipPath16067)">
              <g
   id="g16179">
                <g
   id="g16183"
   mask="url(#mask16075)">
                  <g
   id="g16187">
                    <g
   id="g16189"
   clip-path="url(#clipPath16083)">
                      <g
   id="g16191">
                        <path
   id="path16193"
   d="M 0,0 H 842 V 596 H 0 Z"
   style="fill:url(#pattern16091)"
   inkscape:connector-curvature="0" />
                      </g>
                    </g>
                  </g>
                </g>
              </g>
            </g>
          </g>
          <g
   id="g16195">
            <path
   id="path16197"
   d="m 98.773,254.81 6.442,4.465 29.871,-10.957 -0.02,0.133 -29.851,11.027 -6.57,-4.57 z"
   style="fill:#ffffff"
   inkscape:connector-curvature="0" />
          </g>
          <g
   id="g16199">
            <g
   id="g16201"
   clip-path="url(#clipPath16103)">
              <g
   id="g16203">
                <g
   id="g16207"
   mask="url(#mask16111)">
                  <g
   id="g16211">
                    <g
   id="g16213"
   clip-path="url(#clipPath16119)">
                      <g
   id="g16215">
                        <path
   id="path16217"
   d="M 0,0 H 842 V 596 H 0 Z"
   style="fill:url(#pattern16133)"
   inkscape:connector-curvature="0" />
                      </g>
                    </g>
                  </g>
                </g>
              </g>
            </g>
          </g>
          <g
   id="g16219">
            <path
   id="path16221"
   d="m 98.996,254.98 28.012,-11.304 7.672,4.761 0.406,-0.121 -8.059,-5.011 -28.254,11.503 z"
   style="fill:#7f0012"
   inkscape:connector-curvature="0" />
          </g>
        </g>
      </g>
      <g
   id="g22825"
   inkscape:export-ydpi="3.9562266"
   inkscape:export-xdpi="3.9562266"
   inkscape:export-filename="/home/kdm/Ubuntu One/graphic/g22873.png"
   transform="matrix(2.5878,0,0,2.5878,-88.156,-189.03)">
        <path
   id="path22833"
   style="fill:url(#linearGradient25620)"
   inkscape:connector-curvature="0"
   d="m 59.254,252.06 43.832,-21.324 49.059,33.531 -47.266,16.535 z" />
      </g>
      <g
   id="g22835"
   inkscape:export-ydpi="3.9562266"
   inkscape:export-xdpi="3.9562266"
   inkscape:export-filename="/home/kdm/Ubuntu One/graphic/g22873.png"
   transform="matrix(2.5878,0,0,2.5878,-88.156,-189.03)">
        <path
   id="path22843"
   style="fill:url(#linearGradient25622)"
   inkscape:connector-curvature="0"
   d="m 102.57,217.13 -41.488,22.792 c 0,0 -3.644,2.52 -0.285,10.61 0,0 -0.973,0.785 -1.699,-0.629 0,0 -3.52,-6.606 1.351,-11.352 l 42.613,-23.507 47.911,34.761 -1.535,1.129 z" />
      </g>
      <g
   id="g22845"
   inkscape:export-ydpi="3.9562266"
   inkscape:export-xdpi="3.9562266"
   inkscape:export-filename="/home/kdm/Ubuntu One/graphic/g22873.png"
   transform="matrix(2.5878,0,0,2.5878,-88.156,-189.03)">
        <path
   id="path22853"
   style="fill:url(#linearGradient25624)"
   inkscape:connector-curvature="0"
   d="m 61.359,239.53 41.461,-23.211 c -2.472,6.5 0.141,13.352 0.141,13.352 l -42.106,20.984 c -3.746,-7.066 0.504,-11.125 0.504,-11.125" />
      </g>
      <g
   id="g22855"
   inkscape:export-ydpi="3.9562266"
   inkscape:export-xdpi="3.9562266"
   inkscape:export-filename="/home/kdm/Ubuntu One/graphic/g22873.png"
   transform="matrix(2.5878,0,0,2.5878,-88.156,-189.03)">
        <path
   id="path22863"
   style="fill:url(#linearGradient25626)"
   inkscape:connector-curvature="0"
   d="m 151.3,262.24 0.047,0.031 0.168,0.563 c -0.074,-0.2 -0.145,-0.395 -0.215,-0.594 M 102.93,229.6 c 0,0 -2.93,-6.511 -0.11,-13.347 l 46.738,33.832 c 0,0 -0.414,5.961 1.735,12.156 l -48.37,-32.64 z" />
      </g>
      <g
   id="g22873"
   inkscape:export-ydpi="3.9562266"
   inkscape:export-xdpi="3.9562266"
   transform="matrix(2.5878,0,0,2.5878,-88.156,-190.89)">
        <g
   id="g22997">
          <g
   id="g22999"
   clip-path="url(#clipPath22877)">
            <g
   id="g23001">
              <path
   id="path23003"
   d="m 152.13,265.01 c 0,0 0.894,-0.77 0.129,-1.406 l -48.535,-32.911 c 0,0 -1.035,-0.425 -1.793,0.129 l -41.36,20.614 c 0,0 -1.023,0.386 -1.535,-0.895 0,0 -1.133,-2.035 -1.043,-4.66 -0.09,-2.059 0.235,-4.961 3.25,-6.914 l 41.82,-23.164 47.911,34.758 c 0,0 0.515,-1.301 -0.383,-1.813 l -47.633,-34.957 -42.129,23.816 c 0,0 -2.105,1.036 -3.238,3.485 0,0 -3.352,6.707 1.582,11.625 0,0 0.59,0.547 2.168,-0.383 l 40.863,-20.141 c 0,0 1.145,-0.293 1.777,0.293 z"
   style="fill:#7f0012"
   inkscape:connector-curvature="0" />
            </g>
            <g
   id="g23005">
              <g
   id="g23007"
   clip-path="url(#clipPath22881)">
                <g
   id="g23009">
                  <g
   id="g23013"
   mask="url(#mask22889)">
                    <g
   id="g23017">
                      <g
   id="g23019"
   clip-path="url(#clipPath22897)">
                        <g
   id="g23021">
                          <path
   id="path23023"
   d="M 0,0 H 842 V 596 H 0 Z"
   style="fill:url(#pattern22905)"
   inkscape:connector-curvature="0" />
                        </g>
                      </g>
                    </g>
                  </g>
                </g>
              </g>
            </g>
            <g
   id="g23025">
              <g
   id="g23027"
   clip-path="url(#clipPath22917)">
                <g
   id="g23029">
                  <g
   id="g23033"
   mask="url(#mask22925)">
                    <g
   id="g23037">
                      <g
   id="g23039"
   clip-path="url(#clipPath22933)">
                        <g
   id="g23041">
                          <path
   id="path23043"
   d="M 0,0 H 842 V 596 H 0 Z"
   style="fill:url(#pattern22941)"
   inkscape:connector-curvature="0" />
                        </g>
                      </g>
                    </g>
                  </g>
                </g>
              </g>
            </g>
            <g
   id="g23045">
              <path
   id="path23047"
   d="m 99.73,269.64 6.438,4.464 29.875,-10.957 -0.02,0.133 -29.855,11.027 -6.57,-4.57 z"
   style="fill:#ffffff"
   inkscape:connector-curvature="0" />
            </g>
            <g
   id="g23049">
              <g
   id="g23051"
   clip-path="url(#clipPath22953)">
                <g
   id="g23053">
                  <g
   id="g23057"
   mask="url(#mask22961)">
                    <g
   id="g23061">
                      <g
   id="g23063"
   clip-path="url(#clipPath22969)">
                        <g
   id="g23065">
                          <path
   id="path23067"
   d="M 0,0 H 842 V 596 H 0 Z"
   style="fill:url(#pattern22983)"
   inkscape:connector-curvature="0" />
                        </g>
                      </g>
                    </g>
                  </g>
                </g>
              </g>
            </g>
            <g
   id="g23069">
              <path
   id="path23071"
   d="m 99.949,269.82 28.016,-11.304 7.672,4.758 0.406,-0.118 -8.063,-5.011 -28.25,11.504 z"
   style="fill:#7f0012"
   inkscape:connector-curvature="0" />
            </g>
          </g>
        </g>
      </g>
    </g>
  </g>
<metadata
   id="metadata326"><rdf:RDF><cc:Work><dc:format>image/svg+xml</dc:format><dc:type
         rdf:resource="http://purl.org/dc/dcmitype/StillImage" /><cc:license
         rdf:resource="http://creativecommons.org/publicdomain/zero/1.0/" /><dc:publisher><cc:Agent
           rdf:about="http://openclipart.org/"><dc:title>Openclipart</dc:title></cc:Agent></dc:publisher><dc:title>3 red books</dc:title><dc:date>2012-04-20T12:33:08</dc:date><dc:description>3 red books </dc:description><dc:source>https://openclipart.org/detail/169613/3-red-books-by-dynnamitt</dc:source><dc:creator><cc:Agent><dc:title>dynnamitt</dc:title></cc:Agent></dc:creator><dc:subject><rdf:Bag><rdf:li>book</rdf:li><rdf:li>books</rdf:li><rdf:li>pile</rdf:li></rdf:Bag></dc:subject></cc:Work><cc:License
       rdf:about="http://creativecommons.org/publicdomain/zero/1.0/"><cc:permits
         rdf:resource="http://creativecommons.org/ns#Reproduction" /><cc:permits
         rdf:resource="http://creativecommons.org/ns#Distribution" /><cc:permits
         rdf:resource="http://creativecommons.org/ns#DerivativeWorks" /></cc:License></rdf:RDF></metadata></svg>
