<?xml version="1.0" encoding="UTF-8" standalone="no"?>
<svg
   version="1.1"
   id="svg2"
   xml:space="preserve"
   width="20.754793"
   height="20.754799"
   viewBox="0 0 20.754793 20.754799"
   sodipodi:docname="red.svg"
   inkscape:version="1.1 (c4e8f9ed74, 2021-05-24)"
   xmlns:inkscape="http://www.inkscape.org/namespaces/inkscape"
   xmlns:sodipodi="http://sodipodi.sourceforge.net/DTD/sodipodi-0.dtd"
   xmlns="http://www.w3.org/2000/svg"
   xmlns:svg="http://www.w3.org/2000/svg"
   xmlns:rdf="http://www.w3.org/1999/02/22-rdf-syntax-ns#"
   xmlns:cc="http://creativecommons.org/ns#"
   xmlns:dc="http://purl.org/dc/elements/1.1/"><metadata
     id="metadata8"><rdf:RDF><cc:Work
         rdf:about=""><dc:format>image/svg+xml</dc:format><dc:type
           rdf:resource="http://purl.org/dc/dcmitype/StillImage" /></cc:Work></rdf:RDF></metadata><defs
     id="defs6" /><sodipodi:namedview
     pagecolor="#ffffff"
     bordercolor="#666666"
     borderopacity="1"
     objecttolerance="10"
     gridtolerance="10"
     guidetolerance="10"
     inkscape:pageopacity="0"
     inkscape:pageshadow="2"
     inkscape:window-width="1920"
     inkscape:window-height="988"
     id="namedview4"
     showgrid="false"
     inkscape:zoom="13.314919"
     inkscape:cx="26.849581"
     inkscape:cy="22.042943"
     inkscape:window-x="0"
     inkscape:window-y="0"
     inkscape:window-maximized="1"
     inkscape:current-layer="g10"
     inkscape:document-rotation="0"
     inkscape:pagecheckerboard="0"
     fit-margin-top="0"
     fit-margin-left="0"
     fit-margin-right="0"
     fit-margin-bottom="0" /><g
     id="g10"
     inkscape:groupmode="layer"
     inkscape:label="ink_ext_XXXXXX"
     transform="matrix(1.3333333,0,0,-1.3333333,-4.8048531,668.79678)"><path
       d="m 11.386627,486.0315 c 4.286826,0 7.783108,3.49628 7.783108,7.7831 0,4.28672 -3.496282,7.783 -7.783108,7.783 -4.2867047,0 -7.7829871,-3.49627 -7.7829871,-7.783 0,-4.28682 3.4962824,-7.7831 7.7829871,-7.7831"
       style="fill:#b1b1b0;fill-opacity:1;fill-rule:evenodd;stroke:none;stroke-width:0.0122698"
       id="path158" /><path
       d="m 11.386627,486.61444 c 3.965602,0 7.199924,3.23444 7.199924,7.20016 0,3.96548 -3.234322,7.19983 -7.199924,7.19983 -3.9657265,0 -7.2000485,-3.23434 -7.2000485,-7.19983 0,-3.96572 3.234322,-7.20016 7.2000485,-7.20016"
       style="fill:#100f0d;fill-opacity:1;fill-rule:evenodd;stroke:none;stroke-width:0.0122698"
       id="path206" /><path
       d="m 11.386627,501.01443 c 2.668192,0 4.997492,-1.45152 6.241284,-3.60807 0.22699,-0.70011 0.350302,-1.44698 0.350302,-2.2228 0,-3.9764 -3.22377,-7.20006 -7.20017,-7.20006 -2.6681927,0 -4.9973707,1.45164 -6.2410387,3.60833 -0.2272368,0.69997 -0.3504258,1.44696 -0.3504258,2.22277 0,3.9764 3.2236472,7.19983 7.2000485,7.19983"
       style="fill:#1b1919;fill-opacity:1;fill-rule:evenodd;stroke:none;stroke-width:0.0122698"
       id="path210" /><path
       d="m 10.093633,490.8231 c 2.638992,0 4.791484,2.15251 4.791484,4.79151 0,2.6391 -2.152492,4.79148 -4.791484,4.79148 -2.6391133,0 -4.7914833,-2.15238 -4.7914833,-4.79148 0,-2.639 2.15237,-4.79151 4.7914833,-4.79151"
       style="fill:#464648;fill-opacity:1;fill-rule:evenodd;stroke:none;stroke-width:0.0122698"
       id="path212" /><path
       d="m 7.9227357,489.24829 c -1.7188776,0.72772 -2.9247546,2.43004 -2.9247546,4.41418 0,1.63642 0.8203596,3.0807 2.0722482,3.94512 -0.8023228,-1.51067 -1.1374114,-6.00473 0.8525064,-8.3593"
       style="fill:#464648;fill-opacity:1;fill-rule:evenodd;stroke:none;stroke-width:0.0122698"
       id="path214" /><path
       d="m 6.5995595,492.33634 c -0.7509124,0.8 -1.2304166,1.8579 -1.290784,3.02672 0.3476036,0.91544 0.9678426,1.69642 1.7614538,2.24452 -0.5174178,-0.97422 -0.8403592,-3.1893 -0.4706698,-5.27124"
       style="fill:#5e5f62;fill-opacity:1;fill-rule:evenodd;stroke:none;stroke-width:0.0122698"
       id="path216" /><g
       id="g1157"
       transform="matrix(0.1226981,0,0,0.1226981,0.8645275,441.49001)"><path
         d="m 85.7563,367.768 c 32.3207,0 58.6807,26.361 58.6807,58.682 0,32.319 -26.36,58.679 -58.6807,58.679 -32.3208,0 -58.6801,-26.36 -58.6801,-58.679 0,-32.321 26.3593,-58.682 58.6801,-58.682"
         style="fill:#de2f22;fill-opacity:1;fill-rule:evenodd;stroke:none;stroke-width:0.1"
         id="path72" /><path
         d="m 85.7555,485.129 c 21.7475,0 40.7295,-11.83 50.8675,-29.406 1.85,-5.706 2.854,-11.793 2.854,-18.116 0,-32.408 -26.271,-58.681 -58.6797,-58.681 -21.7477,0 -40.7309,11.831 -50.8676,29.408 -1.85,5.705 -2.8543,11.793 -2.8543,18.116 0,32.408 26.2723,58.679 58.6801,58.679"
         style="fill:#ef3520;fill-opacity:1;fill-rule:evenodd;stroke:none;stroke-width:0.1"
         id="path74" /><path
         d="m 75.218,402.069 c 21.5082,0 39.05,17.543 39.05,39.051 0,21.509 -17.5418,39.051 -39.05,39.051 -21.5086,0 -39.0508,-17.542 -39.0508,-39.051 0,-21.508 17.5422,-39.051 39.0508,-39.051"
         style="fill:#f14827;fill-opacity:1;fill-rule:evenodd;stroke:none;stroke-width:0.1"
         id="path76" /><path
         d="m 57.525,389.234 c -14.0094,5.931 -23.8379,19.805 -23.8379,35.976 0,13.337 6.6867,25.108 16.8895,32.153 -6.5383,-12.312 -9.27,-48.939 6.9484,-68.129"
         style="fill:#f14827;fill-opacity:1;fill-rule:evenodd;stroke:none;stroke-width:0.1"
         id="path78" /><path
         d="m 46.7406,414.402 c -6.1199,6.52 -10.0277,15.142 -10.5203,24.668 2.834,7.461 7.8883,13.826 14.3563,18.293 -4.2172,-7.94 -6.8477,-25.993 -3.836,-42.961"
         style="fill:#f35d3d;fill-opacity:1;fill-rule:evenodd;stroke:none;stroke-width:0.1"
         id="path80" /></g></g></svg>
