<?xml version="1.0" encoding="UTF-8" standalone="no"?>
<svg
   xmlns:dc="http://purl.org/dc/elements/1.1/"
   xmlns:cc="http://creativecommons.org/ns#"
   xmlns:rdf="http://www.w3.org/1999/02/22-rdf-syntax-ns#"
   xmlns:svg="http://www.w3.org/2000/svg"
   xmlns="http://www.w3.org/2000/svg"
   xmlns:xlink="http://www.w3.org/1999/xlink"
   xmlns:sodipodi="http://sodipodi.sourceforge.net/DTD/sodipodi-0.dtd"
   xmlns:inkscape="http://www.inkscape.org/namespaces/inkscape"
   id="svg3263"
   viewBox="0 0 49.999999 49.999998"
   version="1.1"
   sodipodi:docname="website.svg"
   width="50"
   height="50"
   inkscape:version="1.0.2 (e86c870879, 2021-01-15)">
  <sodipodi:namedview
     pagecolor="#ffffff"
     bordercolor="#666666"
     borderopacity="1"
     objecttolerance="10"
     gridtolerance="10"
     guidetolerance="10"
     inkscape:pageopacity="0"
     inkscape:pageshadow="2"
     inkscape:window-width="1920"
     inkscape:window-height="1004"
     id="namedview115"
     showgrid="false"
     inkscape:zoom="9.6384944"
     inkscape:cx="27.740171"
     inkscape:cy="19.354855"
     inkscape:window-x="0"
     inkscape:window-y="0"
     inkscape:window-maximized="1"
     inkscape:current-layer="svg3263" />
  <title
     id="title3639">World Wide Web</title>
  <defs
     id="defs3265">
    <linearGradient
       id="linearGradient6724"
       y2="-436.82999"
       xlink:href="#linearGradient6538"
       gradientUnits="userSpaceOnUse"
       x2="288.89999"
       y1="-441.23001"
       x1="284.79999" />
    <linearGradient
       id="linearGradient6722"
       y2="-436.70999"
       gradientUnits="userSpaceOnUse"
       y1="-439.48001"
       x2="289.76999"
       x1="286.67001"
       gradientTransform="matrix(3.8672828,0,0,3.8672828,-1093.9124,1752.1186)">
      <stop
         id="stop6551"
         stop-color="#fff"
         offset="0" />
      <stop
         id="stop6553"
         stop-color="#fff"
         stop-opacity="0"
         offset="1" />
    </linearGradient>
    <linearGradient
       id="linearGradient6720"
       y2="-431.92001"
       gradientUnits="userSpaceOnUse"
       y1="-437.10999"
       x2="279.98001"
       x1="275.94">
      <stop
         id="stop6530"
         stop-color="#fff"
         offset="0" />
      <stop
         id="stop6532"
         stop-color="#fff"
         stop-opacity="0"
         offset="1" />
    </linearGradient>
    <linearGradient
       id="linearGradient6538">
      <stop
         id="stop6540"
         stop-color="#fff"
         offset="0" />
      <stop
         id="stop6542"
         stop-color="#fff"
         stop-opacity="0"
         offset="1" />
    </linearGradient>
    <linearGradient
       id="linearGradient6718"
       y2="-436.44"
       xlink:href="#linearGradient6538"
       gradientUnits="userSpaceOnUse"
       x2="289.39001"
       y1="-439.94"
       x1="285.94" />
    <linearGradient
       id="linearGradient6716"
       y2="-436.14001"
       gradientUnits="userSpaceOnUse"
       y1="-441.29001"
       x2="289.85001"
       x1="286.51001">
      <stop
         id="stop6515"
         stop-color="#fff"
         offset="0" />
      <stop
         id="stop6517"
         stop-color="#fff"
         stop-opacity="0"
         offset="1" />
    </linearGradient>
    <linearGradient
       id="linearGradient6714"
       y2="-436.32001"
       gradientUnits="userSpaceOnUse"
       y1="-439.75"
       x2="289.67999"
       x1="287.51999">
      <stop
         id="stop6499"
         stop-color="#fff"
         offset="0" />
      <stop
         id="stop6501"
         stop-color="#fff"
         stop-opacity="0"
         offset="1" />
    </linearGradient>
    <linearGradient
       id="linearGradient6712"
       y2="-431.97"
       gradientUnits="userSpaceOnUse"
       y1="-441.04999"
       x2="285.03"
       x1="271.01999"
       gradientTransform="matrix(4.2701265,0,0,4.2701265,-1135.889,1904.5151)">
      <stop
         id="stop6472"
         stop-color="#fff"
         offset="0" />
      <stop
         id="stop6474"
         stop-color="#fff"
         stop-opacity="0"
         offset="1" />
    </linearGradient>
    <linearGradient
       id="linearGradient6019"
       y2="21.336"
       xlink:href="#linearGradient6538"
       gradientUnits="userSpaceOnUse"
       x2="-21.962"
       y1="15.649"
       x1="-21.659" />
    <linearGradient
       id="linearGradient6015"
       y2="22.662001"
       xlink:href="#linearGradient6538"
       gradientUnits="userSpaceOnUse"
       x2="-22.114"
       y1="28.337999"
       x1="-22.823" />
    <linearGradient
       id="linearGradient6011"
       y2="22.662001"
       xlink:href="#linearGradient6538"
       gradientUnits="userSpaceOnUse"
       x2="-22.114"
       y1="30.056999"
       x1="-25.176001" />
    <linearGradient
       id="linearGradient6007"
       y2="21.042"
       xlink:href="#linearGradient6538"
       gradientUnits="userSpaceOnUse"
       x2="-22.252001"
       y1="30.056999"
       x1="-25.176001" />
    <radialGradient
       id="radialGradient5989"
       cx="12.071"
       xlink:href="#linearGradient6538"
       gradientUnits="userSpaceOnUse"
       cy="12.493"
       r="6.7175002" />
    <radialGradient
       id="radialGradient4132"
       gradientUnits="userSpaceOnUse"
       cy="12.142"
       cx="15.601"
       gradientTransform="scale(0.99999,1)"
       r="43.527">
      <stop
         id="stop4128"
         stop-color="#fff"
         offset="0" />
      <stop
         id="stop4130"
         stop-color="#fff"
         stop-opacity=".16495"
         offset="1" />
    </radialGradient>
    <radialGradient
       id="radialGradient3968"
       gradientUnits="userSpaceOnUse"
       cy="15.716"
       cx="18.247999"
       gradientTransform="scale(0.99999,1)"
       r="29.993">
      <stop
         id="stop3964"
         stop-color="#d3e9ff"
         offset="0" />
      <stop
         id="stop4134"
         stop-color="#d3e9ff"
         offset=".15517" />
      <stop
         id="stop4346"
         stop-color="#4074ae"
         offset=".75" />
      <stop
         id="stop3966"
         stop-color="#36486c"
         offset="1" />
    </radialGradient>
    <radialGradient
       inkscape:collect="always"
       xlink:href="#linearGradient6538"
       id="radialGradient940"
       gradientUnits="userSpaceOnUse"
       cx="12.071"
       cy="12.493"
       r="6.7175002" />
    <radialGradient
       inkscape:collect="always"
       xlink:href="#linearGradient6538"
       id="radialGradient942"
       gradientUnits="userSpaceOnUse"
       cx="12.071"
       cy="12.493"
       r="6.7175002" />
    <radialGradient
       inkscape:collect="always"
       xlink:href="#linearGradient6538"
       id="radialGradient944"
       gradientUnits="userSpaceOnUse"
       cx="12.071"
       cy="12.493"
       r="6.7175002" />
  </defs>
  <g
     id="layer1-0"
     transform="matrix(1.2501665,0,0,1.2501665,-5.7548844,-4.3480847)">
    <path
       id="path3214"
       d="m 43.96,23.485 c 0,10.71 -8.6821,19.392 -19.39,19.392 -10.709,0 -19.391,-8.6821 -19.391,-19.392 0,-10.709 8.6816,-19.39 19.391,-19.39 10.708,0 19.39,8.6811 19.39,19.39 z"
       stroke="#39396c"
       fill="url(#radialGradient3968)"
       style="fill:url(#radialGradient3968)" />
    <g
       id="g4136"
       fill-opacity="0.71345"
       fill="#204a87"
       transform="matrix(0.98237,0,0,0.98237,0.12108,0.23291)">
      <g
         id="g4138">
        <g
           id="g4142"
           fill="#204a87">
          <path
             id="path4144"
             fill="#204a87"
             d="m 44.071,20.714 -0.5449,0.6172 c -0.334,-0.3936 -0.709,-0.7246 -1.0898,-1.0703 l -0.8359,0.123 -0.7637,-0.8633 v 1.0684 l 0.6543,0.4951 0.4355,0.4932 0.582,-0.6582 c 0.1465,0.2744 0.291,0.5488 0.4365,0.8232 v 0.8223 l -0.6553,0.7402 -1.1992,0.8232 -0.9082,0.9063 -0.582,-0.6602 0.291,-0.7402 -0.5811,-0.6582 -0.9814,-2.0977 -0.8359,-0.9453 -0.2188,0.2461 0.3281,1.1934 0.6172,0.6992 c 0.3525,1.0176 0.7012,1.9902 1.1641,2.9629 0.7178,0 1.3945,-0.0762 2.1074,-0.166 v 0.5762 l -0.8721,2.1392 -0.7998,0.9043 -0.6543,1.4004 v 2.3027 l 0.2188,0.9063 -0.3633,0.4102 -0.8008,0.4941 -0.8359,0.6992 0.6914,0.7813 -0.9453,0.8242 0.1816,0.5332 -1.418,1.6055 h -0.9443 l -0.7998,0.4941 H 33.6393 V 38.281 l -0.2168,-1.3184 c -0.2813,-0.8262 -0.5742,-1.6465 -0.8721,-2.4668 0,-0.6055 0.0361,-1.2051 0.0723,-1.8105 l 0.3643,-0.8223 -0.5098,-0.9883 0.0371,-1.3574 -0.6914,-0.7813 0.3457,-1.1309 -0.5625,-0.6382 h -0.9824 l -0.3271,-0.3701 -0.9814,0.6177 -0.3994,-0.4536 -0.9092,0.7817 c -0.6172,-0.6997 -1.2354,-1.3989 -1.8535,-2.0981 l -0.7266,-1.7285 0.6543,-0.9863 -0.3633,-0.4111 0.7988,-1.8936 c 0.6563,-0.8164 1.3418,-1.5996 2.0352,-2.3857 l 1.2363,-0.3291 1.3809,-0.1641 0.9453,0.2471 1.3447,1.3564 0.4727,-0.5342 0.6533,-0.082 1.2363,0.4111 h 0.9453 l 0.6543,-0.5762 0.291,-0.4111 -0.6553,-0.4111 -1.0908,-0.082 c -0.3027,-0.4199 -0.584,-0.8613 -0.9434,-1.2344 l -0.3643,0.1641 -0.1455,1.0703 -0.6543,-0.7402 -0.1445,-0.8242 -0.7266,-0.5742 h -0.292 l 0.7275,0.8223 -0.291,0.7402 -0.5811,0.1641 0.3633,-0.7402 -0.6553,-0.3281 -0.5801,-0.6582 -1.0918,0.2461 -0.1445,0.3281 -0.6543,0.4121 -0.3633,0.9053 -0.9082,0.4521 -0.4004,-0.4521 h -0.4355 v -1.4814 l 0.9453,-0.4941 h 0.7266 l -0.1465,-0.5752 -0.5801,-0.5762 0.9805,-0.2061 0.5449,-0.6162 0.4355,-0.7412 h 0.8008 l -0.2188,-0.5752 0.5098,-0.3291 v 0.6582 l 1.0898,0.2461 1.0898,-0.9043 0.0732,-0.4121 0.9443,-0.6577 c -0.3418,0.0425 -0.6836,0.0737 -1.0176,0.1646 V 9.9762 L 34.221,9.1534 h -0.3633 l -0.7984,0.7402 -0.2188,0.4116 0.2188,0.5767 -0.3643,0.9863 -0.5811,-0.3291 -0.5078,-0.5752 -0.8008,0.5752 -0.291,-1.3159 1.3809,-0.9048 V 8.8243 l 0.873,-0.5757 1.3809,-0.3296 0.9453,0.3296 1.7441,0.3291 -0.4355,0.4932 h -0.9453 l 0.9453,0.9873 0.7266,-0.8223 0.2207,-0.3618 c 0,0 2.7871,2.498 4.3799,5.2305 1.5928,2.7334 2.3408,5.9551 2.3408,6.6094 z" />
        </g>
      </g>
      <g
         id="g4146">
        <g
           id="g4150"
           fill="#204a87">
          <path
             id="path4152"
             fill="#204a87"
             d="m 26.07,9.2363 -0.0732,0.4932 0.5098,0.3291 0.8711,-0.5757 -0.4355,-0.4937 -0.582,0.3296 -0.29,-0.0825" />
        </g>
      </g>
      <g
         id="g4154">
        <g
           id="g4158"
           fill="#204a87">
          <path
             id="path4160"
             fill="#204a87"
             d="m 26.87,5.8633 -1.8906,-0.7407 -2.1797,0.2466 -2.6904,0.7402 -0.5088,0.4941 1.6719,1.1514 v 0.6582 l -0.6543,0.6582 0.873,1.729 0.5801,-0.3301 0.7285,-1.1514 C 23.9227,8.9716 24.9296,8.5781 25.997,8.0844 L 26.87,5.8632" />
        </g>
      </g>
      <g
         id="g4162">
        <g
           id="g4166"
           fill="#204a87">
          <path
             id="path4168"
             fill="#204a87"
             d="m 28.833,12.775 -0.291,-0.7412 -0.5098,0.165 0.1465,0.9043 0.6543,-0.3281" />
        </g>
      </g>
      <g
         id="g4170">
        <g
           id="g4174"
           fill="#204a87">
          <path
             id="path4176"
             fill="#204a87"
             d="m 29.123,12.609 -0.1455,0.9883 0.7998,-0.165 0.5811,-0.5752 -0.5088,-0.4941 c -0.171,-0.455 -0.368,-0.88 -0.582,-1.317 h -0.4355 v 0.4932 l 0.29,0.3291 v 0.7402" />
        </g>
      </g>
      <g
         id="g4178">
        <g
           id="g4182"
           fill="#204a87">
          <path
             id="path4184"
             fill="#204a87"
             d="m 18.365,28.242 -0.582,-1.1523 -1.0903,-0.2466 -0.5815,-1.5625 -1.4536,0.1641 -1.2354,-0.9043 -1.3091,1.1514 v 0.1816 c -0.396,-0.1143 -0.8828,-0.1299 -1.2354,-0.3467 l -0.291,-0.8223 v -0.9053 l -0.8721,0.082 c 0.0728,-0.5762 0.145,-1.1514 0.2183,-1.7275 H 9.4236 L 8.9153,22.8118 8.406,23.0579 7.6789,22.6477 7.6061,21.7424 7.7516,20.7551 8.8424,19.9328 h 0.8721 l 0.145,-0.4941 1.0903,0.2461 0.7998,0.9883 0.1455,-1.6465 1.3813,-1.1514 0.5088,-1.2344 1.0176,-0.4111 0.5815,-0.8223 1.3081,-0.248 0.6548,-0.9863 h -1.9629 l 1.2358,-0.5762 h 0.8716 l 1.2363,-0.4121 0.1455,-0.4922 -0.4365,-0.4121 -0.5088,-0.165 0.1455,-0.4932 -0.3633,-0.7402 -0.8726,0.3281 0.1455,-0.6577 -1.0176,-0.5762 -0.7993,1.3979 0.0723,0.4941 -0.7993,0.3301 -0.5093,1.0693 L 13.7123,12.2804 12.331,11.7042 12.1127,10.964 13.9301,9.8937 14.7299,9.1535 14.8027,8.2487 14.3667,8.0016 13.7852,7.9191 13.4219,8.8244 c 0,0 -0.6079,0.1191 -0.7642,0.1577 -1.9961,1.8394 -6.0293,5.8101 -6.9663,13.306 0.0371,0.1738 0.6792,1.1816 0.6792,1.1816 l 1.5264,0.9043 1.5264,0.4121 0.6548,0.8232 1.0171,0.7402 0.5815,-0.082 0.436,0.1963 v 0.1328 l -0.5811,1.563 -0.4365,0.6582 0.1455,0.3301 -0.3633,1.2324 1.3086,2.3867 1.3081,1.1523 0.582,0.8223 -0.0732,1.7285 0.4365,0.9863 -0.4365,1.8926 c 0,0 -0.0342,-0.0117 0.0215,0.1777 0.0562,0.1895 2.3291,1.4512 2.4736,1.3438 0.144,-0.1094 0.2671,-0.2051 0.2671,-0.2051 l -0.145,-0.4102 0.5811,-0.5762 0.2183,-0.5762 0.9453,-0.3301 0.7266,-1.8105 -0.2178,-0.4922 0.5078,-0.7402 1.0908,-0.248 0.582,-1.3164 -0.1455,-1.6445 0.8721,-1.2344 0.1455,-1.2344 c -1.194,-0.59 -2.377,-1.2 -3.562,-1.809" />
        </g>
      </g>
      <g
         id="g4186">
        <g
           id="g4190"
           fill="#204a87">
          <path
             id="path4192"
             fill="#204a87"
             d="m 16.766,9.5649 0.7266,0.4937 h 0.582 V 9.4829 L 17.348,9.1538 16.766,9.5649" />
        </g>
      </g>
      <g
         id="g4194">
        <g
           id="g4198"
           fill="#204a87">
          <path
             id="path4200"
             fill="#204a87"
             d="M 14.876,8.9072 14.5122,9.812 h 0.7271 l 0.3638,-0.8228 c 0.314,-0.2217 0.626,-0.4448 0.945,-0.6582 l 0.7271,0.2471 c 0.4844,0.3291 0.9688,0.6582 1.4536,0.9868 l 0.727,-0.6577 -0.8,-0.3291 -0.364,-0.7407 -1.381,-0.1646 -0.073,-0.4116 -0.654,0.165 -0.29,0.5758 -0.364,-0.7407 -0.145,0.3291 0.0728,0.8228 -0.5816,0.494" />
        </g>
      </g>
      <g
         id="g4222">
        <g
           id="g4226"
           fill="#204a87">
          <path
             id="path4228"
             fill="#204a87"
             d="M 17.492,6.8496 17.856,6.521 18.583,6.3564 c 0.498,-0.2422 0.998,-0.4053 1.5264,-0.5762 l -0.29,-0.4937 -0.9385,0.1348 -0.4434,0.4419 -0.731,0.106 -0.6499,0.3052 -0.3159,0.1528 -0.1929,0.2583 0.9443,0.1641" />
        </g>
      </g>
      <g
         id="g4230">
        <g
           id="g4234"
           fill="#204a87">
          <path
             id="path4236"
             fill="#204a87"
             d="m 18.728,14.666 0.4365,-0.6582 -0.6548,-0.4932 0.2183,1.1514" />
        </g>
      </g>
    </g>
    <path
       id="path4122"
       opacity="0.3956"
       d="m 42.975,23.486 c 0,10.166 -8.2412,18.407 -18.406,18.407 -10.1648,0 -18.406,-8.2412 -18.406,-18.407 0,-10.165 8.2407,-18.406 18.406,-18.406 10.164,0 18.406,8.2402 18.406,18.406 z"
       stroke="url(#radialGradient4132)"
       fill="none"
       style="stroke:url(#radialGradient4132)" />
    <path
       id="path5991"
       stroke-linejoin="round"
       style="color:#000000;stroke:url(#linearGradient6007)"
       d="m -2.8284,21.042 c 0,5.2233 -7.044,9.4576 -15.733,9.4576 -8.6892,0 -15.733,-4.2343 -15.733,-9.4576 0,-5.2233 7.044,-9.4576 15.733,-9.4576 8.6892,0 15.733,4.2343 15.733,9.4576 z"
       transform="matrix(1.131,0.6131,-0.47656,0.87914,54.091,16.044)"
       stroke="url(#linearGradient6007)"
       stroke-linecap="round"
       stroke-width="0.88164"
       fill="none" />
    <path
       id="path6009"
       stroke-linejoin="round"
       style="color:#000000;stroke:url(#linearGradient6011)"
       d="m -2.8284,21.042 c 0,5.2233 -7.044,9.4576 -15.733,9.4576 -8.6892,0 -15.733,-4.2343 -15.733,-9.4576 0,-5.2233 7.044,-9.4576 15.733,-9.4576 8.6892,0 15.733,4.2343 15.733,9.4576 z"
       transform="matrix(0.93933,-0.87909,0.68331,0.73013,32.314,-4.4516)"
       stroke="url(#linearGradient6011)"
       stroke-linecap="round"
       stroke-width="0.88164"
       fill="none" />
    <g
       id="g4933"
       fill-rule="evenodd"
       transform="matrix(-1.0458,0.76725,0.76725,1.0458,35.617,-22.144)">
      <path
         id="path4935"
         d="m 18.789,12.493 c 0,3.71 -3.0075,6.7175 -6.7175,6.7175 -3.71,0 -6.7175,-3.0075 -6.7175,-6.7175 0,-3.71 3.0075,-6.7175 6.7175,-6.7175 3.71,0 6.7175,3.0075 6.7175,6.7175 z"
         style="color:#000000;fill:url(#radialGradient940)"
         fill="url(#radialGradient5989)"
         transform="translate(14.95,22.93)" />
      <path
         id="path4937"
         d="m 18.789,12.493 c 0,3.71 -3.0075,6.7175 -6.7175,6.7175 -3.71,0 -6.7175,-3.0075 -6.7175,-6.7175 0,-3.71 3.0075,-6.7175 6.7175,-6.7175 3.71,0 6.7175,3.0075 6.7175,6.7175 z"
         style="color:#000000"
         fill="#ffffff"
         transform="matrix(0.30827,0,0,0.30827,23.3,31.572)" />
    </g>
    <path
       id="path6013"
       stroke-linejoin="round"
       style="color:#000000;stroke:url(#linearGradient6015)"
       d="m -2.8284,21.042 c 0,5.2233 -7.044,9.4576 -15.733,9.4576 -8.6892,0 -15.733,-4.2343 -15.733,-9.4576 0,-5.2233 7.044,-9.4576 15.733,-9.4576 8.6892,0 15.733,4.2343 15.733,9.4576 z"
       transform="matrix(-1.2803,-0.12616,0.098062,-0.99518,-2.4051,40.524)"
       stroke="url(#linearGradient6015)"
       stroke-linecap="round"
       stroke-width="0.88164"
       fill="none" />
    <path
       id="path6017"
       stroke-linejoin="round"
       style="color:#000000;stroke:url(#linearGradient6019)"
       d="m -2.8284,21.042 c 0,5.2233 -7.044,9.4576 -15.733,9.4576 -8.6892,0 -15.733,-4.2343 -15.733,-9.4576 0,-5.2233 7.044,-9.4576 15.733,-9.4576 8.6892,0 15.733,4.2343 15.733,9.4576 z"
       transform="matrix(0.91787,-0.85898,0.6677,0.71343,27.633,-6.9091)"
       stroke="url(#linearGradient6019)"
       stroke-linecap="round"
       stroke-width="0.90226"
       fill="none" />
    <g
       id="g5075"
       fill-rule="evenodd"
       transform="matrix(-0.80628,0.59154,0.59154,0.80628,12.386,-18.029)">
      <path
         id="path5077"
         d="m 18.789,12.493 c 0,3.71 -3.0075,6.7175 -6.7175,6.7175 -3.71,0 -6.7175,-3.0075 -6.7175,-6.7175 0,-3.71 3.0075,-6.7175 6.7175,-6.7175 3.71,0 6.7175,3.0075 6.7175,6.7175 z"
         style="color:#000000;fill:url(#radialGradient942)"
         fill="url(#radialGradient5989)"
         transform="translate(14.95,22.93)" />
      <path
         id="path5079"
         d="m 18.789,12.493 c 0,3.71 -3.0075,6.7175 -6.7175,6.7175 -3.71,0 -6.7175,-3.0075 -6.7175,-6.7175 0,-3.71 3.0075,-6.7175 6.7175,-6.7175 3.71,0 6.7175,3.0075 6.7175,6.7175 z"
         style="color:#000000"
         fill="#ffffff"
         transform="matrix(0.30827,0,0,0.30827,23.3,31.572)" />
    </g>
    <g
       id="g4945"
       fill-rule="evenodd"
       transform="matrix(-0.80628,0.59154,0.59154,0.80628,13.499,-31.5)">
      <path
         id="path4947"
         d="m 18.789,12.493 c 0,3.71 -3.0075,6.7175 -6.7175,6.7175 -3.71,0 -6.7175,-3.0075 -6.7175,-6.7175 0,-3.71 3.0075,-6.7175 6.7175,-6.7175 3.71,0 6.7175,3.0075 6.7175,6.7175 z"
         style="color:#000000;fill:url(#radialGradient944)"
         fill="url(#radialGradient5989)"
         transform="translate(14.95,22.93)" />
      <path
         id="path4949"
         d="m 18.789,12.493 c 0,3.71 -3.0075,6.7175 -6.7175,6.7175 -3.71,0 -6.7175,-3.0075 -6.7175,-6.7175 0,-3.71 3.0075,-6.7175 6.7175,-6.7175 3.71,0 6.7175,3.0075 6.7175,6.7175 z"
         style="color:#000000"
         fill="#ffffff"
         transform="matrix(0.30827,0,0,0.30827,23.3,31.572)" />
    </g>
    <g
       id="g4939"
       fill-rule="evenodd"
       transform="matrix(-0.87023,0.63857,0.63846,0.87038,25.205,-35.313)">
      <path
         id="path4941"
         d="m 18.789,12.493 c 0,3.71 -3.0075,6.7175 -6.7175,6.7175 -3.71,0 -6.7175,-3.0075 -6.7175,-6.7175 0,-3.71 3.0075,-6.7175 6.7175,-6.7175 3.71,0 6.7175,3.0075 6.7175,6.7175 z"
         style="color:#000000;fill:url(#radialGradient5989)"
         fill="url(#radialGradient5989)"
         transform="translate(14.95,22.93)" />
      <path
         id="path4943"
         d="m 18.789,12.493 c 0,3.71 -3.0075,6.7175 -6.7175,6.7175 -3.71,0 -6.7175,-3.0075 -6.7175,-6.7175 0,-3.71 3.0075,-6.7175 6.7175,-6.7175 3.71,0 6.7175,3.0075 6.7175,6.7175 z"
         style="color:#000000"
         fill="#ffffff"
         transform="matrix(0.30827,0,0,0.30827,23.3,31.572)" />
    </g>
  </g>
  <metadata
     id="metadata112">
    <rdf:RDF>
      <cc:Work>
        <dc:format>image/svg+xml</dc:format>
        <dc:type
           rdf:resource="http://purl.org/dc/dcmitype/StillImage" />
        <cc:license
           rdf:resource="http://creativecommons.org/publicdomain/zero/1.0/" />
        <dc:publisher>
          <cc:Agent
             rdf:about="http://openclipart.org/">
            <dc:title>Openclipart</dc:title>
          </cc:Agent>
        </dc:publisher>
        <dc:title>World Wide Web</dc:title>
        <dc:date>2013-06-30T13:34:38</dc:date>
        <dc:description>A stylized cloud and earth to represent the World Wide Web (Internet, cloud computing).</dc:description>
        <dc:source>http://openclipart.org/detail/179896/world-wide-web-by-gr8dan-179896</dc:source>
        <dc:creator>
          <cc:Agent>
            <dc:title>GR8DAN</dc:title>
          </cc:Agent>
        </dc:creator>
        <dc:subject>
          <rdf:Bag>
            <rdf:li>blue</rdf:li>
            <rdf:li>cloud</rdf:li>
            <rdf:li>computing</rdf:li>
            <rdf:li>earth</rdf:li>
            <rdf:li>globe</rdf:li>
            <rdf:li>grey</rdf:li>
            <rdf:li>internet</rdf:li>
            <rdf:li>interweb</rdf:li>
            <rdf:li>network</rdf:li>
            <rdf:li>sky</rdf:li>
            <rdf:li>weather</rdf:li>
            <rdf:li>web</rdf:li>
            <rdf:li>wide</rdf:li>
            <rdf:li>world</rdf:li>
          </rdf:Bag>
        </dc:subject>
      </cc:Work>
      <cc:License
         rdf:about="http://creativecommons.org/publicdomain/zero/1.0/">
        <cc:permits
           rdf:resource="http://creativecommons.org/ns#Reproduction" />
        <cc:permits
           rdf:resource="http://creativecommons.org/ns#Distribution" />
        <cc:permits
           rdf:resource="http://creativecommons.org/ns#DerivativeWorks" />
      </cc:License>
    </rdf:RDF>
  </metadata>
</svg>
