<?xml version="1.0" encoding="UTF-8" standalone="no"?>
<svg
   xmlns:dc="http://purl.org/dc/elements/1.1/"
   xmlns:cc="http://creativecommons.org/ns#"
   xmlns:rdf="http://www.w3.org/1999/02/22-rdf-syntax-ns#"
   xmlns:svg="http://www.w3.org/2000/svg"
   xmlns="http://www.w3.org/2000/svg"
   xmlns:xlink="http://www.w3.org/1999/xlink"
   xmlns:sodipodi="http://sodipodi.sourceforge.net/DTD/sodipodi-0.dtd"
   xmlns:inkscape="http://www.inkscape.org/namespaces/inkscape"
   width="128"
   height="128"
   viewBox="0 0 33.865273 33.816708"
   version="1.1"
   id="svg12"
   sodipodi:docname="rebornos_welcome_logo.svg"
   inkscape:version="1.0.2 (e86c870879, 2021-01-15)">
  <metadata
     id="metadata18">
    <rdf:RDF>
      <cc:Work
         rdf:about="">
        <dc:format>image/svg+xml</dc:format>
        <dc:type
           rdf:resource="http://purl.org/dc/dcmitype/StillImage" />
        <dc:title />
      </cc:Work>
    </rdf:RDF>
  </metadata>
  <defs
     id="defs16">
    <linearGradient
       id="linearGradient1107">
      <stop
         id="stop1103"
         stop-color="#f57900"
         style="stop-color:#f500e8;stop-opacity:1" />
      <stop
         id="stop1105"
         offset="1"
         stop-color="#edd400"
         style="stop-color:#1e00ed;stop-opacity:1" />
    </linearGradient>
    <linearGradient
       id="3">
      <stop
         id="I"
         stop-color="#fff" />
      <stop
         id="J"
         offset="1"
         stop-color="#fff"
         stop-opacity="0" />
    </linearGradient>
    <linearGradient
       id="4">
      <stop
         id="K"
         stop-color="#2e3436"
         stop-opacity="0.498" />
      <stop
         id="L"
         offset="0.5"
         stop-color="#2e3436"
         stop-opacity="0.439" />
      <stop
         id="M"
         offset="1"
         stop-color="#2e3436"
         stop-opacity="0" />
    </linearGradient>
    <linearGradient
       id="5">
      <stop
         id="N"
         stop-color="#f57900"
         style="stop-color:#1df500;stop-opacity:1" />
      <stop
         id="O"
         offset="1"
         stop-color="#edd400"
         style="stop-color:#00ed43;stop-opacity:1" />
    </linearGradient>
    <linearGradient
       id="6">
      <stop
         id="P"
         stop-color="#fff"
         stop-opacity="0.8" />
      <stop
         id="Q"
         offset="1"
         stop-color="#fff"
         stop-opacity="0" />
    </linearGradient>
    <radialGradient
       cx="17.241"
       cy="46.64"
       r="9.692"
       id="7"
       xlink:href="#4"
       gradientUnits="userSpaceOnUse"
       gradientTransform="matrix(0.71189429,0,0,0.14987247,10.518895,10.121809)" />
    <radialGradient
       cx="23.276"
       cy="33.988"
       r="20.325"
       id="8"
       xlink:href="#linearGradient1107"
       gradientUnits="userSpaceOnUse"
       gradientTransform="matrix(0.59785381,-0.90026879,0.85981201,0.57098702,-17.554974,15.109933)" />
    <linearGradient
       y1="5.611"
       x2="0"
       y2="43.36"
       id="9"
       xlink:href="#6"
       gradientUnits="userSpaceOnUse"
       gradientTransform="matrix(0.43908943,0,0,0.43908943,13.92295,-2.0542418)" />
    <linearGradient
       x1="-3.964"
       y1="-19.200001"
       x2="10.826"
       y2="32.32"
       id="A"
       xlink:href="#5"
       gradientUnits="userSpaceOnUse"
       gradientTransform="matrix(0.43908943,0,0,0.43908943,13.714956,-1.8421623)" />
  </defs>
  <sodipodi:namedview
     pagecolor="#ffffff"
     bordercolor="#666666"
     borderopacity="1"
     objecttolerance="10"
     gridtolerance="10"
     guidetolerance="10"
     inkscape:pageopacity="0"
     inkscape:pageshadow="2"
     inkscape:window-width="1920"
     inkscape:window-height="1004"
     id="namedview14"
     showgrid="false"
     inkscape:zoom="3.9560599"
     inkscape:cx="81.064281"
     inkscape:cy="37.428592"
     inkscape:window-x="0"
     inkscape:window-y="0"
     inkscape:window-maximized="1"
     inkscape:current-layer="svg12"
     inkscape:document-rotation="0"
     fit-margin-top="0"
     fit-margin-left="0"
     fit-margin-right="0"
     fit-margin-bottom="0" />
  <g
     id="g837"
     transform="matrix(1.0565299,0,0,1.0565299,0.1048952,2.3864178)">
    <path
       d="M 23.860946,27.478783 H 8.0777978 L 0.18622363,13.810447 8.0777978,0.14318716 H 23.860946 L 31.752522,13.811093 Z"
       fill="#1a1a1a"
       stroke="#cccccc"
       stroke-width="0.322544"
       id="path4" />
    <path
       d="m 8.689771,1.2024214 -3.2968286,5.7073068 3.2576932,1.880861 2.2105004,-3.826876 h 4.419496 V 1.2019914 Z m 7.968339,0 v 3.761722 h 4.419496 l 2.210502,3.828596 3.257694,-1.8808608 -3.2964,-5.7094572 z m 10.576646,6.9020094 -3.257694,1.880861 2.208994,3.8275212 -2.2105,3.829026 3.257694,1.880861 3.2964,-5.709457 z m -22.5303374,0 L 1.4099552,13.808727 4.706354,19.518185 7.964047,17.637324 5.7535464,13.808297 7.9625418,9.9807762 Z m 3.9479372,10.7299612 -3.2572632,1.878925 3.2946784,5.70623 h 6.591291 v -3.76172 h -4.418851 z m 14.6336022,0 -2.208996,3.827521 h -4.418637 v 3.76172 h 6.591723 l 3.294248,-5.70623 z"
       fill="#277748"
       id="path6"
       style="fill:#006680;fill-opacity:1;stroke-width:0.21503" />
    <path
       d="m 11.525577,6.1128296 -1.880861,3.2538228 2.812583,1.6239006 0.941828,-1.6305664 h 1.880861 v -3.247157 z m 5.132748,0 v 3.2475872 h 1.880861 l 0.941828,1.6305672 2.812584,-1.6239014 -1.880862,-3.2538228 z m -7.7006274,4.4468054 -1.8767756,3.250812 1.8808612,3.253824 2.8125828,-1.623902 -0.941828,-1.630566 0.939677,-1.626912 z m 14.0233484,0 -2.812584,1.623901 0.939678,1.626911 -0.941828,1.630567 2.812584,1.623902 1.880862,-3.253823 z m -10.520092,6.074147 -2.8125824,1.623901 1.8767754,3.251242 h 3.755701 v -3.248017 h -1.880861 z m 7.01748,0 -0.939678,1.626911 h -1.880431 v 3.247588 h 3.755701 l 1.876776,-3.251243 z"
       fill="#649f4b"
       id="path8"
       style="fill:#0086a8;fill-opacity:1;stroke-width:0.21503" />
    <path
       d="m 17.835826,17.042768 h -3.732048 l -1.866454,-3.23189 1.866454,-3.23189 h 3.732263 l 1.866453,3.23189 z"
       fill="#656565"
       id="path10"
       style="fill:#00acd6;fill-opacity:1;stroke-width:0.21503" />
  </g>
  <path
     d="m 29.692042,17.111825 a 6.899449,1.4525155 0 1 1 -13.798898,0 6.899449,1.4525155 0 1 1 13.798898,0 z"
     id="1"
     opacity="0.8"
     fill="url(#7)"
     style="fill:url(#7);stroke-width:0.711894" />
  <path
     d="m 24.461095,-0.09212649 c 5.200006,0 9.41847,3.36569489 9.41847,7.51054799 0,4.1448545 -4.221411,7.8385085 -10.398136,7.5478665 -0.400965,1.275668 -1.870382,2.811278 -4.317656,2.865066 0.629937,-0.806968 1.492559,-1.610829 1.511766,-3.553506 -3.311334,-1.164411 -5.632911,-3.790833 -5.632911,-6.8594265 0,-4.1448536 4.218461,-7.5105479 9.418467,-7.51054799 z"
     id="B"
     fill="#a64a00"
     style="fill:#ffffff;fill-opacity:1;stroke-width:0.439089" />
  <path
     d="m 24.461198,0.40157566 c -4.988004,1.3e-7 -8.924383,3.20426304 -8.924383,7.01563834 0,2.820942 2.138893,5.2848 5.299805,6.39632 0.198502,0.06915 0.331104,0.256826 0.329965,0.46703 -0.01336,1.351188 -0.444501,2.222561 -0.903607,2.893569 1.555141,-0.398782 2.479835,-1.491391 2.751434,-2.35547 0.06645,-0.213716 0.268842,-0.355599 0.492413,-0.345195 5.970811,0.280948 9.878755,-3.245112 9.878755,-7.056254 0,-3.8113748 -3.936381,-7.01563834 -8.924382,-7.01563834 z"
     id="C"
     fill="url(#8)"
     style="fill:url(#8);stroke-width:0.439089" />
  <path
     d="m 24.461198,0.63001536 c -4.888746,1.7e-7 -8.695943,3.13196054 -8.695944,6.78719864 0,2.704985 2.057028,5.091276 5.147512,6.178031 0.29045,0.102221 0.4841,0.377406 0.48226,0.685319 -0.01042,1.054508 -0.272564,1.852398 -0.604097,2.482376 1.125112,-0.473187 1.78908,-1.343923 2.000117,-2.015348 0.09941,-0.313205 0.397783,-0.519767 0.725933,-0.502568 5.874406,0.276421 9.64016,-3.172921 9.64016,-6.82781 0,-3.6552377 -3.807195,-6.78719864 -8.695941,-6.78719864 z"
     id="D"
     opacity="0.8"
     fill="none"
     stroke="url(#9)"
     stroke-miterlimit="10"
     style="stroke:url(#9);stroke-width:0.439089" />
  <text
     xml:space="preserve"
     style="font-style:normal;font-variant:normal;font-weight:normal;font-stretch:normal;font-size:13.3391px;line-height:1.25;font-family:Righteous;-inkscape-font-specification:'Righteous, Normal';font-variant-ligatures:normal;font-variant-caps:normal;font-variant-numeric:normal;font-variant-east-asian:normal;letter-spacing:0px;word-spacing:0px;fill:#ffffff;fill-opacity:1;stroke:#ac29ff;stroke-width:0.333477;stroke-opacity:1"
     x="18.918282"
     y="12.675316"
     id="text864"><tspan
       sodipodi:role="line"
       id="tspan862"
       x="18.918282"
       y="12.675316"
       style="font-style:normal;font-variant:normal;font-weight:normal;font-stretch:normal;font-size:13.3391px;font-family:Righteous;-inkscape-font-specification:'Righteous, Normal';font-variant-ligatures:normal;font-variant-caps:normal;font-variant-numeric:normal;font-variant-east-asian:normal;fill:#ffffff;fill-opacity:1;stroke:#ac29ff;stroke-width:0.333477;stroke-opacity:1">W</tspan></text>
</svg>
