<?xml version="1.0" encoding="UTF-8" standalone="no"?>
<svg
   xmlns:dc="http://purl.org/dc/elements/1.1/"
   xmlns:cc="http://creativecommons.org/ns#"
   xmlns:rdf="http://www.w3.org/1999/02/22-rdf-syntax-ns#"
   xmlns:svg="http://www.w3.org/2000/svg"
   xmlns="http://www.w3.org/2000/svg"
   xmlns:sodipodi="http://sodipodi.sourceforge.net/DTD/sodipodi-0.dtd"
   xmlns:inkscape="http://www.inkscape.org/namespaces/inkscape"
   version="1.1"
   id="svg2"
   xml:space="preserve"
   width="33"
   height="33"
   viewBox="0 0 33 33"
   sodipodi:docname="status.svg"
   inkscape:version="1.0.2 (e86c870879, 2021-01-15)"><metadata
     id="metadata8"><rdf:RDF><cc:Work
         rdf:about=""><dc:format>image/svg+xml</dc:format><dc:type
           rdf:resource="http://purl.org/dc/dcmitype/StillImage" /><dc:title></dc:title></cc:Work></rdf:RDF></metadata><defs
     id="defs6" /><sodipodi:namedview
     pagecolor="#ffffff"
     bordercolor="#666666"
     borderopacity="1"
     objecttolerance="10"
     gridtolerance="10"
     guidetolerance="10"
     inkscape:pageopacity="0"
     inkscape:pageshadow="2"
     inkscape:window-width="1920"
     inkscape:window-height="1004"
     id="namedview4"
     showgrid="false"
     inkscape:zoom="13.314919"
     inkscape:cx="44.518996"
     inkscape:cy="24.635247"
     inkscape:window-x="0"
     inkscape:window-y="0"
     inkscape:window-maximized="1"
     inkscape:current-layer="g10"
     inkscape:document-rotation="0" /><g
     id="g10"
     inkscape:groupmode="layer"
     inkscape:label="ink_ext_XXXXXX"
     transform="matrix(1.3333333,0,0,-1.3333333,0,664.46667)"><g
       id="g1324"
       transform="matrix(0.06134905,0,0,0.06134905,-4.7745286,471.18246)"><path
         d="m 235.19908,202.7585 c -14.009,5.932 -23.837,19.807 -23.837,35.977 0,13.338 6.685,25.108 16.888,32.153 -6.539,-12.312 -9.269,-48.938 6.949,-68.13"
         style="fill:#fbd929;fill-opacity:1;fill-rule:evenodd;stroke:none;stroke-width:0.1"
         id="path132" /><path
         d="m 305.99508,440.8115 h -42.565 V 39.964503 h 42.565 c 40.91,0 74.383,33.473 74.383,74.383997 v 252.079 c 0,40.911 -33.473,74.384 -74.383,74.384"
         style="fill:#e8e8e7;fill-opacity:1;fill-rule:evenodd;stroke:none;stroke-width:0.1"
         id="path154" /><path
         d="m 263.43008,440.8115 v 0 c 40.911,0 74.384,-33.473 74.384,-74.384 v -252.079 c 0,-40.910997 -33.473,-74.383997 -74.384,-74.383997 -40.911,0 -74.384,33.473 -74.384,74.383997 v 252.079 c 0,40.911 33.473,74.384 74.384,74.384"
         style="fill:#cdccca;fill-opacity:1;fill-rule:evenodd;stroke:none;stroke-width:0.1"
         id="path156" /><path
         d="m 263.43008,305.4745 c 34.938,0 63.433,28.495 63.433,63.433 0,34.937 -28.495,63.432 -63.433,63.432 -34.937,0 -63.432,-28.495 -63.432,-63.432 0,-34.938 28.495,-63.433 63.432,-63.433"
         style="fill:#b1b1b0;fill-opacity:1;fill-rule:evenodd;stroke:none;stroke-width:0.1"
         id="path158" /><path
         d="m 263.43008,176.5425 c 34.938,0 63.433,28.495 63.433,63.432 0,34.938 -28.495,63.434 -63.433,63.434 -34.937,0 -63.432,-28.496 -63.432,-63.434 0,-34.937 28.495,-63.432 63.432,-63.432"
         style="fill:#b1b1b0;fill-opacity:1;fill-rule:evenodd;stroke:none;stroke-width:0.1"
         id="path160" /><path
         d="m 204.74908,239.9745 c 19.56,19.561 39.121,39.121 58.681,58.681 h -62.802 c -39.951,0 -20.601,-58.749 4.121,-58.681"
         style="fill:#7a7b7d;fill-opacity:1;fill-rule:evenodd;stroke:none;stroke-width:0.1"
         id="path162" /><path
         d="m 263.43008,181.2945 c 32.32,0 58.68,26.361 58.68,58.68 0,32.32 -26.36,58.681 -58.68,58.681 -32.321,0 -58.681,-26.361 -58.681,-58.681 0,-32.319 26.36,-58.68 58.681,-58.68"
         style="fill:#100f0d;fill-opacity:1;fill-rule:evenodd;stroke:none;stroke-width:0.1"
         id="path164" /><path
         d="m 263.43008,298.6555 c 21.746,0 40.73,-11.83 50.867,-29.407 1.85,-5.707 2.855,-11.791 2.855,-18.116 0,-32.408 -26.274,-58.681 -58.682,-58.681 -21.746,0 -40.729,11.833 -50.865,29.407 -1.852,5.707 -2.856,11.794 -2.856,18.116 0,32.408 26.273,58.681 58.681,58.681"
         style="fill:#1b1919;fill-opacity:1;fill-rule:evenodd;stroke:none;stroke-width:0.1"
         id="path166" /><path
         d="m 252.89208,215.5935 c 21.508,0 39.051,17.545 39.051,39.052 0,21.509 -17.543,39.051 -39.051,39.051 -21.509,0 -39.051,-17.542 -39.051,-39.051 0,-21.507 17.542,-39.052 39.051,-39.052"
         style="fill:#464648;fill-opacity:1;fill-rule:evenodd;stroke:none;stroke-width:0.1"
         id="path168" /><path
         d="m 235.19908,202.7585 c -14.009,5.932 -23.837,19.807 -23.837,35.977 0,13.338 6.686,25.108 16.889,32.153 -6.539,-12.312 -9.27,-48.938 6.948,-68.13"
         style="fill:#464648;fill-opacity:1;fill-rule:evenodd;stroke:none;stroke-width:0.1"
         id="path170" /><path
         d="m 224.41508,227.9265 c -6.12,6.522 -10.028,15.143 -10.52,24.668 2.833,7.461 7.888,13.827 14.356,18.294 -4.217,-7.941 -6.849,-25.993 -3.836,-42.962"
         style="fill:#5e5f62;fill-opacity:1;fill-rule:evenodd;stroke:none;stroke-width:0.1"
         id="path172" /><path
         d="m 263.43008,46.785503 c 34.938,0 63.433,28.495 63.433,63.431997 0,34.937 -28.495,63.431 -63.433,63.431 -34.937,0 -63.432,-28.494 -63.432,-63.431 0,-34.936997 28.495,-63.431997 63.432,-63.431997"
         style="fill:#b1b1b0;fill-opacity:1;fill-rule:evenodd;stroke:none;stroke-width:0.1"
         id="path174" /><path
         d="m 204.74908,110.2175 c 19.56,19.559 39.121,39.12 58.681,58.68 h -62.802 c -39.951,0 -20.601,-58.75 4.121,-58.68"
         style="fill:#7a7b7d;fill-opacity:1;fill-rule:evenodd;stroke:none;stroke-width:0.1"
         id="path176" /><path
         d="m 263.43008,51.537503 c 32.32,0 58.68,26.36 58.68,58.679997 0,32.32 -26.36,58.68 -58.68,58.68 -32.321,0 -58.681,-26.36 -58.681,-58.68 0,-32.319997 26.36,-58.679997 58.681,-58.679997"
         style="fill:#579d33;fill-opacity:1;fill-rule:evenodd;stroke:none;stroke-width:0.1"
         id="path178" /><path
         d="m 263.43008,168.8975 c 21.746,0 40.73,-11.831 50.867,-29.406 1.85,-5.706 2.855,-11.795 2.855,-18.118 0,-32.407997 -26.274,-58.678997 -58.682,-58.678997 -21.746,0 -40.729,11.831 -50.865,29.406 -1.852,5.706 -2.856,11.792997 -2.856,18.116997 0,32.408 26.273,58.68 58.681,58.68"
         style="fill:#64ac31;fill-opacity:1;fill-rule:evenodd;stroke:none;stroke-width:0.1"
         id="path180" /><path
         d="m 252.89208,85.836503 c 21.508,0 39.051,17.542997 39.051,39.050997 0,21.507 -17.543,39.051 -39.051,39.051 -21.509,0 -39.051,-17.544 -39.051,-39.051 0,-21.508 17.542,-39.050997 39.051,-39.050997"
         style="fill:#80cb41;fill-opacity:1;fill-rule:evenodd;stroke:none;stroke-width:0.1"
         id="path182" /><path
         d="m 235.19908,73.000503 c -14.009,5.932 -23.837,19.806 -23.837,35.975997 0,13.337 6.686,25.109 16.889,32.153 -6.539,-12.311 -9.27,-48.937997 6.948,-68.128997"
         style="fill:#80cb41;fill-opacity:1;fill-rule:evenodd;stroke:none;stroke-width:0.1"
         id="path184" /><path
         d="m 224.41508,98.167503 c -6.12,6.521997 -10.028,15.143997 -10.52,24.669997 2.833,7.46 7.888,13.827 14.356,18.292 -4.217,-7.939 -6.849,-25.993 -3.836,-42.961997"
         style="fill:#99d658;fill-opacity:1;fill-rule:evenodd;stroke:none;stroke-width:0.1"
         id="path186" /><path
         d="m 200.62808,168.8975 c 54.268,-6.336 57.29,-58.82 121.482,-58.68 0,33.206 -24.922,59.194 -58.762,58.678 l -62.72,0.002"
         style="fill:#949595;fill-opacity:1;fill-rule:evenodd;stroke:none;stroke-width:0.1"
         id="path190" /><path
         d="m 263.43008,310.2255 c 32.32,0 58.68,26.361 58.68,58.682 0,32.319 -26.36,58.679 -58.68,58.679 -32.321,0 -58.681,-26.36 -58.681,-58.679 0,-32.321 26.36,-58.682 58.681,-58.682"
         style="fill:#100f0d;fill-opacity:1;fill-rule:evenodd;stroke:none;stroke-width:0.1"
         id="path206" /><path
         d="m 204.74908,368.9075 c 19.56,19.559 39.121,39.12 58.681,58.679 h -62.802 c -39.951,0 -20.601,-58.749 4.121,-58.679"
         style="fill:#7a7b7d;fill-opacity:1;fill-rule:evenodd;stroke:none;stroke-width:0.1"
         id="path208" /><path
         d="m 263.43008,427.5865 c 21.746,0 40.73,-11.83 50.867,-29.406 1.85,-5.706 2.855,-11.793 2.855,-18.116 0,-32.408 -26.274,-58.681 -58.682,-58.681 -21.746,0 -40.729,11.831 -50.865,29.408 -1.852,5.705 -2.856,11.793 -2.856,18.116 0,32.408 26.273,58.679 58.681,58.679"
         style="fill:#1b1919;fill-opacity:1;fill-rule:evenodd;stroke:none;stroke-width:0.1"
         id="path210" /><path
         d="m 252.89208,344.5265 c 21.508,0 39.051,17.543 39.051,39.051 0,21.509 -17.543,39.051 -39.051,39.051 -21.509,0 -39.051,-17.542 -39.051,-39.051 0,-21.508 17.542,-39.051 39.051,-39.051"
         style="fill:#464648;fill-opacity:1;fill-rule:evenodd;stroke:none;stroke-width:0.1"
         id="path212" /><path
         d="m 235.19908,331.6915 c -14.009,5.931 -23.837,19.805 -23.837,35.976 0,13.337 6.686,25.108 16.889,32.153 -6.539,-12.312 -9.27,-48.939 6.948,-68.129"
         style="fill:#464648;fill-opacity:1;fill-rule:evenodd;stroke:none;stroke-width:0.1"
         id="path214" /><path
         d="m 224.41508,356.8595 c -6.12,6.52 -10.028,15.142 -10.52,24.668 2.833,7.461 7.888,13.826 14.356,18.293 -4.217,-7.94 -6.849,-25.993 -3.836,-42.961"
         style="fill:#5e5f62;fill-opacity:1;fill-rule:evenodd;stroke:none;stroke-width:0.1"
         id="path216" /><g
         id="g1150"
         transform="translate(-1.1259152,-57.542497)"><path
           d="m 264.557,238.837 c 32.32,0 58.68,26.361 58.68,58.68 0,32.32 -26.36,58.681 -58.68,58.681 -32.321,0 -58.682,-26.361 -58.682,-58.681 0,-32.319 26.361,-58.68 58.682,-58.68"
           style="fill:#ddb312;fill-opacity:1;fill-rule:evenodd;stroke:none;stroke-width:0.1"
           id="path126" /><path
           d="m 264.555,356.198 c 21.748,0 40.732,-11.83 50.867,-29.407 1.852,-5.707 2.857,-11.791 2.857,-18.116 0,-32.408 -26.274,-58.681 -58.682,-58.681 -21.746,0 -40.729,11.833 -50.867,29.407 -1.85,5.707 -2.855,11.794 -2.855,18.116 0,32.408 26.273,58.681 58.68,58.681"
           style="fill:#fbc907;fill-opacity:1;fill-rule:evenodd;stroke:none;stroke-width:0.1"
           id="path128" /><path
           d="m 254.019,273.136 c 21.508,0 39.051,17.545 39.051,39.052 0,21.509 -17.543,39.051 -39.051,39.051 -21.509,0 -39.052,-17.542 -39.052,-39.051 0,-21.507 17.543,-39.052 39.052,-39.052"
           style="fill:#fbd929;fill-opacity:1;fill-rule:evenodd;stroke:none;stroke-width:0.1"
           id="path130" /><path
           d="m 225.542,285.469 c -6.121,6.522 -10.028,15.143 -10.522,24.668 2.836,7.461 7.889,13.827 14.357,18.294 -4.216,-7.941 -6.848,-25.993 -3.835,-42.962"
           style="fill:#fbe557;fill-opacity:1;fill-rule:evenodd;stroke:none;stroke-width:0.1"
           id="path134" /></g><path
         d="m 200.62808,298.6555 c 54.268,-6.337 57.29,-58.821 121.482,-58.681 0,33.207 -24.922,59.193 -58.762,58.68 l -62.72,0.001"
         style="fill:#949595;fill-opacity:1;fill-rule:evenodd;stroke:none;stroke-width:0.1"
         id="path188" /><g
         id="g1157"
         transform="translate(177.67408,-57.542497)"><path
           d="m 85.7563,367.768 c 32.3207,0 58.6807,26.361 58.6807,58.682 0,32.319 -26.36,58.679 -58.6807,58.679 -32.3208,0 -58.6801,-26.36 -58.6801,-58.679 0,-32.321 26.3593,-58.682 58.6801,-58.682"
           style="fill:#de2f22;fill-opacity:1;fill-rule:evenodd;stroke:none;stroke-width:0.1"
           id="path72" /><path
           d="m 85.7555,485.129 c 21.7475,0 40.7295,-11.83 50.8675,-29.406 1.85,-5.706 2.854,-11.793 2.854,-18.116 0,-32.408 -26.271,-58.681 -58.6797,-58.681 -21.7477,0 -40.7309,11.831 -50.8676,29.408 -1.85,5.705 -2.8543,11.793 -2.8543,18.116 0,32.408 26.2723,58.679 58.6801,58.679"
           style="fill:#ef3520;fill-opacity:1;fill-rule:evenodd;stroke:none;stroke-width:0.1"
           id="path74" /><path
           d="m 75.218,402.069 c 21.5082,0 39.05,17.543 39.05,39.051 0,21.509 -17.5418,39.051 -39.05,39.051 -21.5086,0 -39.0508,-17.542 -39.0508,-39.051 0,-21.508 17.5422,-39.051 39.0508,-39.051"
           style="fill:#f14827;fill-opacity:1;fill-rule:evenodd;stroke:none;stroke-width:0.1"
           id="path76" /><path
           d="m 57.525,389.234 c -14.0094,5.931 -23.8379,19.805 -23.8379,35.976 0,13.337 6.6867,25.108 16.8895,32.153 -6.5383,-12.312 -9.27,-48.939 6.9484,-68.129"
           style="fill:#f14827;fill-opacity:1;fill-rule:evenodd;stroke:none;stroke-width:0.1"
           id="path78" /><path
           d="m 46.7406,414.402 c -6.1199,6.52 -10.0277,15.142 -10.5203,24.668 2.834,7.461 7.8883,13.826 14.3563,18.293 -4.2172,-7.94 -6.8477,-25.993 -3.836,-42.961"
           style="fill:#f35d3d;fill-opacity:1;fill-rule:evenodd;stroke:none;stroke-width:0.1"
           id="path80" /></g><path
         d="m 200.62808,427.5865 c 54.268,-6.336 57.29,-58.819 121.482,-58.679 0,33.206 -24.922,59.193 -58.762,58.679 h -62.72"
         style="fill:#949595;fill-opacity:1;fill-rule:evenodd;stroke:none;stroke-width:0.1"
         id="path218" /></g></g></svg>
